{"glyphs":{"0":{"ha":646,"x_min":54,"x_max":585,"o":"m 323 793 q 174 399 174 793 q 176 315 174 356 q 187 221 178 273 q 211 131 196 168 q 254 66 227 93 q 318 40 281 40 q 355 47 336 40 q 401 85 374 54 q 441 170 428 117 q 465 440 465 256 q 442 657 465 572 q 385 771 419 742 q 323 793 359 793 m 317 -14 q 124 105 193 -14 q 54 401 54 224 q 135 723 54 599 q 323 847 215 847 q 456 799 403 847 q 585 429 585 681 q 558 224 585 314 q 490 85 532 135 q 404 11 449 35 q 317 -14 359 -14 z "},"1":{"ha":646,"x_min":150,"x_max":465,"o":"m 453 262 q 465 0 453 107 l 463 -4 q 396 0 424 0 q 332 -4 396 0 l 330 0 q 342 262 341 90 l 342 607 q 317 713 342 713 q 244 703 301 713 q 158 690 187 693 l 150 730 q 311 792 208 749 q 454 847 414 835 q 464 840 464 847 q 453 615 453 762 l 453 262 z "},"2":{"ha":616,"x_min":45,"x_max":566,"o":"m 281 768 q 174 736 214 768 q 151 713 161 726 q 137 693 141 700 q 124 665 134 687 q 113 637 115 644 l 94 639 l 64 734 q 112 783 83 760 q 193 827 140 806 q 303 847 245 847 q 435 819 379 847 q 518 740 490 790 q 547 623 547 689 q 446 386 547 522 q 360 278 404 328 q 292 203 316 228 q 221 135 267 179 q 197 97 197 111 q 197 94 197 95 q 199 90 197 92 q 312 93 237 93 q 566 104 441 93 q 559 39 559 77 q 564 -7 559 22 q 322 0 398 0 q 59 -7 315 0 q 45 47 45 16 q 47 65 46 58 q 96 110 50 68 q 166 177 141 153 q 234 246 191 202 q 312 333 277 290 q 374 418 347 376 q 427 604 427 497 q 382 722 427 675 q 281 768 338 768 z "},"3":{"ha":646,"x_min":77,"x_max":591,"o":"m 290 40 q 341 48 314 40 q 399 76 368 57 q 451 138 431 96 q 472 239 472 180 q 418 372 472 326 q 282 416 363 417 q 224 414 241 416 l 224 475 q 275 471 253 471 q 390 510 351 471 q 443 646 443 560 q 407 751 443 709 q 328 793 371 793 q 230 764 267 793 q 167 675 193 736 l 146 676 l 117 765 l 121 770 q 340 847 210 848 q 503 795 442 847 q 564 667 564 743 q 512 527 564 586 q 400 454 461 468 l 400 447 q 537 385 482 440 q 591 250 591 330 q 539 101 591 164 q 419 13 486 39 q 288 -14 353 -14 q 81 53 160 -14 l 77 57 l 107 161 l 127 163 q 155 108 147 123 q 181 73 163 93 q 225 46 200 53 q 290 40 250 40 z "},"4":{"ha":646,"x_min":29,"x_max":615,"o":"m 397 205 l 111 205 q 29 233 29 205 q 47 288 29 256 q 221 563 102 379 q 404 833 340 746 l 410 839 q 457 833 435 833 q 487 836 468 833 q 511 839 505 839 q 514 833 514 839 q 505 628 506 757 l 505 275 l 595 275 q 615 253 616 275 q 602 223 615 241 q 575 205 589 205 l 505 205 q 514 0 505 121 q 511 -4 514 -4 q 486 -2 506 -4 q 453 0 465 0 l 387 -4 l 386 0 q 397 205 397 94 m 397 711 l 115 275 l 397 275 l 397 711 z "},"5":{"ha":646,"x_min":65,"x_max":564,"o":"m 281 -14 q 71 64 160 -14 l 65 68 l 96 179 l 115 180 q 131 151 119 174 q 146 123 143 129 q 161 101 150 117 q 178 80 172 85 q 196 65 183 75 q 220 52 208 54 q 248 45 232 49 q 283 41 264 41 q 398 98 354 41 q 441 249 441 154 q 397 415 441 359 q 282 472 353 472 q 110 429 217 472 l 100 433 l 144 842 q 302 833 239 833 q 530 847 418 833 l 541 843 l 518 749 q 372 741 450 741 q 196 753 289 741 l 167 507 q 318 528 224 528 q 497 453 431 528 q 564 272 564 378 q 484 67 564 149 q 281 -14 404 -14 z "},"6":{"ha":646,"x_min":64,"x_max":600,"o":"m 176 385 q 175 334 175 371 q 192 184 175 246 q 237 92 208 122 q 294 50 267 62 q 354 37 322 37 q 478 240 477 37 q 472 301 478 271 q 450 366 465 332 q 401 421 435 400 q 317 441 367 441 q 176 385 232 441 m 555 810 q 311 707 401 794 q 179 425 201 600 q 253 476 204 456 q 346 497 302 497 q 476 469 422 497 q 555 397 530 440 q 590 318 579 354 q 600 250 600 282 q 587 166 600 209 q 546 82 574 123 q 465 14 518 40 q 339 -12 411 -12 q 250 2 293 -12 q 162 52 207 17 q 91 161 118 87 q 64 338 64 235 q 212 705 64 557 q 361 809 281 776 q 551 848 441 842 l 555 810 z "},"7":{"ha":646,"x_min":87,"x_max":589,"o":"m 479 729 q 87 717 228 737 q 94 785 94 770 q 87 843 94 791 q 476 833 157 833 q 566 847 524 833 l 589 833 q 278 -12 439 467 l 176 -18 l 172 -9 q 479 729 260 186 z "},"8":{"ha":646,"x_min":54,"x_max":595,"o":"m 326 802 q 232 767 267 802 q 197 682 197 733 q 294 530 197 595 l 338 505 q 415 580 379 534 q 450 675 450 625 q 420 765 450 729 q 326 802 390 802 m 553 673 q 537 611 553 642 q 493 553 522 581 q 443 510 464 526 q 389 472 421 493 l 473 416 q 595 225 594 337 q 518 63 595 138 q 314 -12 441 -12 q 126 44 199 -12 q 54 203 54 100 q 146 370 54 289 q 243 449 191 408 l 215 464 q 93 657 93 534 q 161 792 93 738 q 335 847 229 847 q 495 799 437 847 q 553 673 553 750 m 317 33 q 429 70 379 33 q 479 196 479 106 q 357 376 479 300 l 293 416 q 163 203 162 330 q 211 76 163 118 q 317 33 258 33 z "},"9":{"ha":646,"x_min":39,"x_max":575,"o":"m 463 449 q 464 500 464 463 q 447 649 464 587 q 401 741 431 711 q 345 784 372 771 q 285 796 317 796 q 161 593 161 796 q 168 532 161 562 q 189 467 174 501 q 238 413 204 433 q 322 392 272 392 q 463 449 407 392 m 83 24 q 328 126 237 39 q 460 408 437 233 q 386 357 435 378 q 293 336 336 336 q 162 365 216 336 q 84 436 109 393 q 49 515 60 479 q 39 583 39 551 q 52 667 39 625 q 93 751 65 710 q 174 819 121 793 q 300 846 228 846 q 389 831 346 846 q 476 781 432 817 q 548 672 521 746 q 575 496 575 599 q 427 127 575 276 q 277 24 357 57 q 87 -16 197 -8 l 83 24 z "}," ":{"ha":347,"x_min":0,"x_max":0,"o":""},"!":{"ha":316,"x_min":79,"x_max":235,"o":"m 157 914 q 211 888 187 914 q 235 812 235 861 q 219 673 235 761 q 199 545 204 586 q 185 420 191 479 q 179 329 180 361 q 176 292 178 297 q 157 264 174 264 q 138 282 140 264 l 131 380 q 117 545 124 479 q 97 676 111 593 q 82 812 82 758 q 105 889 82 864 q 157 914 129 914 m 79 61 l 79 66 q 154 142 98 118 l 160 142 q 235 66 217 121 l 235 61 q 160 -14 215 0 l 154 -14 q 105 10 121 -7 q 79 61 89 26 z "},"\"":{"ha":467,"x_min":87,"x_max":382,"o":"m 298 593 q 262 827 262 814 q 283 874 262 852 q 334 896 304 896 q 382 850 382 896 l 336 599 l 298 593 m 123 591 q 87 825 87 812 q 108 872 87 850 q 158 895 129 895 q 207 848 207 895 l 161 597 l 123 591 z "},"#":{"ha":652,"x_min":37,"x_max":615,"o":"m 396 343 l 421 505 l 258 505 l 232 343 l 396 343 m 471 505 l 443 343 l 578 343 l 567 271 l 435 271 l 393 20 l 345 20 l 383 271 l 221 271 l 179 20 l 131 20 l 171 271 l 37 271 l 47 343 l 182 343 l 208 505 l 74 505 l 86 579 l 220 579 l 260 831 l 310 831 l 268 579 l 433 579 l 472 831 l 521 831 l 481 579 l 615 579 l 604 505 l 471 505 z "},"$":{"ha":646,"x_min":57,"x_max":586,"o":"m 297 507 l 313 794 l 311 794 q 211 756 249 794 q 174 659 174 718 q 194 589 174 621 q 239 540 214 557 q 297 507 264 523 m 340 367 l 323 44 q 432 88 388 50 q 476 195 476 127 q 466 262 476 233 q 435 310 456 291 q 393 342 414 330 q 340 367 372 354 m 319 -13 l 313 -130 q 262 -136 301 -136 l 269 -14 q 154 4 205 -11 q 81 32 102 20 q 60 46 60 44 l 57 50 q 83 176 78 136 l 96 178 q 112 149 102 163 q 132 123 121 135 q 154 100 142 111 q 180 80 166 89 q 208 64 193 71 q 239 53 223 58 q 272 45 255 47 l 290 387 q 212 425 245 406 q 146 473 178 445 q 96 540 113 502 q 79 625 79 578 q 93 699 79 664 q 131 760 107 734 q 184 805 154 786 q 249 835 215 825 q 316 847 283 846 l 322 958 q 374 964 340 964 l 367 846 q 464 827 422 842 q 519 801 505 813 l 533 789 l 536 785 q 511 663 517 725 l 497 661 q 442 743 475 711 q 363 788 409 776 l 347 487 q 403 465 378 475 q 457 439 427 455 q 508 404 486 423 q 548 361 529 385 q 576 307 566 338 q 586 240 586 276 q 503 57 586 127 q 419 9 467 27 q 319 -13 371 -9 z "},"%":{"ha":944,"x_min":87,"x_max":888,"o":"m 642 123 q 662 48 642 71 q 708 25 682 25 q 804 99 765 25 q 843 243 843 172 q 822 314 843 294 q 777 334 800 334 q 683 263 725 334 q 642 123 642 193 m 564 146 q 622 306 564 232 q 760 379 681 379 q 851 349 814 379 q 888 244 888 318 q 836 68 888 155 q 699 -18 783 -18 q 599 31 635 -18 q 564 146 564 81 m 541 774 q 667 792 602 774 q 762 852 732 811 l 810 829 l 201 -18 l 151 4 l 684 746 q 525 718 613 718 q 407 749 458 718 q 411 713 411 733 q 358 539 411 628 q 221 450 306 450 q 122 499 157 450 q 87 611 87 549 q 146 773 87 699 q 282 847 204 847 q 340 835 311 847 q 382 810 370 823 q 541 774 460 774 m 164 590 q 185 515 164 537 q 231 493 205 493 q 327 565 288 493 q 366 711 366 637 q 345 782 366 762 q 298 802 325 802 q 205 730 247 802 q 164 590 164 659 z "},"&":{"ha":840,"x_min":58,"x_max":823,"o":"m 589 447 q 567 467 566 447 q 578 494 567 480 q 606 507 590 507 l 802 507 q 823 489 824 507 q 812 460 823 473 q 785 447 800 447 l 697 447 q 586 91 682 199 q 342 -17 490 -17 q 136 49 213 -17 q 58 228 58 115 q 102 366 58 298 q 207 481 146 433 q 165 596 165 535 q 233 734 165 671 q 414 796 300 796 q 491 781 446 796 q 550 766 536 766 q 568 608 550 711 l 530 602 q 474 701 515 660 q 374 742 433 742 q 274 700 306 742 q 241 616 241 659 q 318 507 241 507 l 449 507 q 471 489 471 507 q 459 460 471 473 q 432 447 447 447 l 283 447 q 195 397 235 447 q 155 292 155 347 q 160 233 155 261 q 178 172 164 205 q 214 115 192 139 q 276 74 236 90 q 367 58 315 58 q 487 96 432 58 q 574 188 542 134 q 624 298 607 243 q 642 393 642 353 q 627 433 642 418 q 589 447 612 447 z "},"'":{"ha":264,"x_min":74,"x_max":193,"o":"m 110 591 q 74 825 74 812 q 95 872 74 850 q 144 895 115 895 q 193 848 193 895 l 147 597 l 110 591 z "},"(":{"ha":416,"x_min":61,"x_max":387,"o":"m 61 451 q 101 663 61 559 q 205 849 140 767 q 355 994 271 932 l 387 973 q 176 451 176 768 q 387 -73 176 136 l 355 -94 q 70 353 115 85 q 61 451 61 404 z "},")":{"ha":416,"x_min":29,"x_max":355,"o":"m 355 451 q 274 148 355 291 q 61 -92 192 4 l 29 -71 q 240 451 240 134 q 29 975 240 766 l 61 996 q 183 886 130 945 q 266 770 236 827 q 316 664 296 713 q 344 567 336 615 q 353 496 351 519 q 355 451 355 473 z "},"*":{"ha":601,"x_min":104,"x_max":492,"o":"m 275 787 q 216 793 252 793 q 104 844 104 793 q 115 874 104 861 q 150 886 126 886 q 217 856 176 886 q 283 815 258 825 q 266 884 281 843 q 252 943 252 925 q 263 981 252 966 q 293 997 275 997 q 339 949 339 997 q 327 881 339 929 q 313 814 314 833 q 379 856 339 825 q 444 886 419 886 q 480 872 469 886 q 492 844 492 859 q 396 793 492 793 q 319 787 353 793 q 368 748 336 769 q 417 709 400 726 q 435 667 435 692 q 422 637 435 648 q 395 627 410 627 q 355 649 371 627 q 323 712 339 671 q 296 771 307 753 q 270 710 286 753 q 238 647 253 667 q 199 627 222 627 q 169 638 180 627 q 158 665 158 650 q 176 710 158 692 q 227 748 195 728 q 275 787 258 768 z "},"+":{"ha":732,"x_min":92,"x_max":640,"o":"m 401 357 l 640 357 l 640 289 l 401 289 l 401 47 l 330 47 l 330 289 l 92 289 l 92 357 l 330 357 l 330 599 l 401 599 l 401 357 z "},",":{"ha":305,"x_min":66,"x_max":236,"o":"m 66 61 l 66 66 q 142 142 85 118 l 147 142 q 236 -4 236 110 q 225 -75 236 -44 q 190 -130 215 -106 q 148 -165 165 -154 q 92 -200 131 -176 q 74 -171 73 -184 q 182 -40 182 -97 q 142 -4 182 -4 q 91 16 107 4 q 66 61 75 28 z "},"-":{"ha":462,"x_min":46,"x_max":418,"o":"m 380 301 l 66 301 q 46 325 45 301 q 57 359 46 342 q 81 376 68 376 l 399 376 q 418 351 418 376 q 405 320 418 339 q 380 301 393 301 z "},".":{"ha":305,"x_min":75,"x_max":231,"o":"m 75 61 l 75 66 q 150 142 94 118 l 155 142 q 231 66 212 121 l 231 61 q 155 -14 211 0 l 150 -14 q 101 10 117 -7 q 75 61 85 26 z "},"/":{"ha":448,"x_min":21,"x_max":407,"o":"m 407 897 l 78 -82 l 21 -82 l 350 897 l 407 897 z "},":":{"ha":305,"x_min":85,"x_max":240,"o":"m 85 494 l 85 500 q 160 575 103 551 l 165 575 q 240 500 222 554 l 240 494 q 165 419 220 433 l 160 419 q 111 443 127 426 q 85 494 94 460 m 85 129 l 85 135 q 160 210 103 186 l 165 210 q 240 135 222 189 l 240 129 q 165 54 220 68 l 160 54 q 111 78 127 61 q 85 129 94 94 z "},";":{"ha":305,"x_min":66,"x_max":236,"o":"m 71 494 l 71 500 q 146 575 89 551 l 151 575 q 227 500 208 554 l 227 494 q 151 419 207 433 l 146 419 q 96 443 113 426 q 71 494 80 460 m 66 61 l 66 66 q 142 142 85 118 l 147 142 q 236 -4 236 110 q 225 -75 236 -44 q 190 -130 215 -106 q 148 -165 165 -154 q 92 -200 131 -176 q 74 -171 73 -184 q 182 -40 182 -97 q 142 -4 182 -4 q 91 16 107 4 q 66 61 75 28 z "},"<":{"ha":676,"x_min":68,"x_max":610,"o":"m 170 332 l 610 171 l 610 102 l 68 298 l 68 366 l 610 561 l 610 492 l 170 332 z "},"=":{"ha":732,"x_min":92,"x_max":640,"o":"m 640 441 l 640 374 l 92 374 l 92 441 l 640 441 m 640 268 l 640 200 l 92 200 l 92 268 l 640 268 z "},">":{"ha":676,"x_min":68,"x_max":610,"o":"m 509 328 l 68 489 l 68 558 l 610 361 l 610 294 l 68 98 l 68 168 l 509 328 z "},"?":{"ha":562,"x_min":60,"x_max":513,"o":"m 271 860 q 100 729 175 860 l 82 730 l 60 823 l 64 829 q 283 916 167 916 q 451 859 389 916 q 513 705 513 802 q 486 609 513 654 q 435 542 460 564 q 366 488 410 519 q 293 418 307 445 q 268 317 268 369 l 268 256 q 250 242 268 242 q 232 256 232 241 l 232 319 q 235 387 232 359 q 261 460 239 415 q 325 543 283 505 q 389 619 370 585 q 408 700 408 653 q 369 814 408 768 q 271 860 330 860 m 172 61 l 172 66 q 248 142 191 118 l 253 142 q 328 66 310 121 l 328 61 q 253 -14 308 0 l 248 -14 q 198 10 214 -7 q 172 61 182 26 z "},"@":{"ha":1242,"x_min":82,"x_max":1165,"o":"m 790 439 q 765 502 790 477 q 700 526 739 526 q 640 513 676 526 q 575 471 603 500 q 481 225 481 376 q 589 97 481 98 q 671 149 625 97 q 749 278 717 201 q 790 439 790 378 m 810 103 q 825 86 810 86 q 997 152 939 86 q 1055 382 1055 218 q 1015 569 1055 485 q 911 703 975 653 q 776 780 847 753 q 637 807 705 807 q 478 779 555 807 q 337 695 401 750 q 233 547 272 640 q 193 335 193 453 q 207 202 193 269 q 254 66 220 135 q 338 -55 288 -3 q 471 -140 389 -107 q 657 -174 554 -174 q 936 -82 821 -174 l 954 -107 q 810 -191 880 -163 q 631 -220 739 -220 q 234 -68 387 -220 q 82 310 82 83 q 249 691 82 534 q 652 848 416 848 q 1020 718 874 848 q 1165 392 1165 587 q 1144 269 1165 328 q 1080 156 1124 210 q 955 70 1036 103 q 765 37 873 37 q 715 94 715 37 q 736 182 715 117 l 733 183 q 640 76 690 111 q 549 40 589 40 q 464 59 500 40 q 411 106 428 78 q 387 161 395 135 q 379 212 379 187 q 483 463 379 355 q 703 570 586 570 q 769 553 737 570 q 810 510 800 536 l 817 543 l 890 561 l 911 554 l 828 196 q 810 103 810 115 z "},"A":{"ha":873,"x_min":22,"x_max":851,"o":"m 566 382 q 501 546 536 460 q 425 725 466 631 l 422 725 l 276 383 q 345 382 292 383 q 421 380 398 380 q 566 382 480 380 m 249 317 q 179 138 209 219 q 134 -4 149 56 q 71 0 117 0 q 22 -4 39 0 q 432 914 258 514 l 471 914 q 605 586 518 802 q 756 214 692 371 q 851 -4 821 57 q 768 0 827 0 q 699 -4 722 0 q 692 18 696 5 q 682 52 688 31 q 667 100 675 73 q 647 159 658 127 q 622 233 636 191 q 591 317 607 274 q 505 319 545 319 q 428 319 464 319 q 249 317 349 319 z "},"B":{"ha":855,"x_min":131,"x_max":770,"o":"m 264 777 l 264 515 l 372 515 q 516 550 465 515 q 567 668 567 585 q 515 802 567 764 q 390 840 463 840 q 287 827 309 840 q 264 777 264 814 m 264 456 l 264 122 q 295 72 264 87 q 399 56 326 56 q 584 101 536 56 q 632 229 632 146 q 571 392 632 328 q 393 456 510 456 l 264 456 m 204 896 q 300 898 241 896 q 380 900 358 900 q 511 886 454 900 q 601 851 568 872 q 653 801 633 831 q 681 743 673 771 q 688 685 688 715 q 651 578 688 629 q 558 500 614 526 q 770 256 769 439 q 753 164 770 207 q 701 81 737 121 q 594 19 665 41 q 425 -4 524 -4 q 301 -2 359 -4 q 204 0 243 0 l 132 -4 l 131 0 q 144 278 144 94 l 144 618 q 131 896 144 797 l 134 900 q 204 896 157 896 z "},"C":{"ha":940,"x_min":72,"x_max":864,"o":"m 528 914 q 679 899 603 914 q 792 867 754 884 l 831 851 l 833 847 q 806 693 810 747 l 791 692 q 509 848 713 848 q 414 827 463 848 q 319 763 366 806 q 244 642 273 720 q 215 464 215 564 q 249 268 215 358 q 358 117 283 178 q 534 57 432 57 q 693 87 630 57 q 831 200 755 118 l 864 174 q 522 -14 721 -14 q 274 54 379 -14 q 121 221 170 121 q 72 437 72 322 q 210 776 72 637 q 528 914 347 914 z "},"D":{"ha":986,"x_min":131,"x_max":914,"o":"m 264 114 q 290 69 264 79 q 415 58 317 58 q 555 72 496 58 q 665 121 614 86 q 744 224 717 155 q 771 395 771 293 q 751 555 771 481 q 689 696 732 629 q 567 801 646 762 q 380 839 489 839 q 293 828 322 839 q 264 783 264 817 l 264 114 m 204 896 q 319 898 249 896 q 433 900 389 900 q 774 761 633 900 q 914 428 914 623 q 885 252 914 330 q 810 129 856 175 q 703 52 765 82 q 582 9 642 21 q 458 -3 522 -3 q 314 -1 380 -3 q 204 0 248 0 l 132 -4 l 131 0 q 144 278 144 94 l 144 618 q 131 896 144 797 l 134 900 q 204 896 157 896 z "},"E":{"ha":747,"x_min":131,"x_max":669,"o":"m 264 278 q 275 78 264 115 q 456 82 359 78 q 610 90 554 86 l 667 94 l 669 89 q 667 43 667 66 q 669 0 667 39 l 667 -4 q 583 0 633 0 l 204 0 l 132 -4 l 131 0 q 144 278 144 94 l 144 618 q 131 896 144 797 l 134 900 q 204 896 157 896 l 570 896 q 653 900 620 896 l 656 896 q 653 843 653 857 q 656 807 653 829 l 653 802 q 275 818 461 819 q 264 618 264 781 l 264 510 q 574 524 410 510 l 578 519 q 574 475 574 500 q 578 431 574 450 l 574 427 q 264 440 436 440 l 264 278 z "},"F":{"ha":700,"x_min":131,"x_max":656,"o":"m 566 896 q 653 900 620 896 l 656 896 q 653 848 653 857 q 656 807 653 829 l 653 802 q 275 818 461 819 q 264 618 264 781 l 264 510 q 574 524 410 510 l 578 519 q 574 475 574 500 q 578 431 574 450 l 574 427 q 264 440 436 440 l 264 278 q 278 0 264 99 l 275 -4 q 204 0 252 0 l 132 -4 l 131 0 q 144 278 144 94 l 144 618 q 131 896 144 797 l 134 900 q 204 896 157 896 l 566 896 z "},"G":{"ha":996,"x_min":72,"x_max":892,"o":"m 758 163 q 745 427 754 355 l 747 431 q 818 427 771 427 q 890 431 818 427 l 892 427 q 878 191 878 335 l 878 182 q 892 115 878 132 l 892 111 q 522 -14 743 -14 q 196 120 319 -14 q 72 440 72 253 q 114 643 72 551 q 225 792 155 734 q 380 882 294 850 q 557 914 467 914 q 711 899 632 914 q 832 867 790 884 l 873 851 l 876 847 q 848 679 854 753 l 835 677 q 709 803 787 757 q 538 848 631 848 q 305 742 395 848 q 215 454 215 635 q 234 313 215 382 q 291 184 253 244 q 397 87 329 123 q 554 50 465 50 q 758 103 703 50 l 758 163 z "},"H":{"ha":1008,"x_min":131,"x_max":878,"o":"m 745 618 q 730 896 745 797 l 733 900 q 804 896 758 896 q 876 900 852 896 l 878 896 q 864 618 864 804 l 864 278 q 878 0 864 99 l 875 -4 q 804 0 850 0 q 732 -4 757 0 l 730 0 q 745 278 744 94 l 745 446 l 264 446 l 264 278 q 278 0 264 99 l 275 -4 q 204 0 250 0 q 132 -4 157 0 l 131 0 q 144 278 144 94 l 144 618 q 131 896 144 797 l 134 900 q 204 896 159 896 q 277 900 252 896 l 278 896 q 264 618 264 804 l 264 507 l 745 507 l 745 618 z "},"I":{"ha":408,"x_min":131,"x_max":278,"o":"m 144 618 q 131 896 144 797 l 134 900 q 204 896 159 896 q 275 900 250 896 l 278 896 q 264 618 264 804 l 264 278 q 278 0 264 99 l 275 -4 q 204 0 250 0 q 134 -4 158 0 l 131 0 q 144 278 144 94 l 144 618 z "},"J":{"ha":444,"x_min":-57,"x_max":328,"o":"m 195 132 l 195 618 q 180 896 195 797 l 183 900 q 254 896 208 896 q 326 900 302 896 l 328 896 q 314 618 314 804 l 314 163 q 298 -8 314 45 q 227 -134 282 -61 q 7 -239 144 -239 q -56 -227 -36 -239 l -57 -222 q -18 -109 -40 -193 l -3 -107 q 78 -155 24 -156 q 142 -130 117 -155 q 177 -56 167 -104 q 191 34 187 -7 q 195 132 195 74 z "},"K":{"ha":873,"x_min":131,"x_max":843,"o":"m 144 618 q 131 896 144 797 l 134 900 q 204 896 159 896 q 275 900 250 896 l 278 896 q 264 618 264 804 l 264 478 q 294 490 282 480 q 690 900 457 632 q 758 896 709 896 q 829 900 807 896 q 407 492 543 648 l 407 489 l 843 -4 q 757 0 817 0 q 671 -4 694 0 q 290 447 366 371 q 282 452 287 450 q 272 455 277 454 q 264 456 268 456 l 264 278 q 278 0 264 99 l 275 -4 q 204 0 250 0 q 134 -4 158 0 l 131 0 q 144 278 144 94 l 144 618 z "},"L":{"ha":715,"x_min":132,"x_max":671,"o":"m 265 618 l 265 278 q 277 85 265 123 q 458 92 360 85 q 612 108 555 100 l 668 115 l 671 110 q 668 61 668 87 q 671 0 668 39 l 668 -4 q 585 0 635 0 l 205 0 l 134 -4 l 132 0 q 146 278 146 94 l 146 618 q 132 896 146 797 l 135 900 q 205 896 160 896 q 278 900 253 896 l 279 896 q 265 618 265 804 z "},"M":{"ha":1230,"x_min":89,"x_max":1135,"o":"m 268 920 l 306 920 q 387 743 343 843 q 463 565 430 642 q 540 391 495 488 q 629 214 585 294 l 987 920 l 1018 920 q 1135 -4 1082 367 q 1061 0 1114 0 q 993 -4 1014 0 q 930 656 956 437 l 925 657 q 603 0 743 321 l 576 0 q 528 107 553 49 q 481 217 503 165 q 435 327 460 268 q 388 439 410 387 q 338 550 366 491 q 285 661 311 609 l 279 661 q 244 436 264 572 q 204 178 223 301 q 176 -4 186 55 q 135 0 161 0 q 89 -4 104 0 q 268 920 201 538 z "},"N":{"ha":997,"x_min":136,"x_max":878,"o":"m 150 896 l 153 900 q 211 896 163 896 q 231 899 211 896 l 707 282 q 772 205 762 210 q 786 218 783 201 q 789 248 788 229 l 789 618 q 775 896 789 797 l 778 900 q 826 896 803 896 q 875 900 850 896 l 878 896 q 865 669 869 787 q 859 472 860 550 q 854 249 857 393 q 850 29 851 104 q 823 -14 847 -14 q 764 20 789 -14 l 279 632 q 249 670 258 660 q 233 677 239 681 q 226 660 227 673 q 225 610 225 646 l 225 278 q 239 0 225 99 l 236 -4 q 188 0 211 0 q 139 -4 164 0 l 136 0 q 156 432 153 161 q 150 896 159 703 z "},"O":{"ha":1029,"x_min":72,"x_max":957,"o":"m 493 852 q 297 755 379 852 q 215 454 215 657 q 311 156 215 264 q 541 47 407 47 q 738 148 663 47 q 814 431 814 249 q 729 747 814 642 q 493 852 644 852 m 957 457 q 834 118 957 249 q 513 -14 711 -14 q 200 109 328 -14 q 72 431 72 231 q 198 774 72 635 q 511 914 325 914 q 829 787 702 914 q 957 457 957 660 z "},"P":{"ha":776,"x_min":131,"x_max":721,"o":"m 264 785 l 264 457 q 374 443 290 444 q 533 491 481 443 q 586 654 586 539 q 569 753 586 714 q 522 812 553 793 q 460 839 492 832 q 389 846 429 846 q 290 831 317 846 q 264 785 264 817 m 144 618 q 131 896 144 797 l 134 900 q 204 896 159 896 q 303 901 225 896 q 399 905 380 905 q 557 883 490 905 q 657 822 624 860 q 706 744 690 783 q 721 661 721 704 q 702 567 721 614 q 646 478 684 521 q 539 410 608 436 q 380 383 471 383 q 264 397 307 383 l 264 278 q 278 0 264 99 l 275 -4 q 204 0 250 0 q 134 -4 158 0 l 131 0 q 144 278 144 94 l 144 618 z "},"Q":{"ha":1029,"x_min":72,"x_max":1125,"o":"m 493 852 q 297 755 379 852 q 215 454 215 657 q 311 156 215 264 q 541 47 407 47 q 738 148 663 47 q 814 431 814 249 q 729 747 814 642 q 493 852 644 852 m 779 68 q 860 20 785 65 q 996 -54 935 -24 q 1125 -107 1057 -83 l 1125 -115 q 994 -195 1034 -164 q 832 -85 932 -159 q 672 12 764 -36 q 622 -2 648 3 q 569 -11 596 -8 q 513 -14 541 -14 q 200 109 328 -14 q 72 431 72 231 q 198 774 72 635 q 511 914 325 914 q 829 787 702 914 q 957 457 957 660 q 910 231 957 332 q 779 68 863 130 z "},"R":{"ha":833,"x_min":131,"x_max":799,"o":"m 264 397 l 264 278 q 278 0 264 99 l 275 -4 q 204 0 250 0 q 134 -4 158 0 l 131 0 q 144 278 144 94 l 144 618 q 131 896 144 797 l 134 900 q 204 896 159 896 q 301 901 227 896 q 392 905 375 905 q 652 839 581 905 q 725 665 726 770 q 586 441 725 511 q 502 415 555 426 q 647 208 534 372 q 799 0 760 44 l 796 -4 q 713 0 768 0 q 629 -4 656 0 q 497 244 604 71 q 472 285 490 255 q 446 329 454 315 q 421 364 437 342 q 393 401 406 385 q 264 397 334 397 m 393 846 q 283 836 302 846 q 264 785 264 827 l 264 453 l 345 453 q 525 499 458 453 q 591 664 591 546 q 573 755 591 717 q 523 812 554 793 q 460 838 492 831 q 393 846 429 846 z "},"S":{"ha":703,"x_min":69,"x_max":628,"o":"m 336 47 q 450 91 401 47 q 498 210 498 135 q 457 334 498 290 q 336 411 415 378 q 249 453 285 432 q 175 505 212 473 q 117 578 138 536 q 97 673 97 621 q 141 804 97 745 q 250 890 184 863 q 370 914 307 914 q 496 899 441 914 q 571 867 551 884 l 590 851 l 593 847 q 561 708 566 760 l 547 707 q 467 812 519 772 q 358 852 415 852 q 273 836 305 852 q 228 786 247 823 q 210 711 210 749 q 225 639 210 671 q 269 586 240 607 q 321 554 298 566 q 379 529 345 542 q 628 252 628 436 q 542 59 628 132 q 325 -14 456 -14 q 190 2 253 -14 q 99 33 126 17 l 72 49 l 69 53 q 102 196 97 156 l 115 197 q 213 92 147 136 q 336 47 278 47 z "},"T":{"ha":749,"x_min":21,"x_max":729,"o":"m 315 618 q 304 818 315 781 q 151 813 221 818 q 52 804 81 808 l 24 799 l 21 804 q 21 896 25 836 l 24 900 q 107 896 57 896 l 643 896 q 726 900 693 896 l 729 896 q 729 804 725 836 l 726 799 q 446 818 632 819 q 435 618 435 781 l 435 278 q 449 0 435 99 l 446 -4 q 375 0 420 0 q 304 -4 329 0 l 301 0 q 315 278 315 94 l 315 618 z "},"U":{"ha":961,"x_min":131,"x_max":844,"o":"m 755 618 q 742 896 755 797 l 745 900 q 793 896 770 896 q 842 900 817 896 l 844 896 q 831 618 831 804 l 831 410 q 749 97 831 207 q 468 -14 668 -14 q 363 1 414 -14 q 260 50 313 16 q 176 156 208 85 q 144 328 144 228 l 144 618 q 131 896 144 797 l 134 900 q 204 896 159 896 q 275 900 250 896 l 278 896 q 264 618 264 804 l 264 374 q 497 64 264 64 q 614 83 565 64 q 690 132 663 103 q 732 206 717 160 q 751 291 747 252 q 755 385 755 330 l 755 618 z "},"V":{"ha":876,"x_min":22,"x_max":851,"o":"m 450 184 q 484 262 458 202 q 521 348 510 322 q 557 431 532 374 q 594 520 581 488 q 628 603 607 552 q 661 688 648 653 q 689 763 674 722 q 715 837 704 804 q 733 900 726 871 q 796 896 757 896 q 851 900 827 896 q 441 -14 582 309 l 403 -14 q 269 312 357 96 q 117 683 182 528 q 22 900 53 838 q 106 896 61 896 q 182 900 143 896 q 447 184 269 597 l 450 184 z "},"W":{"ha":1320,"x_min":22,"x_max":1296,"o":"m 895 183 q 928 261 899 193 q 966 348 958 329 q 1001 430 974 367 q 1039 520 1028 493 q 1072 602 1050 547 q 1106 688 1095 656 q 1134 762 1118 720 q 1160 838 1150 804 q 1178 900 1169 871 q 1247 896 1195 896 q 1296 900 1279 896 q 886 -14 1027 309 l 847 -14 q 665 488 766 215 l 441 -14 l 403 -14 q 269 312 357 96 q 117 683 182 528 q 22 900 53 838 q 106 896 46 896 q 175 900 152 896 q 449 171 257 611 l 452 171 q 628 586 590 492 q 579 715 602 656 q 539 822 557 774 q 509 900 520 871 q 591 896 532 896 q 668 900 644 896 q 892 183 705 730 l 895 183 z "},"X":{"ha":806,"x_min":32,"x_max":783,"o":"m 783 -4 q 703 0 758 0 q 623 -4 647 0 q 579 74 602 36 q 530 155 557 113 q 485 226 503 198 q 432 306 467 254 q 381 382 397 358 q 149 -4 248 178 q 90 0 133 0 q 32 -4 47 0 l 339 446 l 39 900 q 117 896 62 896 q 196 900 171 896 q 238 825 210 871 q 286 747 265 779 q 355 642 306 715 q 419 543 404 568 q 551 739 512 677 q 644 900 591 800 q 703 896 660 896 q 761 900 746 896 q 689 802 743 874 q 576 646 636 729 q 460 479 517 562 q 783 -4 682 140 z "},"Y":{"ha":808,"x_min":22,"x_max":783,"o":"m 463 396 q 472 -4 465 74 q 402 0 447 0 q 334 -4 358 0 q 343 382 343 103 q 182 646 302 452 q 22 900 62 840 q 102 896 57 896 q 180 900 144 896 q 424 472 214 835 q 667 900 579 716 q 725 896 692 896 q 783 900 755 896 q 674 733 741 833 q 578 588 607 632 q 517 490 550 545 q 463 396 484 436 z "},"Z":{"ha":863,"x_min":60,"x_max":802,"o":"m 260 75 q 472 82 340 75 q 696 96 604 89 l 787 104 l 790 100 q 787 54 787 77 q 790 0 787 39 l 787 -4 q 689 0 754 0 l 184 0 l 64 -4 l 60 1 q 80 31 68 12 q 96 53 93 50 l 608 804 q 604 821 619 821 q 451 816 528 821 q 277 804 375 811 q 111 791 179 796 l 109 796 q 111 842 111 819 q 109 896 111 857 l 111 900 q 196 896 144 896 l 618 896 q 793 904 730 896 q 802 896 801 904 q 760 821 802 879 l 267 100 q 260 75 260 91 z "},"[":{"ha":501,"x_min":153,"x_max":452,"o":"m 153 -81 l 153 988 l 452 988 l 452 953 q 370 946 401 949 q 314 936 338 943 q 278 921 290 928 q 258 897 266 913 q 249 864 250 881 q 248 819 248 848 l 248 89 q 249 43 248 60 q 258 11 250 27 q 277 -13 265 -5 q 313 -28 289 -20 q 369 -39 338 -35 q 452 -46 401 -43 l 452 -81 l 153 -81 z "},"\\":{"ha":406,"x_min":16,"x_max":403,"o":"m 83 970 l 403 -66 l 335 -66 l 16 970 l 83 970 z "},"]":{"ha":501,"x_min":50,"x_max":349,"o":"m 349 988 l 349 -81 l 50 -81 l 50 -45 q 132 -38 100 -41 q 187 -27 163 -35 q 224 -13 212 -20 q 243 11 236 -5 q 253 43 251 27 q 254 89 254 60 l 254 819 q 253 864 254 848 q 243 897 251 880 q 224 921 236 913 q 188 936 212 928 q 132 946 163 943 q 50 954 100 950 l 50 988 l 349 988 z "},"^":{"ha":719,"x_min":155,"x_max":566,"o":"m 359 823 l 218 481 l 155 481 l 332 903 l 390 903 l 566 481 l 503 481 l 359 823 z "},"_":{"ha":675,"x_min":7,"x_max":669,"o":"m 669 -153 l 669 -214 l 7 -214 l 7 -153 l 669 -153 z "},"`":{"ha":544,"x_min":134,"x_max":353,"o":"m 248 971 l 345 796 q 353 762 353 779 q 347 752 353 757 q 332 747 340 747 q 292 775 321 747 l 134 926 l 136 942 q 227 974 179 974 q 248 971 237 974 z "},"a":{"ha":694,"x_min":22,"x_max":669,"o":"m 203 221 q 123 -3 144 76 q 78 0 111 0 q 22 -3 35 0 q 317 659 176 332 l 396 659 q 492 423 429 579 q 601 154 554 267 q 669 -3 647 41 q 581 0 652 0 q 530 -3 547 0 q 455 221 506 83 q 414 222 428 222 q 377 223 400 222 q 335 224 353 224 q 271 223 310 224 q 203 221 233 222 m 435 276 q 406 350 421 312 q 372 432 390 388 q 334 522 353 476 l 330 522 q 299 449 320 498 q 260 357 278 399 q 226 277 241 314 q 277 275 240 277 q 330 273 315 273 q 380 274 351 273 q 435 276 409 275 z "},"b":{"ha":684,"x_min":106,"x_max":608,"o":"m 233 558 l 233 371 l 329 371 q 426 398 397 371 q 456 488 456 425 q 421 576 456 555 q 326 597 386 597 q 247 591 261 597 q 233 558 233 585 m 233 323 l 233 93 q 237 64 233 72 q 260 48 240 56 q 323 41 281 41 q 451 82 418 41 q 484 183 484 123 q 451 290 484 257 q 329 323 419 323 l 233 323 m 175 639 q 328 643 289 643 q 567 489 566 643 q 537 408 567 449 q 465 347 507 367 q 608 174 608 314 q 539 50 608 104 q 358 -4 469 -4 q 254 -2 315 -4 q 175 0 192 0 l 107 -4 l 106 0 q 119 249 119 83 l 119 390 q 106 639 119 555 l 107 643 q 175 639 126 639 z "},"c":{"ha":700,"x_min":61,"x_max":642,"o":"m 401 604 q 183 322 183 604 q 203 186 183 247 q 275 83 222 126 q 407 40 328 40 q 518 64 475 40 q 611 146 561 87 l 640 111 q 535 16 590 45 q 400 -14 481 -14 q 154 83 248 -14 q 61 309 61 180 q 158 556 61 458 q 397 653 254 653 q 467 649 435 653 q 520 642 500 646 q 562 631 541 639 q 592 620 583 624 q 617 606 600 615 q 639 595 635 596 l 642 590 l 610 476 l 591 475 q 561 523 574 504 q 525 563 547 542 q 471 594 503 583 q 401 604 440 604 z "},"d":{"ha":786,"x_min":106,"x_max":708,"o":"m 231 113 q 253 65 231 79 q 349 50 275 50 q 530 101 472 50 q 589 289 589 151 q 575 397 589 346 q 532 493 561 449 q 449 564 503 538 q 322 590 395 590 q 231 545 231 590 l 231 113 m 175 639 q 244 640 201 639 q 317 642 286 642 q 363 643 347 643 q 612 549 517 643 q 708 313 708 454 q 680 161 708 225 q 602 63 652 97 q 498 13 553 29 q 382 -3 444 -3 q 250 -1 317 -3 q 175 0 183 0 l 107 -4 l 106 0 q 119 249 119 83 l 119 390 q 106 639 119 555 l 107 643 q 175 639 126 639 z "},"e":{"ha":654,"x_min":106,"x_max":559,"o":"m 178 639 l 460 639 q 543 643 510 639 l 546 639 q 543 596 543 600 q 546 567 543 589 l 543 561 q 241 578 428 578 q 231 389 231 541 l 231 363 q 341 364 306 363 q 409 370 376 366 q 464 376 441 375 l 468 372 q 464 333 464 353 q 468 294 464 314 l 464 290 q 231 304 326 304 l 231 250 q 241 68 231 106 q 404 72 325 68 q 519 81 482 77 l 557 85 l 559 79 q 557 36 557 57 q 557 26 557 31 q 559 14 558 21 q 559 0 559 7 l 557 -4 q 473 0 524 0 l 178 0 l 107 -4 l 106 0 q 119 249 119 83 l 119 390 q 106 639 119 555 l 107 643 q 178 639 129 639 z "},"f":{"ha":608,"x_min":106,"x_max":546,"o":"m 231 249 q 244 0 231 83 l 243 -4 q 175 0 226 0 q 107 -4 175 0 l 106 0 q 119 249 119 83 l 119 390 q 106 639 119 555 l 107 643 q 178 639 130 639 l 460 639 q 543 643 510 639 l 546 639 q 543 596 543 600 q 546 567 543 589 l 543 561 q 241 578 428 578 q 231 389 231 541 l 231 363 q 341 364 306 363 q 409 370 376 366 q 464 376 441 375 l 468 372 q 464 333 464 353 q 468 294 464 314 l 464 290 q 231 304 326 304 l 231 249 z "},"g":{"ha":764,"x_min":61,"x_max":684,"o":"m 555 92 q 542 293 555 195 l 545 297 q 610 293 563 293 q 679 297 610 293 l 681 293 q 667 119 667 201 l 667 118 q 684 86 667 102 q 404 -14 539 -14 q 159 77 257 -14 q 61 302 61 168 q 163 558 61 464 q 422 653 265 653 q 482 651 454 653 q 532 646 510 650 q 569 638 554 642 q 601 628 585 635 q 624 618 616 621 q 645 607 631 615 q 664 597 660 599 l 667 593 l 635 479 l 616 478 q 575 540 594 517 q 517 584 555 564 q 427 604 478 604 q 249 526 317 604 q 182 321 182 447 q 196 227 182 275 q 239 135 211 179 q 318 63 268 92 q 429 35 368 35 q 555 86 505 35 l 555 92 z "},"h":{"ha":782,"x_min":104,"x_max":675,"o":"m 550 390 q 536 639 550 555 l 538 643 q 606 639 557 639 q 672 643 606 639 l 675 639 q 661 390 661 533 l 661 249 q 675 0 661 87 l 672 -4 q 606 0 652 0 q 538 -4 606 0 l 536 0 q 550 249 550 83 l 550 292 l 229 292 l 229 249 q 243 0 229 87 l 240 -4 q 174 0 220 0 q 106 -4 174 0 l 104 0 q 118 249 118 83 l 118 390 q 104 639 118 555 l 106 643 q 174 639 125 639 q 240 643 174 639 l 243 639 q 229 390 229 533 l 229 349 l 550 349 l 550 390 z "},"i":{"ha":347,"x_min":104,"x_max":243,"o":"m 118 390 q 104 639 118 555 l 106 643 q 174 639 125 639 q 240 643 174 639 l 243 639 q 229 390 229 533 l 229 249 q 243 0 229 87 l 240 -4 q 174 0 220 0 q 106 -4 174 0 l 104 0 q 118 249 118 83 l 118 390 z "},"j":{"ha":359,"x_min":-126,"x_max":253,"o":"m 127 132 l 127 366 q 114 643 127 545 l 117 647 q 184 643 138 643 q 252 647 184 643 l 253 643 q 239 366 239 551 l 239 163 q 225 -11 239 42 q 157 -135 211 -64 q -62 -240 77 -241 q -125 -228 -105 -240 l -126 -224 q -87 -110 -109 -195 l -72 -109 q 8 -157 -45 -157 q 73 -131 47 -157 q 110 -56 98 -104 q 124 34 121 -8 q 127 132 127 75 z "},"k":{"ha":712,"x_min":104,"x_max":699,"o":"m 118 390 q 104 639 118 555 l 106 643 q 174 639 125 639 q 240 643 174 639 l 243 639 q 229 390 229 533 l 229 353 q 286 375 260 354 q 406 489 332 408 q 528 639 479 570 q 665 643 637 639 l 663 639 q 370 349 575 564 q 487 214 433 272 q 602 97 541 157 q 699 0 663 37 l 696 -4 q 618 0 675 0 q 525 -4 561 0 q 467 73 494 39 q 411 140 440 107 q 365 191 382 172 q 310 247 347 210 q 257 302 273 285 q 229 315 244 314 l 229 249 q 243 0 229 87 l 240 -4 q 174 0 220 0 l 106 -4 l 104 0 q 118 249 118 83 l 118 390 z "},"l":{"ha":601,"x_min":104,"x_max":558,"o":"m 229 249 q 240 68 229 106 q 402 72 323 68 q 518 81 481 77 l 555 85 l 558 79 q 555 36 555 57 q 556 26 555 31 q 557 14 557 21 q 558 0 558 7 l 555 -4 q 472 0 522 0 l 176 0 l 106 -4 l 104 0 q 118 249 118 83 l 118 390 q 104 639 118 555 l 106 643 q 172 639 124 639 l 240 643 l 243 639 q 229 390 229 551 l 229 249 z "},"m":{"ha":930,"x_min":72,"x_max":859,"o":"m 164 653 l 214 653 q 469 161 333 412 l 736 653 l 781 653 q 859 -3 847 73 q 794 0 843 0 q 743 -3 758 0 q 701 451 717 311 q 469 0 538 153 l 435 0 q 208 450 401 72 q 167 -3 168 82 q 126 0 157 0 q 72 -3 83 0 q 164 653 139 413 z "},"n":{"ha":758,"x_min":104,"x_max":654,"o":"m 114 440 q 104 639 114 572 l 106 642 q 158 639 124 639 q 207 642 158 639 l 546 201 q 572 185 568 175 q 575 204 575 191 l 575 440 q 566 639 575 572 l 568 642 q 604 639 579 639 l 654 642 l 654 639 q 644 440 645 565 l 644 21 q 632 -3 644 7 q 608 -14 619 -14 q 558 14 581 -14 l 212 452 q 183 435 183 489 l 183 199 q 193 0 183 66 l 192 -4 q 151 0 175 0 l 106 -4 l 104 0 q 114 199 114 61 l 114 440 z "},"o":{"ha":791,"x_min":61,"x_max":730,"o":"m 385 597 q 241 527 300 597 q 183 322 183 456 q 244 117 183 195 q 407 40 306 40 q 555 109 501 40 q 608 304 608 178 q 544 519 608 441 q 385 597 480 597 m 730 323 q 640 83 730 180 q 386 -14 550 -14 q 153 76 244 -14 q 61 306 61 165 q 156 556 61 458 q 397 653 252 653 q 633 561 536 653 q 730 323 730 468 z "},"p":{"ha":604,"x_min":104,"x_max":557,"o":"m 232 585 l 232 315 q 322 302 264 303 q 413 339 385 302 q 441 456 441 375 q 410 568 441 539 q 315 596 379 596 q 232 585 273 595 m 232 249 q 245 0 232 87 l 243 -4 q 175 0 222 0 l 106 -4 l 104 0 q 118 249 118 83 l 118 390 q 104 639 118 555 l 106 643 q 174 639 125 639 q 244 641 192 639 q 323 643 296 643 q 506 592 456 643 q 557 472 557 542 q 547 403 557 436 q 513 334 538 370 q 439 278 489 298 q 319 257 389 257 q 232 271 264 257 l 232 249 z "},"q":{"ha":791,"x_min":61,"x_max":865,"o":"m 385 597 q 241 527 300 597 q 183 322 183 456 q 244 117 183 195 q 407 40 306 40 q 555 109 501 40 q 608 304 608 178 q 544 519 608 441 q 385 597 480 597 m 595 45 q 865 -87 760 -47 l 865 -96 q 741 -171 781 -138 q 692 -135 722 -157 q 627 -87 648 -102 q 571 -51 606 -72 q 488 -2 537 -29 q 386 -14 440 -14 q 153 76 244 -14 q 61 306 61 165 q 156 556 61 458 q 397 653 252 653 q 633 561 536 653 q 730 323 730 468 q 696 164 730 237 q 595 45 661 91 z "},"r":{"ha":640,"x_min":104,"x_max":633,"o":"m 435 481 q 315 593 435 593 q 249 583 265 593 q 232 551 232 574 l 232 334 l 278 334 q 397 366 360 334 q 435 481 435 399 m 308 287 q 296 287 302 287 q 283 286 290 286 l 232 286 l 232 249 q 245 0 232 87 l 243 -4 q 175 0 222 0 l 106 -4 l 104 0 q 118 249 118 83 l 118 390 q 104 639 118 555 l 106 643 q 175 639 127 639 q 249 641 204 639 q 310 643 294 643 q 477 601 414 643 q 539 481 539 559 q 418 307 539 352 q 524 152 451 262 q 633 0 597 41 l 631 -4 q 562 0 604 0 q 486 -4 511 0 q 410 138 475 39 q 389 169 401 151 q 369 201 378 187 q 350 230 360 215 q 329 260 340 245 q 308 287 319 275 z "},"s":{"ha":543,"x_min":46,"x_max":497,"o":"m 69 143 l 90 144 q 161 69 115 97 q 258 41 207 41 q 349 76 314 41 q 383 168 383 110 q 375 213 383 195 q 342 245 367 231 q 303 266 318 260 q 244 289 288 272 q 188 311 207 302 q 144 337 170 319 q 104 375 118 354 q 77 472 77 412 q 146 606 77 558 q 302 653 215 653 q 478 606 391 653 l 481 602 l 453 501 l 433 500 q 381 569 416 538 q 296 599 346 599 q 214 572 248 599 q 180 500 180 545 q 192 454 180 473 q 226 420 203 435 q 263 399 249 406 q 306 383 278 393 q 380 355 352 368 q 439 319 408 342 q 483 265 469 297 q 497 189 497 233 q 487 122 497 155 q 451 58 476 90 q 377 6 427 25 q 260 -14 328 -14 q 46 25 149 -14 l 69 143 z "},"t":{"ha":627,"x_min":35,"x_max":593,"o":"m 257 562 q 124 559 179 562 q 54 551 69 555 l 37 547 l 35 551 q 35 639 39 582 l 37 642 q 114 639 79 639 l 514 639 q 590 642 549 639 l 593 639 q 593 551 589 582 l 590 547 q 371 562 544 563 l 371 250 q 385 0 371 87 l 382 -4 q 314 0 361 0 l 244 -4 l 243 0 q 257 250 256 83 l 257 562 z "},"u":{"ha":765,"x_min":106,"x_max":663,"o":"m 648 389 l 648 311 q 589 69 648 151 q 374 -14 530 -14 q 293 0 335 -14 q 211 42 252 14 q 145 125 171 71 q 119 252 119 180 l 119 389 q 106 639 119 555 l 107 643 q 176 639 128 639 l 244 643 l 248 639 q 233 389 234 551 l 233 281 q 236 205 233 236 q 249 140 239 174 q 276 86 258 107 q 323 52 293 65 q 397 39 354 39 q 483 55 448 39 q 537 93 518 71 q 565 154 555 115 q 577 220 575 192 q 579 293 579 249 l 579 389 q 566 639 579 555 l 567 643 q 614 639 600 639 l 660 643 l 663 639 q 648 389 648 551 z "},"v":{"ha":713,"x_min":31,"x_max":684,"o":"m 301 -4 q 31 643 166 347 q 107 639 54 639 q 176 643 157 639 q 368 135 256 394 l 380 135 q 575 643 439 258 q 623 639 589 639 q 684 643 670 639 q 626 517 667 606 q 565 379 586 428 q 513 257 545 330 q 456 121 481 184 q 408 -4 431 58 q 354 0 396 0 q 301 -4 317 0 z "},"w":{"ha":1101,"x_min":31,"x_max":1071,"o":"m 300 -5 q 31 643 154 374 q 107 637 62 637 q 176 643 150 637 q 363 134 276 328 l 380 134 q 505 436 439 260 q 415 644 461 542 q 493 639 447 639 q 564 644 538 639 q 751 135 659 340 l 772 135 q 824 256 796 186 q 869 378 851 326 q 918 518 888 429 q 962 644 949 607 q 1008 639 981 639 q 1071 644 1053 639 q 999 485 1047 591 q 922 315 950 379 q 856 162 893 252 q 791 -4 819 72 q 733 0 778 0 q 679 -4 694 0 q 542 347 585 239 q 408 -5 493 230 q 346 -1 396 -1 q 300 -5 315 -1 z "},"x":{"ha":677,"x_min":21,"x_max":657,"o":"m 277 310 l 21 643 q 107 639 45 639 q 184 643 160 639 q 353 400 226 572 q 538 643 504 593 q 590 639 555 639 q 657 643 640 639 l 395 343 q 653 -4 481 220 q 579 0 631 0 q 494 -4 517 0 q 322 245 465 42 q 146 -4 187 58 q 81 0 130 0 q 29 -4 45 0 l 277 310 z "},"y":{"ha":621,"x_min":31,"x_max":590,"o":"m 363 282 q 366 112 363 195 q 371 -4 368 28 q 311 0 347 0 q 252 -4 277 0 q 258 272 258 58 q 31 643 111 524 q 96 639 57 639 q 161 643 136 639 q 326 351 189 588 q 490 643 431 519 q 541 639 510 639 q 590 643 572 639 q 535 559 566 607 q 487 485 504 511 q 448 425 469 458 q 413 370 426 391 q 386 325 399 348 q 363 282 372 301 z "},"z":{"ha":618,"x_min":29,"x_max":589,"o":"m 203 75 q 376 79 283 75 q 522 87 469 83 l 575 90 l 578 86 q 575 40 575 64 q 578 0 575 39 l 575 -4 q 492 0 542 0 l 155 0 l 35 -4 l 29 3 l 62 47 l 412 564 q 251 559 336 562 q 120 552 167 555 l 74 549 l 69 553 q 74 599 73 586 q 72 618 74 606 q 69 639 69 631 l 74 643 q 157 639 107 639 l 460 639 q 507 642 479 639 q 556 646 534 644 q 581 648 578 648 q 589 639 589 648 q 543 576 583 632 l 203 75 z "},"{":{"ha":385,"x_min":20,"x_max":365,"o":"m 248 808 l 258 610 q 226 500 262 535 q 113 446 190 465 l 113 441 q 226 373 189 414 q 258 262 262 332 l 248 84 q 249 38 246 60 q 260 -2 252 16 q 278 -34 267 -20 q 301 -57 288 -47 q 329 -71 314 -66 q 358 -76 343 -76 q 363 -82 361 -79 q 365 -90 365 -86 q 363 -98 365 -94 q 358 -104 361 -102 q 194 -62 245 -104 q 147 90 142 -20 l 155 293 q 20 429 160 414 q 20 458 3 444 q 100 483 68 462 q 143 531 132 505 q 155 591 155 558 l 147 810 q 200 949 143 906 q 358 993 257 993 q 358 964 374 979 q 317 951 332 958 q 281 928 301 944 q 253 882 262 912 q 248 808 245 851 z "},"|":{"ha":292,"x_min":113,"x_max":180,"o":"m 180 -322 l 113 -322 l 113 970 l 180 970 l 180 -322 z "},"}":{"ha":385,"x_min":15,"x_max":368,"o":"m 132 79 l 121 277 q 153 387 117 352 q 267 441 189 422 l 267 446 q 153 514 190 473 q 121 625 117 555 l 132 803 q 103 919 137 875 q 21 963 69 963 q 18 967 19 965 q 16 972 16 970 q 15 977 15 975 q 16 983 15 980 q 18 988 16 985 q 21 991 19 990 q 185 950 134 991 q 232 798 237 908 l 224 594 q 359 458 219 473 q 367 449 365 453 q 368 439 370 444 q 359 429 366 435 q 256 386 288 423 q 224 296 224 348 l 232 77 q 179 -62 236 -19 q 21 -106 122 -106 q 15 -97 17 -102 q 15 -86 14 -92 q 21 -77 17 -81 q 62 -64 47 -71 q 98 -41 78 -57 q 126 6 117 -24 q 132 79 135 36 z "},"~":{"ha":623,"x_min":36,"x_max":579,"o":"m 36 290 q 101 414 50 361 q 214 468 153 468 q 317 424 244 468 q 418 378 389 378 q 494 401 454 378 q 555 471 534 424 l 579 463 q 524 354 559 395 q 462 305 488 314 q 412 296 436 296 q 309 342 374 296 q 205 386 243 387 q 122 358 167 386 q 54 286 77 330 l 36 290 z "}," ":{"ha":347,"x_min":0,"x_max":0,"o":""},"¡":{"ha":316,"x_min":82,"x_max":237,"o":"m 160 -18 q 106 8 130 -18 q 82 83 82 35 q 97 222 82 135 q 118 351 113 310 q 131 475 126 416 q 138 567 136 534 q 140 604 139 599 q 160 632 143 632 q 179 614 176 632 l 186 515 q 200 351 193 417 q 220 220 205 302 q 235 83 235 138 q 211 7 235 32 q 160 -18 188 -18 m 237 835 l 237 829 q 163 754 219 778 l 157 754 q 82 829 100 775 l 82 835 q 157 909 102 896 l 163 909 q 212 886 196 903 q 237 835 228 869 z "},"¢":{"ha":694,"x_min":104,"x_max":598,"o":"m 355 911 l 408 911 l 408 768 q 461 765 434 768 q 512 757 488 762 q 558 744 536 751 q 595 728 579 737 l 598 724 l 566 608 l 547 606 q 408 711 488 709 l 408 202 l 414 202 q 566 262 499 202 l 572 262 l 598 232 q 557 189 578 207 q 512 158 536 170 q 463 139 488 146 q 408 132 437 133 l 408 -19 l 355 -19 l 355 133 q 140 283 204 149 q 104 454 104 357 q 178 660 104 576 q 355 764 252 744 l 355 911 m 355 213 l 355 702 q 264 617 299 680 q 229 462 229 554 q 263 300 229 365 q 355 213 298 236 z "},"£":{"ha":694,"x_min":27,"x_max":672,"o":"m 328 612 l 328 506 l 514 506 q 525 497 525 506 l 525 464 q 514 450 525 455 q 489 445 503 445 l 328 445 q 219 136 326 236 l 227 136 q 310 129 275 136 q 366 111 345 121 q 403 91 386 101 q 442 73 420 81 q 490 66 464 66 q 645 131 597 66 l 672 115 q 513 -11 623 11 q 464 -16 488 -16 q 384 -2 419 -16 q 329 28 349 12 q 275 59 310 45 q 197 73 241 73 q 134 36 134 73 q 117 -2 134 11 q 74 -16 100 -16 q 40 -4 53 -16 q 27 25 27 7 q 102 99 27 58 q 186 223 163 144 q 208 420 208 303 l 208 445 l 114 445 q 108 446 110 445 q 105 448 106 446 q 104 454 104 450 l 104 475 q 113 496 104 486 q 140 506 122 506 l 208 506 l 208 536 q 218 643 208 600 q 249 720 228 686 q 309 793 270 754 q 572 899 415 899 q 635 886 613 899 l 637 882 q 597 768 618 849 l 582 766 q 502 815 553 815 q 384 752 439 815 q 328 612 328 690 z "},"¤":{"ha":694,"x_min":43,"x_max":652,"o":"m 161 456 q 212 306 161 367 q 345 244 263 244 q 477 306 426 244 q 528 454 528 368 q 475 603 528 543 q 349 664 422 664 q 214 603 267 664 q 161 456 161 542 m 345 178 q 175 235 250 178 l 107 151 l 43 214 l 127 282 q 82 362 97 319 q 66 454 66 406 q 127 628 66 557 l 45 692 l 104 755 l 177 675 q 345 730 253 730 q 392 727 370 730 q 437 716 415 723 q 478 697 458 709 q 517 672 498 686 l 590 759 l 652 694 l 565 625 q 625 454 625 551 q 566 286 625 361 l 648 216 l 591 156 l 519 237 q 465 204 493 217 q 408 185 437 191 q 345 178 378 178 z "},"¥":{"ha":694,"x_min":6,"x_max":678,"o":"m 74 361 q 67 362 68 361 q 66 371 66 364 l 66 393 q 75 414 66 404 q 101 424 83 424 l 259 424 q 134 666 233 472 q 6 907 35 859 q 87 902 30 902 q 94 902 92 902 q 102 902 97 902 q 110 902 106 902 q 118 902 113 902 q 126 903 123 903 q 134 903 130 903 q 143 904 139 903 q 151 904 146 904 q 158 905 155 905 q 165 907 162 906 q 363 476 267 646 q 401 542 382 507 q 435 606 420 576 q 467 677 449 635 q 497 748 486 720 q 529 827 509 776 q 562 907 550 878 q 620 902 577 902 q 634 902 629 902 q 648 903 640 902 q 665 904 657 903 q 678 907 672 905 q 417 424 558 696 l 620 424 q 626 423 623 424 q 629 420 628 422 q 631 415 631 418 l 631 382 q 627 373 631 377 q 618 366 624 368 q 607 362 613 363 q 595 361 601 361 l 405 361 q 406 262 406 288 l 620 262 q 631 252 631 262 l 631 221 q 620 206 631 212 q 595 200 608 200 l 407 200 q 411 78 408 132 q 415 -5 413 23 q 342 0 392 0 q 271 -5 294 0 q 279 200 277 54 l 74 200 q 67 202 68 200 q 66 210 66 203 l 66 231 q 75 252 66 242 q 101 262 83 262 l 280 262 q 281 361 280 294 l 74 361 z "},"¦":{"ha":284,"x_min":113,"x_max":179,"o":"m 179 936 l 179 433 l 113 433 l 113 936 l 179 936 m 179 224 l 179 -279 l 113 -279 l 113 224 l 179 224 z "},"§":{"ha":671,"x_min":69,"x_max":602,"o":"m 205 538 q 149 424 149 482 q 156 377 149 400 q 173 337 164 354 q 203 301 182 321 q 237 272 225 282 q 280 242 249 261 q 321 219 311 224 q 367 196 330 214 q 407 175 403 178 q 466 138 439 158 q 522 252 522 193 q 515 298 522 275 q 498 337 507 321 q 467 374 489 354 q 434 404 446 393 q 391 433 422 414 q 350 456 359 452 q 304 479 340 461 q 264 500 268 497 q 205 538 231 517 m 174 566 q 113 717 113 630 q 176 852 113 791 q 339 914 240 914 q 426 896 384 914 q 484 865 468 878 q 532 827 500 852 l 536 819 l 513 718 l 493 715 q 416 820 454 782 q 326 859 378 859 q 242 826 276 859 q 208 745 208 794 q 319 607 208 653 q 602 304 602 492 q 497 109 602 187 q 558 -41 558 45 q 494 -177 558 -115 q 332 -239 431 -239 q 245 -221 287 -239 q 187 -190 203 -203 q 139 -151 171 -178 l 135 -144 l 158 -43 l 178 -40 q 255 -145 216 -106 q 345 -183 293 -183 q 429 -151 395 -183 q 463 -69 463 -119 q 351 68 463 22 q 69 371 69 183 q 174 566 69 488 z "},"¨":{"ha":526,"x_min":69,"x_max":435,"o":"m 89 751 q 79 760 89 751 q 69 798 69 770 q 89 845 69 825 q 135 864 109 864 q 181 845 161 864 q 200 798 200 825 q 181 751 200 770 q 135 732 161 732 q 89 751 109 732 m 323 751 q 314 760 323 751 q 304 798 304 770 q 324 845 304 825 q 370 864 343 864 q 415 845 396 864 q 435 798 435 825 q 416 751 435 770 q 370 732 397 732 q 323 751 342 732 z "},"©":{"ha":879,"x_min":47,"x_max":832,"o":"m 610 300 q 542 237 586 264 q 446 211 498 211 q 292 273 354 211 q 229 418 229 335 q 294 570 229 505 q 449 635 358 635 q 539 624 505 635 q 586 614 574 614 l 606 505 l 578 500 q 528 578 558 553 q 443 603 498 603 q 353 563 391 603 q 315 432 315 524 q 353 302 315 353 q 458 252 390 252 q 583 321 536 252 l 610 300 m 718 147 q 660 90 718 147 q 440 32 603 32 q 163 147 278 32 q 47 425 47 262 q 163 702 47 587 q 440 817 278 817 q 718 702 603 817 q 832 425 832 587 q 718 147 832 262 m 440 774 q 192 672 294 774 q 90 425 90 570 q 192 179 90 281 q 440 77 294 77 q 687 179 585 77 q 789 425 789 281 q 687 672 789 570 q 440 774 585 774 z "},"ª":{"ha":412,"x_min":36,"x_max":395,"o":"m 262 700 l 192 679 q 127 645 144 665 q 110 593 110 625 q 126 557 110 572 q 171 542 143 542 q 248 575 204 542 q 258 597 258 583 l 262 700 m 330 571 q 345 545 330 545 q 378 562 350 545 l 380 561 l 395 543 q 318 497 359 497 q 264 547 269 497 l 258 547 q 201 507 222 517 q 144 497 179 497 q 65 521 94 497 q 36 590 36 545 q 74 666 36 633 q 179 715 113 700 l 257 733 q 262 743 262 736 q 248 813 262 788 q 219 842 233 838 q 183 846 204 846 q 89 770 134 846 l 78 770 l 62 831 l 65 833 q 192 885 129 885 q 334 745 334 885 q 332 663 334 742 q 330 571 330 585 z "},"«":{"ha":754,"x_min":103,"x_max":643,"o":"m 216 403 q 393 167 298 310 q 359 140 388 143 q 103 395 218 293 l 103 411 q 359 665 218 513 q 393 639 387 663 q 216 403 298 496 m 467 403 q 643 167 549 310 q 610 140 637 143 q 353 395 468 293 l 353 411 q 610 665 468 513 q 643 639 637 663 q 467 403 549 496 z "},"¬":{"ha":777,"x_min":33,"x_max":746,"o":"m 671 184 l 671 496 l 33 496 l 33 557 l 746 557 l 746 184 l 671 184 z "},"­":{"ha":462,"x_min":46,"x_max":418,"o":"m 380 328 l 66 328 q 46 351 45 328 q 57 386 46 368 q 81 403 68 403 l 399 403 q 418 378 418 403 q 405 347 418 366 q 380 328 393 328 z "},"®":{"ha":879,"x_min":47,"x_max":832,"o":"m 599 514 q 518 411 599 437 l 585 297 q 644 268 606 261 l 650 244 q 600 235 626 235 q 515 283 545 235 l 449 395 q 397 400 442 400 l 397 300 q 414 271 397 273 l 433 268 q 449 260 449 267 l 449 237 l 446 235 q 364 237 389 237 q 279 235 364 237 l 277 237 l 277 261 q 290 268 277 267 l 314 271 q 332 300 332 273 l 332 550 q 300 585 332 585 l 285 585 q 273 591 274 585 l 273 615 l 277 618 l 465 618 q 567 585 536 618 q 599 514 599 553 m 522 514 q 453 585 522 585 q 397 550 397 585 l 397 433 l 441 433 q 500 449 479 433 q 522 514 522 465 m 718 147 q 660 90 718 147 q 440 32 603 32 q 163 147 278 32 q 47 425 47 262 q 163 702 47 587 q 440 817 278 817 q 718 702 603 817 q 832 425 832 587 q 718 147 832 262 m 440 774 q 192 672 294 774 q 90 425 90 570 q 192 179 90 281 q 440 77 294 77 q 687 179 585 77 q 789 425 789 281 q 687 672 789 570 q 440 774 585 774 z "},"¯":{"ha":551,"x_min":82,"x_max":471,"o":"m 437 734 l 98 734 q 82 755 81 734 q 91 783 82 769 q 113 796 100 796 l 452 796 q 471 777 471 796 q 460 749 471 763 q 437 734 450 734 z "},"°":{"ha":370,"x_min":47,"x_max":323,"o":"m 278 728 q 254 798 278 766 q 186 829 229 829 q 118 799 143 829 q 93 728 93 768 q 119 660 93 689 q 186 631 144 631 q 252 661 226 631 q 278 728 278 690 m 47 729 q 88 828 47 787 q 186 868 129 868 q 283 828 243 868 q 323 729 323 787 q 283 632 323 672 q 186 591 243 591 q 88 632 129 591 q 47 729 47 672 z "},"±":{"ha":732,"x_min":92,"x_max":640,"o":"m 401 475 l 640 475 l 640 407 l 401 407 l 401 165 l 330 165 l 330 407 l 92 407 l 92 475 l 330 475 l 330 717 l 401 717 l 401 475 m 640 94 l 640 26 l 92 26 l 92 94 l 640 94 z "},"²":{"ha":431,"x_min":53,"x_max":358,"o":"m 98 854 l 81 854 l 65 913 l 68 916 q 197 957 114 957 q 310 928 268 957 q 356 840 356 897 q 283 715 355 783 l 210 643 q 161 579 161 594 l 221 579 q 358 586 261 579 q 354 538 354 566 q 358 503 354 522 q 231 505 283 505 q 54 503 193 505 l 53 505 q 154 657 53 553 l 210 711 q 256 842 256 759 q 233 896 256 873 q 192 917 214 917 q 98 854 133 917 z "},"³":{"ha":435,"x_min":64,"x_max":368,"o":"m 237 554 q 268 636 268 579 q 186 722 268 722 q 158 721 166 722 l 158 755 q 260 850 260 760 q 244 899 260 879 q 207 918 227 918 q 150 901 170 918 q 114 852 133 889 l 96 852 l 81 911 l 82 916 q 212 956 130 956 q 306 935 269 956 q 346 861 346 909 q 258 749 346 771 l 258 746 q 334 717 304 742 q 368 639 368 688 q 310 529 368 567 q 186 497 261 497 q 66 539 114 497 l 64 542 l 81 600 l 97 602 q 131 553 119 563 q 187 536 151 536 q 237 554 216 536 z "},"´":{"ha":473,"x_min":122,"x_max":343,"o":"m 243 977 q 262 979 251 979 q 339 947 305 979 l 343 932 l 183 781 q 142 754 157 754 q 129 760 135 754 q 122 772 122 765 q 138 811 122 786 l 243 977 z "},"µ":{"ha":675,"x_min":61,"x_max":671,"o":"m 140 -325 q 92 -299 119 -325 q 65 -235 65 -273 q 76 -129 65 -201 q 87 -11 87 -57 q 81 75 87 7 q 75 186 75 142 l 75 447 l 61 596 q 122 602 79 596 q 175 610 164 608 q 179 476 179 521 l 179 204 q 275 49 179 49 q 377 75 330 49 q 450 138 425 102 l 450 596 q 509 602 470 596 q 554 610 547 608 l 554 172 q 555 115 554 132 q 559 80 555 98 q 569 57 562 62 q 590 52 576 52 q 637 110 614 52 l 671 94 q 622 12 648 37 q 545 -14 596 -14 q 478 15 506 -14 q 450 83 450 43 q 249 -14 361 -14 q 170 18 196 -14 q 153 5 153 18 q 175 -129 153 -43 q 197 -241 197 -215 q 181 -303 197 -281 q 140 -325 165 -325 z "},"¶":{"ha":836,"x_min":79,"x_max":705,"o":"m 510 798 l 510 -224 q 566 -277 510 -277 q 623 -224 623 -277 l 623 798 q 566 850 623 850 q 510 798 510 850 m 567 896 q 704 900 567 896 l 705 896 q 692 618 692 804 l 692 -45 q 705 -322 692 -224 l 703 -326 q 566 -322 612 -322 q 429 -326 566 -322 l 427 -322 q 440 -45 440 -224 l 440 396 q 396 392 422 392 q 161 461 242 392 q 79 668 79 530 q 147 829 79 760 q 343 899 215 899 q 479 897 403 899 q 567 896 556 896 z "},"·":{"ha":347,"x_min":98,"x_max":249,"o":"m 174 283 q 119 306 140 283 q 98 358 98 328 q 121 410 98 387 q 174 433 143 433 q 226 411 203 433 q 249 358 249 389 q 227 306 249 328 q 174 283 205 283 z "},"¸":{"ha":751,"x_min":300,"x_max":551,"o":"m 419 -134 q 357 -142 383 -134 l 349 -134 l 404 0 l 452 0 l 416 -93 q 453 -89 433 -89 q 524 -113 496 -89 q 551 -175 551 -136 q 509 -249 551 -220 q 403 -278 467 -278 q 300 -254 354 -278 q 314 -218 300 -232 q 395 -237 367 -238 q 446 -223 427 -237 q 465 -182 465 -208 q 419 -134 465 -134 z "},"¹":{"ha":533,"x_min":155,"x_max":347,"o":"m 338 644 q 347 505 338 564 l 346 503 q 293 505 321 505 q 243 503 267 505 l 243 505 q 252 644 251 555 l 252 825 q 237 872 252 873 q 157 868 189 872 l 155 900 q 342 956 200 911 q 346 951 346 956 q 338 832 338 895 l 338 644 z "},"º":{"ha":484,"x_min":54,"x_max":432,"o":"m 54 596 q 105 735 54 685 q 245 786 157 786 q 387 734 341 786 q 432 604 432 682 q 382 474 432 528 q 239 421 332 421 q 107 471 161 421 q 54 596 54 521 m 237 751 q 161 710 187 751 q 135 610 135 669 q 165 506 135 551 q 254 460 196 460 q 322 488 292 460 q 353 582 353 515 q 321 708 353 664 q 237 751 290 751 z "},"»":{"ha":754,"x_min":102,"x_max":642,"o":"m 528 403 q 351 639 446 496 q 385 665 357 663 q 642 411 526 513 l 642 395 q 385 140 526 293 q 351 167 357 143 q 528 403 446 310 m 278 403 q 102 639 196 496 q 135 665 107 663 q 392 411 277 513 l 392 395 q 135 140 277 293 q 102 167 107 143 q 278 403 196 310 z "},"¼":{"ha":916,"x_min":136,"x_max":851,"o":"m 774 835 l 831 823 l 195 -86 l 136 -75 l 774 835 m 551 11 q 510 21 511 11 q 518 56 510 45 q 708 346 603 170 l 708 349 q 745 346 716 346 q 794 349 771 346 l 796 346 q 789 236 789 290 l 789 60 l 842 60 q 851 45 851 60 q 846 25 851 38 q 831 11 838 12 l 789 11 q 796 -97 789 -43 l 794 -100 q 745 -97 770 -97 q 693 -100 717 -97 l 693 -97 q 701 11 701 -35 l 551 11 m 567 60 l 701 60 l 701 272 l 567 60 m 334 576 q 343 437 334 496 l 342 435 q 289 437 317 437 q 239 435 262 437 l 239 437 q 248 576 247 488 l 248 757 q 233 804 248 804 q 153 800 184 804 l 151 832 q 338 888 196 843 q 342 884 342 888 q 334 764 334 827 l 334 576 z "},"½":{"ha":916,"x_min":103,"x_max":856,"o":"m 739 835 l 798 823 l 160 -86 l 103 -75 l 739 835 m 596 239 l 578 239 l 562 297 l 566 300 q 694 342 612 341 q 807 313 765 342 q 853 225 853 282 q 781 100 852 168 l 707 28 q 659 -36 658 -21 l 718 -36 q 856 -29 758 -36 q 851 -78 852 -49 q 856 -113 851 -94 q 728 -110 781 -110 q 551 -113 690 -110 l 550 -110 q 652 41 550 -62 l 707 96 q 753 227 753 143 q 730 281 753 258 q 689 301 711 302 q 596 239 631 301 m 336 576 q 346 437 336 496 l 345 435 q 292 437 319 437 q 241 435 265 437 l 241 437 q 250 576 250 488 l 250 757 q 236 804 250 804 q 155 800 187 804 l 154 832 q 340 888 199 843 q 345 884 345 888 q 336 764 336 827 l 336 576 z "},"¾":{"ha":916,"x_min":61,"x_max":857,"o":"m 781 835 l 838 823 l 201 -86 l 143 -75 l 781 835 m 235 484 q 265 566 265 509 q 183 652 265 652 q 155 650 163 652 l 155 685 q 257 779 257 689 q 241 828 257 808 q 204 847 224 848 q 147 831 167 847 q 111 782 130 819 l 93 782 l 78 840 l 79 844 q 210 885 127 884 q 302 864 267 885 q 343 790 342 839 q 256 677 343 700 l 256 675 q 330 646 302 671 q 366 568 365 616 q 307 458 366 496 q 183 427 258 427 q 64 468 111 427 l 61 471 l 78 529 l 94 530 q 127 482 117 492 q 184 465 147 465 q 235 484 214 465 m 557 14 q 515 24 517 14 q 524 58 515 47 q 714 349 608 172 l 714 351 q 750 349 722 349 q 800 351 777 349 l 802 349 q 794 239 795 293 l 794 62 l 847 62 q 857 47 857 62 q 851 28 857 41 q 836 14 843 14 l 794 14 q 802 -94 794 -41 l 800 -97 q 750 -94 777 -94 q 699 -97 722 -94 l 699 -94 q 707 14 707 -32 l 557 14 m 572 62 l 707 62 l 707 275 l 572 62 z "},"¿":{"ha":562,"x_min":52,"x_max":504,"o":"m 293 37 q 464 168 389 37 l 482 167 l 504 74 l 500 68 q 281 -18 397 -18 q 113 39 175 -18 q 52 192 52 96 q 78 289 52 243 q 129 356 104 334 q 199 410 154 378 q 271 479 257 452 q 296 581 296 528 l 296 642 q 314 655 296 655 q 332 642 332 656 l 332 578 q 328 510 332 538 q 303 437 325 482 q 239 354 281 392 q 175 278 194 313 q 155 197 155 244 q 194 83 155 130 q 293 37 233 37 m 392 836 l 392 831 q 317 755 374 779 l 311 755 q 236 831 254 777 l 236 836 q 311 911 256 897 l 317 911 q 366 887 350 904 q 392 836 382 871 z "},"À":{"ha":873,"x_min":22,"x_max":851,"o":"m 355 1136 l 524 1019 q 545 990 545 1004 q 538 976 545 982 q 524 970 532 970 q 464 986 503 970 l 250 1074 q 355 1136 293 1115 m 566 382 q 501 546 536 460 q 425 725 466 631 l 422 725 l 276 383 q 345 382 292 383 q 421 380 398 380 q 566 382 480 380 m 249 317 q 179 138 209 219 q 134 -4 149 56 q 71 0 117 0 q 22 -4 39 0 q 432 914 258 514 l 471 914 q 605 586 518 802 q 756 214 692 371 q 851 -4 821 57 q 768 0 827 0 q 699 -4 722 0 q 692 18 696 5 q 682 52 688 31 q 667 100 675 73 q 647 159 658 127 q 622 233 636 191 q 591 317 607 274 q 505 319 545 319 q 428 319 464 319 q 249 317 349 319 z "},"Á":{"ha":873,"x_min":22,"x_max":851,"o":"m 510 1139 q 596 1067 570 1111 l 396 986 q 338 970 357 969 q 317 990 317 970 q 338 1019 317 1006 l 510 1139 m 566 382 q 501 546 536 460 q 425 725 466 631 l 422 725 l 276 383 q 345 382 292 383 q 421 380 398 380 q 566 382 480 380 m 249 317 q 179 138 209 219 q 134 -4 149 56 q 71 0 117 0 q 22 -4 39 0 q 432 914 258 514 l 471 914 q 605 586 518 802 q 756 214 692 371 q 851 -4 821 57 q 768 0 827 0 q 699 -4 722 0 q 692 18 696 5 q 682 52 688 31 q 667 100 675 73 q 647 159 658 127 q 622 233 636 191 q 591 317 607 274 q 505 319 545 319 q 428 319 464 319 q 249 317 349 319 z "},"Â":{"ha":873,"x_min":22,"x_max":851,"o":"m 481 1118 q 621 987 538 1050 l 599 958 q 452 1044 513 998 q 302 958 382 993 l 283 987 q 421 1118 343 1032 l 481 1118 m 566 382 q 501 546 536 460 q 425 725 466 631 l 422 725 l 276 383 q 345 382 292 383 q 421 380 398 380 q 566 382 480 380 m 249 317 q 179 138 209 219 q 134 -4 149 56 q 71 0 117 0 q 22 -4 39 0 q 432 914 258 514 l 471 914 q 605 586 518 802 q 756 214 692 371 q 851 -4 821 57 q 768 0 827 0 q 699 -4 722 0 q 692 18 696 5 q 682 52 688 31 q 667 100 675 73 q 647 159 658 127 q 622 233 636 191 q 591 317 607 274 q 505 319 545 319 q 428 319 464 319 q 249 317 349 319 z "},"Ã":{"ha":873,"x_min":22,"x_max":851,"o":"m 547 1034 q 587 1049 571 1034 q 616 1105 603 1064 l 650 1097 q 529 972 625 972 q 440 1008 494 972 q 366 1039 390 1039 q 324 1023 339 1039 q 297 972 309 1007 l 264 979 q 305 1072 279 1042 q 375 1103 330 1103 q 475 1064 419 1103 q 547 1034 515 1034 m 566 382 q 501 546 536 460 q 425 725 466 631 l 422 725 l 276 383 q 345 382 292 383 q 421 380 398 380 q 566 382 480 380 m 249 317 q 179 138 209 219 q 134 -4 149 56 q 71 0 117 0 q 22 -4 39 0 q 432 914 258 514 l 471 914 q 605 586 518 802 q 756 214 692 371 q 851 -4 821 57 q 768 0 827 0 q 699 -4 722 0 q 692 18 696 5 q 682 52 688 31 q 667 100 675 73 q 647 159 658 127 q 622 233 636 191 q 591 317 607 274 q 505 319 545 319 q 428 319 464 319 q 249 317 349 319 z "},"Ä":{"ha":873,"x_min":22,"x_max":851,"o":"m 217 940 q 208 949 217 940 q 199 985 199 958 q 217 1029 199 1011 q 262 1047 236 1047 q 307 1029 289 1047 q 325 985 325 1011 q 307 940 325 958 q 262 922 289 922 q 217 940 236 922 m 599 940 q 590 949 599 940 q 581 985 581 958 q 599 1029 581 1011 q 644 1047 618 1047 q 689 1029 671 1047 q 707 985 707 1011 q 689 940 707 958 q 644 922 671 922 q 599 940 618 922 m 566 382 q 501 546 536 460 q 425 725 466 631 l 422 725 l 276 383 q 345 382 292 383 q 421 380 398 380 q 566 382 480 380 m 249 317 q 179 138 209 219 q 134 -4 149 56 q 71 0 117 0 q 22 -4 39 0 q 432 914 258 514 l 471 914 q 605 586 518 802 q 756 214 692 371 q 851 -4 821 57 q 768 0 827 0 q 699 -4 722 0 q 692 18 696 5 q 682 52 688 31 q 667 100 675 73 q 647 159 658 127 q 622 233 636 191 q 591 317 607 274 q 505 319 545 319 q 428 319 464 319 q 249 317 349 319 z "},"Å":{"ha":873,"x_min":22,"x_max":851,"o":"m 450 1069 q 399 1046 418 1069 q 380 991 380 1023 q 400 938 380 961 q 450 914 419 914 q 500 938 481 914 q 519 991 519 961 q 500 1047 519 1025 q 450 1069 481 1069 m 329 991 q 365 1073 329 1039 q 450 1107 401 1107 q 535 1074 498 1107 q 571 991 571 1040 q 547 923 571 954 q 484 881 522 892 q 615 561 530 772 q 761 203 700 350 q 851 -4 822 56 q 768 0 827 0 q 699 -4 722 0 q 692 18 696 5 q 682 52 688 31 q 667 100 675 73 q 647 159 658 127 q 622 233 636 191 q 591 317 607 274 q 505 319 545 319 q 428 319 464 319 q 249 317 349 319 q 179 138 209 219 q 134 -4 149 56 q 71 0 117 0 q 22 -4 39 0 q 418 881 250 494 q 354 922 380 892 q 329 991 329 953 m 566 382 q 501 546 536 460 q 425 725 466 631 l 422 725 l 276 383 q 345 382 292 383 q 421 380 398 380 q 566 382 480 380 z "},"Æ":{"ha":1114,"x_min":25,"x_max":1047,"o":"m 309 387 q 136 -4 197 156 q 74 0 119 0 q 25 -4 42 0 q 111 163 60 63 q 202 343 162 264 q 292 516 243 422 q 396 707 342 610 q 509 897 451 804 l 511 900 q 582 896 535 896 l 878 896 q 961 900 928 896 l 964 896 q 961 852 961 857 q 964 817 961 839 l 961 811 q 707 825 853 825 q 606 812 629 825 q 589 758 584 800 q 654 463 617 620 q 965 476 806 463 l 970 472 q 965 433 966 452 q 970 395 965 414 l 965 390 q 667 404 848 401 q 749 77 711 220 l 1044 92 l 1047 86 q 1044 40 1044 64 q 1047 0 1044 39 l 1044 -4 q 961 0 1011 0 l 771 0 l 769 0 l 694 0 q 625 -4 648 0 q 564 388 625 64 q 472 389 517 389 q 309 387 406 389 m 551 451 q 495 741 528 572 l 492 741 q 340 452 418 611 q 465 450 457 450 q 505 450 483 450 q 551 451 526 450 z "},"Ç":{"ha":940,"x_min":72,"x_max":864,"o":"m 510 -139 q 447 -147 474 -139 l 439 -139 l 491 -13 q 309 33 391 -7 q 177 137 227 74 q 99 278 126 201 q 72 437 72 355 q 210 776 72 637 q 528 914 347 914 q 679 899 603 914 q 792 867 754 884 l 831 851 l 833 847 q 806 693 810 747 l 791 692 q 509 848 713 848 q 414 827 463 848 q 319 763 366 806 q 244 642 273 720 q 215 464 215 564 q 249 268 215 358 q 358 117 283 178 q 534 57 432 57 q 693 87 630 57 q 831 200 755 118 l 864 174 q 538 -14 726 -5 l 507 -98 q 543 -94 524 -94 q 614 -118 586 -94 q 642 -180 642 -142 q 599 -254 642 -225 q 493 -283 557 -283 q 390 -260 444 -283 q 404 -224 390 -237 q 485 -243 457 -243 q 536 -228 517 -243 q 555 -187 555 -214 q 510 -139 556 -139 z "},"È":{"ha":747,"x_min":131,"x_max":669,"o":"m 264 278 q 275 78 264 115 q 456 82 359 78 q 610 90 554 86 l 667 94 l 669 89 q 667 43 667 66 q 669 0 667 39 l 667 -4 q 583 0 633 0 l 204 0 l 132 -4 l 131 0 q 144 278 144 94 l 144 618 q 131 896 144 797 l 134 900 q 204 896 157 896 l 570 896 q 653 900 620 896 l 656 896 q 653 843 653 857 q 656 807 653 829 l 653 802 q 275 818 461 819 q 264 618 264 781 l 264 510 q 574 524 410 510 l 578 519 q 574 475 574 500 q 578 431 574 450 l 574 427 q 264 440 436 440 l 264 278 m 340 1135 l 509 1018 q 529 989 530 1002 q 523 974 529 981 q 509 968 517 968 q 449 985 488 968 l 235 1072 q 340 1135 278 1114 z "},"É":{"ha":747,"x_min":131,"x_max":669,"o":"m 264 278 q 275 78 264 115 q 456 82 359 78 q 610 90 554 86 l 667 94 l 669 89 q 667 43 667 66 q 669 0 667 39 l 667 -4 q 583 0 633 0 l 204 0 l 132 -4 l 131 0 q 144 278 144 94 l 144 618 q 131 896 144 797 l 134 900 q 204 896 157 896 l 570 896 q 653 900 620 896 l 656 896 q 653 843 653 857 q 656 807 653 829 l 653 802 q 275 818 461 819 q 264 618 264 781 l 264 510 q 574 524 410 510 l 578 519 q 574 475 574 500 q 578 431 574 450 l 574 427 q 264 440 436 440 l 264 278 m 486 1139 q 572 1067 546 1111 l 372 986 q 314 970 334 969 q 293 990 293 970 q 314 1019 293 1006 l 486 1139 z "},"Ê":{"ha":747,"x_min":131,"x_max":669,"o":"m 440 1118 q 581 987 497 1050 l 558 958 q 411 1044 472 998 q 262 958 342 993 l 243 987 q 380 1118 302 1032 l 440 1118 m 264 278 q 275 78 264 115 q 456 82 359 78 q 610 90 554 86 l 667 94 l 669 89 q 667 43 667 66 q 669 0 667 39 l 667 -4 q 583 0 633 0 l 204 0 l 132 -4 l 131 0 q 144 278 144 94 l 144 618 q 131 896 144 797 l 134 900 q 204 896 157 896 l 570 896 q 653 900 620 896 l 656 896 q 653 843 653 857 q 656 807 653 829 l 653 802 q 275 818 461 819 q 264 618 264 781 l 264 510 q 574 524 410 510 l 578 519 q 574 475 574 500 q 578 431 574 450 l 574 427 q 264 440 436 440 l 264 278 z "},"Ë":{"ha":747,"x_min":131,"x_max":669,"o":"m 483 997 q 474 1007 483 997 q 464 1043 464 1017 q 483 1089 464 1069 q 530 1109 503 1109 q 578 1089 558 1109 q 597 1043 597 1069 q 578 997 597 1017 q 530 977 558 977 q 483 997 503 977 m 221 997 q 211 1007 221 997 q 201 1043 201 1017 q 221 1089 201 1069 q 268 1109 241 1109 q 315 1089 294 1109 q 335 1043 335 1069 q 315 997 335 1017 q 268 977 294 977 q 221 997 241 977 m 264 278 q 275 78 264 115 q 456 82 359 78 q 610 90 554 86 l 667 94 l 669 89 q 667 43 667 66 q 669 0 667 39 l 667 -4 q 583 0 633 0 l 204 0 l 132 -4 l 131 0 q 144 278 144 94 l 144 618 q 131 896 144 797 l 134 900 q 204 896 157 896 l 570 896 q 653 900 620 896 l 656 896 q 653 843 653 857 q 656 807 653 829 l 653 802 q 275 818 461 819 q 264 618 264 781 l 264 510 q 574 524 410 510 l 578 519 q 574 475 574 500 q 578 431 574 450 l 574 427 q 264 440 436 440 l 264 278 z "},"Ì":{"ha":408,"x_min":32,"x_max":326,"o":"m 144 618 q 131 896 144 797 l 134 900 q 204 896 159 896 q 275 900 250 896 l 278 896 q 264 618 264 804 l 264 278 q 278 0 264 99 l 275 -4 q 204 0 250 0 q 134 -4 158 0 l 131 0 q 144 278 144 94 l 144 618 m 138 1135 l 306 1018 q 326 989 327 1002 q 320 974 326 981 q 306 968 314 968 q 245 985 285 968 l 32 1072 q 138 1135 75 1114 z "},"Í":{"ha":408,"x_min":98,"x_max":378,"o":"m 144 618 q 131 896 144 797 l 134 900 q 204 896 159 896 q 275 900 250 896 l 278 896 q 264 618 264 804 l 264 278 q 278 0 264 99 l 275 -4 q 204 0 250 0 q 134 -4 158 0 l 131 0 q 144 278 144 94 l 144 618 m 292 1137 q 378 1065 351 1109 l 178 985 q 119 968 139 968 q 98 989 98 968 q 119 1018 98 1004 l 292 1137 z "},"Î":{"ha":408,"x_min":35,"x_max":372,"o":"m 232 1118 q 372 987 289 1050 l 350 958 q 203 1044 264 998 q 54 958 134 993 l 35 987 q 172 1118 94 1032 l 232 1118 m 144 618 q 131 896 144 797 l 134 900 q 204 896 159 896 q 275 900 250 896 l 278 896 q 264 618 264 804 l 264 278 q 278 0 264 99 l 275 -4 q 204 0 250 0 q 134 -4 158 0 l 131 0 q 144 278 144 94 l 144 618 z "},"Ï":{"ha":408,"x_min":18,"x_max":414,"o":"m 300 995 q 290 1004 300 995 q 281 1042 281 1014 q 300 1089 281 1069 q 347 1108 319 1108 q 394 1089 375 1108 q 414 1042 414 1069 q 394 995 414 1014 q 347 975 375 975 q 300 995 319 975 m 38 995 q 28 1004 38 995 q 18 1042 18 1014 q 38 1089 18 1069 q 85 1108 58 1108 q 131 1089 111 1108 q 151 1042 151 1069 q 131 995 151 1014 q 85 975 111 975 q 38 995 58 975 m 144 618 q 131 896 144 797 l 134 900 q 204 896 159 896 q 275 900 250 896 l 278 896 q 264 618 264 804 l 264 278 q 278 0 264 99 l 275 -4 q 204 0 250 0 q 134 -4 158 0 l 131 0 q 144 278 144 94 l 144 618 z "},"Ð":{"ha":986,"x_min":24,"x_max":914,"o":"m 264 114 q 290 69 264 79 q 415 58 317 58 q 555 72 496 58 q 665 121 614 86 q 744 224 717 155 q 771 395 771 293 q 751 555 771 481 q 689 696 732 629 q 567 801 646 762 q 380 839 489 839 q 293 828 322 839 q 264 783 264 817 l 264 453 l 400 453 l 400 399 l 264 399 l 264 114 m 204 896 q 319 898 249 896 q 433 900 389 900 q 774 761 633 900 q 914 428 914 623 q 885 252 914 330 q 810 129 856 175 q 703 52 765 82 q 582 9 642 21 q 458 -3 522 -3 q 314 -1 380 -3 q 204 0 248 0 l 132 -4 l 131 0 q 144 278 144 94 l 144 399 l 24 399 l 24 453 l 144 453 l 144 618 q 131 896 144 797 l 134 900 q 204 896 157 896 z "},"Ñ":{"ha":997,"x_min":136,"x_max":878,"o":"m 579 1031 q 619 1046 603 1031 q 648 1103 635 1061 l 682 1095 q 561 970 657 970 q 472 1006 526 970 q 397 1036 422 1036 q 356 1020 371 1036 q 329 970 340 1004 l 296 977 q 337 1069 311 1039 q 407 1100 363 1100 q 507 1061 452 1100 q 579 1031 547 1031 m 150 896 l 153 900 q 211 896 163 896 l 231 899 l 707 282 q 772 205 762 210 q 786 218 783 201 q 789 248 788 229 l 789 618 q 775 896 789 797 l 778 900 q 826 896 803 896 q 875 900 850 896 l 878 896 q 865 669 869 787 q 859 472 860 550 q 854 249 857 393 q 850 29 851 104 q 823 -14 847 -14 q 764 20 789 -14 l 279 632 q 249 670 258 660 q 233 677 239 681 q 226 660 227 673 q 225 610 225 646 l 225 278 q 239 0 225 99 l 236 -4 q 188 0 211 0 q 139 -4 164 0 l 136 0 q 156 432 153 161 q 150 896 159 703 z "},"Ò":{"ha":1029,"x_min":72,"x_max":957,"o":"m 493 852 q 297 755 379 852 q 215 454 215 657 q 311 156 215 264 q 541 47 407 47 q 738 148 663 47 q 814 431 814 249 q 729 747 814 642 q 493 852 644 852 m 957 457 q 834 118 957 249 q 513 -14 711 -14 q 200 109 328 -14 q 72 431 72 231 q 198 774 72 635 q 511 914 325 914 q 829 787 702 914 q 957 457 957 660 m 422 1137 l 590 1021 q 611 991 611 1005 q 605 977 611 983 q 590 971 599 971 q 530 987 569 971 l 317 1075 q 422 1137 360 1116 z "},"Ó":{"ha":1029,"x_min":72,"x_max":957,"o":"m 493 852 q 297 755 379 852 q 215 454 215 657 q 311 156 215 264 q 541 47 407 47 q 738 148 663 47 q 814 431 814 249 q 729 747 814 642 q 493 852 644 852 m 957 457 q 834 118 957 249 q 513 -14 711 -14 q 200 109 328 -14 q 72 431 72 231 q 198 774 72 635 q 511 914 325 914 q 829 787 702 914 q 957 457 957 660 m 538 1139 q 624 1067 597 1111 l 424 986 q 366 970 385 969 q 345 990 345 970 q 366 1019 345 1006 l 538 1139 z "},"Ô":{"ha":1029,"x_min":72,"x_max":957,"o":"m 539 1118 q 679 987 596 1050 l 657 958 q 510 1044 571 998 q 361 958 441 993 l 342 987 q 479 1118 401 1032 l 539 1118 m 493 852 q 297 755 379 852 q 215 454 215 657 q 311 156 215 264 q 541 47 407 47 q 738 148 663 47 q 814 431 814 249 q 729 747 814 642 q 493 852 644 852 m 957 457 q 834 118 957 249 q 513 -14 711 -14 q 200 109 328 -14 q 72 431 72 231 q 198 774 72 635 q 511 914 325 914 q 829 787 702 914 q 957 457 957 660 z "},"Õ":{"ha":1029,"x_min":72,"x_max":957,"o":"m 590 1031 q 630 1046 614 1031 q 660 1103 646 1061 l 693 1095 q 572 970 668 970 q 484 1006 538 970 q 408 1036 433 1036 q 367 1020 382 1036 q 340 970 351 1004 l 307 977 q 348 1069 323 1039 q 418 1100 374 1100 q 518 1061 463 1100 q 590 1031 558 1031 m 493 852 q 297 755 379 852 q 215 454 215 657 q 311 156 215 264 q 541 47 407 47 q 738 148 663 47 q 814 431 814 249 q 729 747 814 642 q 493 852 644 852 m 957 457 q 834 118 957 249 q 513 -14 711 -14 q 200 109 328 -14 q 72 431 72 231 q 198 774 72 635 q 511 914 325 914 q 829 787 702 914 q 957 457 957 660 z "},"Ö":{"ha":1029,"x_min":72,"x_max":957,"o":"m 150 940 q 140 949 150 940 q 131 985 131 958 q 150 1029 131 1011 q 195 1047 168 1047 q 239 1029 221 1047 q 257 985 257 1011 q 239 940 257 958 q 195 922 221 922 q 150 940 168 922 m 792 940 q 783 949 792 940 q 774 985 774 958 q 792 1029 774 1011 q 836 1047 810 1047 q 881 1029 863 1047 q 899 985 899 1011 q 881 940 899 958 q 836 922 863 922 q 792 940 810 922 m 493 852 q 297 755 379 852 q 215 454 215 657 q 311 156 215 264 q 541 47 407 47 q 738 148 663 47 q 814 431 814 249 q 729 747 814 642 q 493 852 644 852 m 957 457 q 834 118 957 249 q 513 -14 711 -14 q 200 109 328 -14 q 72 431 72 231 q 198 774 72 635 q 511 914 325 914 q 829 787 702 914 q 957 457 957 660 z "},"×":{"ha":732,"x_min":147,"x_max":585,"o":"m 414 319 l 585 150 l 536 102 l 367 271 l 197 102 l 147 150 l 318 319 l 147 490 l 197 539 l 367 368 l 536 539 l 585 490 l 414 319 z "},"Ø":{"ha":1029,"x_min":72,"x_max":957,"o":"m 150 -18 q 117 -4 132 -18 q 100 26 103 9 l 182 127 q 72 431 72 250 q 198 774 72 635 q 511 914 325 914 q 762 842 652 914 l 821 914 q 854 902 840 914 q 871 872 868 889 l 814 802 q 957 457 957 672 q 834 118 957 249 q 513 -14 711 -14 q 231 81 350 -14 l 150 -18 m 493 852 q 297 755 379 852 q 215 454 215 657 q 264 228 215 325 l 707 773 q 493 852 626 852 m 748 720 l 301 168 q 409 78 347 109 q 541 47 471 47 q 738 148 663 47 q 814 431 814 249 q 748 720 814 614 z "},"Ù":{"ha":961,"x_min":131,"x_max":844,"o":"m 755 618 q 742 896 755 797 l 745 900 q 793 896 770 896 q 842 900 817 896 l 844 896 q 831 618 831 804 l 831 410 q 749 97 831 207 q 468 -14 668 -14 q 363 1 414 -14 q 260 50 313 16 q 176 156 208 85 q 144 328 144 228 l 144 618 q 131 896 144 797 l 134 900 q 204 896 159 896 q 275 900 250 896 l 278 896 q 264 618 264 804 l 264 374 q 497 64 264 64 q 614 83 565 64 q 690 132 663 103 q 732 206 717 160 q 751 291 747 252 q 755 385 755 330 l 755 618 m 467 1136 l 635 1019 q 656 990 656 1004 q 649 976 656 982 q 635 970 643 970 q 575 986 614 970 l 361 1074 q 467 1136 404 1115 z "},"Ú":{"ha":961,"x_min":131,"x_max":844,"o":"m 755 618 q 742 896 755 797 l 745 900 q 793 896 770 896 q 842 900 817 896 l 844 896 q 831 618 831 804 l 831 410 q 749 97 831 207 q 468 -14 668 -14 q 363 1 414 -14 q 260 50 313 16 q 176 156 208 85 q 144 328 144 228 l 144 618 q 131 896 144 797 l 134 900 q 204 896 159 896 q 275 900 250 896 l 278 896 q 264 618 264 804 l 264 374 q 497 64 264 64 q 614 83 565 64 q 690 132 663 103 q 732 206 717 160 q 751 291 747 252 q 755 385 755 330 l 755 618 m 590 1137 q 676 1065 650 1109 l 476 985 q 418 968 437 968 q 397 989 397 968 q 418 1018 397 1004 l 590 1137 z "},"Û":{"ha":961,"x_min":131,"x_max":844,"o":"m 755 618 q 742 896 755 797 l 745 900 q 793 896 770 896 q 842 900 817 896 l 844 896 q 831 618 831 804 l 831 410 q 749 97 831 207 q 468 -14 668 -14 q 363 1 414 -14 q 260 50 313 16 q 176 156 208 85 q 144 328 144 228 l 144 618 q 131 896 144 797 l 134 900 q 204 896 159 896 q 275 900 250 896 l 278 896 q 264 618 264 804 l 264 374 q 497 64 264 64 q 614 83 565 64 q 690 132 663 103 q 732 206 717 160 q 751 291 747 252 q 755 385 755 330 l 755 618 m 555 1118 q 696 987 612 1050 l 673 958 q 526 1044 587 998 q 378 958 457 993 l 358 987 q 496 1118 418 1032 l 555 1118 z "},"Ü":{"ha":961,"x_min":131,"x_max":844,"o":"m 352 940 q 343 949 352 940 q 334 985 334 958 q 352 1029 334 1011 q 396 1047 370 1047 q 440 1029 422 1047 q 458 985 458 1011 q 440 940 458 958 q 396 922 422 922 q 352 940 370 922 m 593 940 q 584 949 593 940 q 575 985 575 958 q 593 1029 575 1011 q 637 1047 611 1047 q 682 1029 664 1047 q 700 985 700 1011 q 682 940 700 958 q 637 922 664 922 q 593 940 611 922 m 755 618 q 742 896 755 797 l 745 900 q 793 896 770 896 q 842 900 817 896 l 844 896 q 831 618 831 804 l 831 410 q 749 97 831 207 q 468 -14 668 -14 q 363 1 414 -14 q 260 50 313 16 q 176 156 208 85 q 144 328 144 228 l 144 618 q 131 896 144 797 l 134 900 q 204 896 159 896 q 275 900 250 896 l 278 896 q 264 618 264 804 l 264 374 q 497 64 264 64 q 614 83 565 64 q 690 132 663 103 q 732 206 717 160 q 751 291 747 252 q 755 385 755 330 l 755 618 z "},"Ý":{"ha":798,"x_min":22,"x_max":783,"o":"m 463 396 q 472 -4 465 74 q 402 0 447 0 q 334 -4 358 0 q 343 382 343 103 q 182 646 302 452 q 22 900 62 840 q 102 896 57 896 q 180 900 144 896 q 424 472 214 835 q 667 900 579 716 q 725 896 692 896 q 783 900 755 896 q 674 733 741 833 q 578 588 607 632 q 517 490 550 545 q 463 396 484 436 m 500 1139 q 586 1067 559 1111 l 386 986 q 328 970 347 969 q 307 990 307 970 q 328 1019 307 1006 l 500 1139 z "},"Þ":{"ha":757,"x_min":131,"x_max":699,"o":"m 144 618 q 131 896 144 797 l 134 900 q 204 896 159 896 q 275 900 250 896 l 278 896 q 265 728 269 833 q 386 730 313 731 q 542 706 476 730 q 640 640 608 681 q 685 558 671 599 q 699 476 699 518 q 688 408 699 443 q 653 335 677 372 q 591 270 628 298 q 496 223 554 241 q 367 204 437 204 q 264 213 294 204 q 278 0 267 83 l 275 -4 q 204 0 250 0 q 134 -4 158 0 l 131 0 q 144 278 144 94 l 144 618 m 264 267 q 299 263 275 264 q 359 261 323 261 q 562 476 562 261 q 385 673 562 673 q 264 659 319 673 q 264 618 264 646 l 264 278 l 264 267 z "},"ß":{"ha":753,"x_min":87,"x_max":694,"o":"m 467 -14 q 376 1 420 -14 q 315 25 332 16 l 314 29 q 340 110 323 46 l 355 111 q 403 62 368 87 q 467 37 439 37 q 578 176 578 37 q 571 217 578 195 q 546 267 564 239 q 490 315 529 296 q 395 334 450 334 q 376 330 391 334 l 371 355 q 515 578 515 549 q 476 596 515 589 q 401 604 437 604 q 262 548 309 604 q 215 355 215 492 l 215 252 q 229 0 215 94 l 227 -4 q 158 0 205 0 l 89 -4 l 87 0 q 102 249 101 87 l 102 330 q 174 570 102 487 q 421 653 245 653 q 539 643 469 653 q 652 618 610 632 l 652 596 l 501 379 q 497 370 497 375 q 504 364 497 364 q 644 308 593 360 q 694 181 694 256 q 628 46 694 106 q 467 -14 562 -14 z "},"à":{"ha":694,"x_min":22,"x_max":669,"o":"m 361 933 l 458 758 q 467 725 467 741 q 460 715 467 720 q 446 710 454 710 q 406 737 435 710 l 248 889 l 250 904 q 340 936 293 936 q 361 933 350 936 m 203 221 q 123 -3 144 76 q 78 0 111 0 q 22 -3 35 0 q 317 659 176 332 l 396 659 q 492 423 429 579 q 601 154 554 267 q 669 -3 647 41 q 581 0 652 0 q 530 -3 547 0 q 455 221 506 83 q 414 222 428 222 q 377 223 400 222 q 335 224 353 224 q 271 223 310 224 q 203 221 233 222 m 435 276 q 406 350 421 312 q 372 432 390 388 q 334 522 353 476 l 330 522 q 299 449 320 498 q 260 357 278 399 q 226 277 241 314 q 277 275 240 277 q 330 273 315 273 q 380 274 351 273 q 435 276 409 275 z "},"á":{"ha":694,"x_min":22,"x_max":669,"o":"m 378 925 q 397 928 386 928 q 473 896 440 928 l 478 880 l 318 729 q 277 703 292 703 q 263 708 270 703 q 257 721 257 714 q 273 760 257 734 l 378 925 m 203 221 q 123 -3 144 76 q 78 0 111 0 q 22 -3 35 0 q 317 659 176 332 l 396 659 q 492 423 429 579 q 601 154 554 267 q 669 -3 647 41 q 581 0 652 0 q 530 -3 547 0 q 455 221 506 83 q 414 222 428 222 q 377 223 400 222 q 335 224 353 224 q 271 223 310 224 q 203 221 233 222 m 435 276 q 406 350 421 312 q 372 432 390 388 q 334 522 353 476 l 330 522 q 299 449 320 498 q 260 357 278 399 q 226 277 241 314 q 277 275 240 277 q 330 273 315 273 q 380 274 351 273 q 435 276 409 275 z "},"â":{"ha":694,"x_min":22,"x_max":669,"o":"m 390 904 q 530 725 436 830 l 501 705 q 354 831 403 777 q 205 705 293 768 l 178 725 q 321 904 277 836 l 390 904 m 203 221 q 123 -3 144 76 q 78 0 111 0 q 22 -3 35 0 q 317 659 176 332 l 396 659 q 492 423 429 579 q 601 154 554 267 q 669 -3 647 41 q 581 0 652 0 q 530 -3 547 0 q 455 221 506 83 q 414 222 428 222 q 377 223 400 222 q 335 224 353 224 q 271 223 310 224 q 203 221 233 222 m 435 276 q 406 350 421 312 q 372 432 390 388 q 334 522 353 476 l 330 522 q 299 449 320 498 q 260 357 278 399 q 226 277 241 314 q 277 275 240 277 q 330 273 315 273 q 380 274 351 273 q 435 276 409 275 z "},"ã":{"ha":694,"x_min":22,"x_max":669,"o":"m 449 793 q 488 808 473 793 q 518 865 504 823 l 551 857 q 431 732 526 732 q 342 768 396 732 q 267 799 292 799 q 225 783 240 799 q 199 732 210 766 l 165 739 q 207 832 181 802 q 276 863 232 863 q 376 823 321 863 q 449 793 417 793 m 203 221 q 123 -3 144 76 q 78 0 111 0 q 22 -3 35 0 q 317 659 176 332 l 396 659 q 492 423 429 579 q 601 154 554 267 q 669 -3 647 41 q 581 0 652 0 q 530 -3 547 0 q 455 221 506 83 q 414 222 428 222 q 377 223 400 222 q 335 224 353 224 q 271 223 310 224 q 203 221 233 222 m 435 276 q 406 350 421 312 q 372 432 390 388 q 334 522 353 476 l 330 522 q 299 449 320 498 q 260 357 278 399 q 226 277 241 314 q 277 275 240 277 q 330 273 315 273 q 380 274 351 273 q 435 276 409 275 z "},"ä":{"ha":694,"x_min":22,"x_max":669,"o":"m 195 748 q 186 757 195 748 q 176 794 176 766 q 196 842 176 822 q 241 861 215 861 q 288 842 268 861 q 307 794 307 822 q 288 748 307 766 q 241 729 269 729 q 195 748 214 729 m 431 748 q 421 757 431 748 q 411 794 411 766 q 431 842 411 822 q 476 861 450 861 q 522 842 503 861 q 542 794 542 822 q 522 748 542 766 q 476 729 503 729 q 431 748 450 729 m 203 221 q 123 -3 144 76 q 78 0 111 0 q 22 -3 35 0 q 317 659 176 332 l 396 659 q 492 423 429 579 q 601 154 554 267 q 669 -3 647 41 q 581 0 652 0 q 530 -3 547 0 q 455 221 506 83 q 414 222 428 222 q 377 223 400 222 q 335 224 353 224 q 271 223 310 224 q 203 221 233 222 m 435 276 q 406 350 421 312 q 372 432 390 388 q 334 522 353 476 l 330 522 q 299 449 320 498 q 260 357 278 399 q 226 277 241 314 q 277 275 240 277 q 330 273 315 273 q 380 274 351 273 q 435 276 409 275 z "},"å":{"ha":694,"x_min":22,"x_max":669,"o":"m 354 885 q 303 862 322 885 q 285 807 285 839 q 304 753 285 777 q 354 729 323 729 q 404 753 385 729 q 424 807 424 777 q 404 863 424 840 q 354 885 385 885 m 269 726 q 251 743 269 726 q 233 807 233 760 q 270 888 233 854 q 354 922 306 922 q 439 889 403 922 q 475 807 475 856 q 439 726 475 760 q 354 692 404 692 q 269 726 305 692 m 203 221 q 123 -3 144 76 q 78 0 111 0 q 22 -3 35 0 q 317 659 176 332 l 396 659 q 492 423 429 579 q 601 154 554 267 q 669 -3 647 41 q 581 0 652 0 q 530 -3 547 0 q 455 221 506 83 q 414 222 428 222 q 377 223 400 222 q 335 224 353 224 q 271 223 310 224 q 203 221 233 222 m 435 276 q 406 350 421 312 q 372 432 390 388 q 334 522 353 476 l 330 522 q 299 449 320 498 q 260 357 278 399 q 226 277 241 314 q 277 275 240 277 q 330 273 315 273 q 380 274 351 273 q 435 276 409 275 z "},"æ":{"ha":998,"x_min":49,"x_max":901,"o":"m 461 249 l 461 304 l 279 304 q 150 -3 182 84 q 104 0 138 0 q 49 -3 62 0 q 353 642 193 273 q 519 639 410 639 l 802 639 q 885 643 852 639 l 888 639 q 885 596 885 600 q 888 567 885 589 l 885 561 q 586 578 772 578 q 575 389 575 541 l 575 363 q 685 364 650 363 q 751 370 720 366 q 806 376 782 375 l 810 372 q 806 333 806 353 q 810 294 806 314 l 806 290 q 575 304 668 304 l 575 250 q 586 68 575 106 q 747 72 669 68 q 862 81 825 77 l 899 85 l 901 79 q 899 36 899 57 q 899 26 899 31 q 901 14 900 21 q 901 0 901 7 l 899 -4 q 815 0 865 0 l 519 0 l 449 -4 l 447 0 q 461 249 461 83 m 304 363 l 461 363 l 461 543 q 453 582 461 572 q 431 591 446 591 q 383 546 404 591 q 304 363 363 500 z "},"ç":{"ha":700,"x_min":61,"x_max":642,"o":"m 387 -134 q 325 -142 351 -134 l 317 -134 l 367 -12 q 144 94 228 -1 q 61 309 61 189 q 158 556 61 458 q 397 653 254 653 q 467 649 435 653 q 520 642 500 646 q 562 631 541 639 q 592 620 583 624 q 617 606 600 615 q 639 595 635 596 l 642 590 l 610 476 l 591 475 q 561 523 574 504 q 525 563 547 542 q 471 594 503 583 q 401 604 440 604 q 183 322 183 604 q 203 186 183 247 q 275 83 222 126 q 407 40 328 40 q 518 64 475 40 q 611 146 561 87 l 640 111 q 541 18 593 47 q 414 -14 488 -12 l 385 -93 q 421 -89 401 -89 q 492 -113 464 -89 q 519 -175 519 -136 q 477 -249 519 -220 q 371 -278 435 -278 q 268 -254 322 -278 q 282 -218 268 -232 q 363 -237 335 -238 q 414 -223 395 -237 q 433 -182 433 -208 q 387 -134 433 -134 z "},"è":{"ha":654,"x_min":106,"x_max":559,"o":"m 178 639 l 460 639 q 543 643 510 639 l 546 639 q 543 596 543 600 q 546 567 543 589 l 543 561 q 241 578 428 578 q 231 389 231 541 l 231 363 q 341 364 306 363 q 409 370 376 366 q 464 376 441 375 l 468 372 q 464 333 464 353 q 468 294 464 314 l 464 290 q 231 304 326 304 l 231 250 q 241 68 231 106 q 404 72 325 68 q 519 81 482 77 l 557 85 l 559 79 q 557 36 557 57 q 557 26 557 31 q 559 14 558 21 q 559 0 559 7 l 557 -4 q 473 0 524 0 l 178 0 l 107 -4 l 106 0 q 119 249 119 83 l 119 390 q 106 639 119 555 l 107 643 q 178 639 129 639 m 318 947 l 415 772 q 424 739 423 755 q 417 729 424 734 q 403 724 411 724 q 363 751 392 724 l 204 903 l 207 918 q 297 950 250 950 q 318 947 307 950 z "},"é":{"ha":654,"x_min":106,"x_max":559,"o":"m 178 639 l 460 639 q 543 643 510 639 l 546 639 q 543 596 543 600 q 546 567 543 589 l 543 561 q 241 578 428 578 q 231 389 231 541 l 231 363 q 341 364 306 363 q 409 370 376 366 q 464 376 441 375 l 468 372 q 464 333 464 353 q 468 294 464 314 l 464 290 q 231 304 326 304 l 231 250 q 241 68 231 106 q 404 72 325 68 q 519 81 482 77 l 557 85 l 559 79 q 557 36 557 57 q 557 26 557 31 q 559 14 558 21 q 559 0 559 7 l 557 -4 q 473 0 524 0 l 178 0 l 107 -4 l 106 0 q 119 249 119 83 l 119 390 q 106 639 119 555 l 107 643 q 178 639 129 639 m 359 921 q 379 924 368 924 q 456 892 422 924 l 460 876 l 300 725 q 258 699 273 699 q 245 704 252 699 q 239 717 239 710 q 255 755 239 730 l 359 921 z "},"ê":{"ha":654,"x_min":106,"x_max":559,"o":"m 178 639 l 460 639 q 543 643 510 639 l 546 639 q 543 596 543 600 q 546 567 543 589 l 543 561 q 241 578 428 578 q 231 389 231 541 l 231 363 q 341 364 306 363 q 409 370 376 366 q 464 376 441 375 l 468 372 q 464 333 464 353 q 468 294 464 314 l 464 290 q 231 304 326 304 l 231 250 q 241 68 231 106 q 404 72 325 68 q 519 81 482 77 l 557 85 l 559 79 q 557 36 557 57 q 557 26 557 31 q 559 14 558 21 q 559 0 559 7 l 557 -4 q 473 0 524 0 l 178 0 l 107 -4 l 106 0 q 119 249 119 83 l 119 390 q 106 639 119 555 l 107 643 q 178 639 129 639 m 375 903 q 515 724 421 829 l 486 704 q 339 829 388 776 q 191 704 278 767 l 163 724 q 306 903 262 835 l 375 903 z "},"ë":{"ha":654,"x_min":106,"x_max":559,"o":"m 178 639 l 460 639 q 543 643 510 639 l 546 639 q 543 596 543 600 q 546 567 543 589 l 543 561 q 241 578 428 578 q 231 389 231 541 l 231 363 q 341 364 306 363 q 409 370 376 366 q 464 376 441 375 l 468 372 q 464 333 464 353 q 468 294 464 314 l 464 290 q 231 304 326 304 l 231 250 q 241 68 231 106 q 404 72 325 68 q 519 81 482 77 l 557 85 l 559 79 q 557 36 557 57 q 557 26 557 31 q 559 14 558 21 q 559 0 559 7 l 557 -4 q 473 0 524 0 l 178 0 l 107 -4 l 106 0 q 119 249 119 83 l 119 390 q 106 639 119 555 l 107 643 q 178 639 129 639 m 179 751 q 169 760 179 751 q 160 798 160 770 q 179 845 160 825 q 225 864 199 864 q 271 845 252 864 q 290 798 290 825 q 272 751 290 770 q 225 732 253 732 q 179 751 197 732 m 414 751 q 404 760 414 751 q 395 798 395 770 q 414 845 395 825 q 460 864 433 864 q 506 845 486 864 q 525 798 525 825 q 506 751 525 770 q 460 732 486 732 q 414 751 433 732 z "},"ì":{"ha":347,"x_min":41,"x_max":261,"o":"m 118 390 q 104 639 118 555 l 106 643 q 174 639 125 639 q 240 643 174 639 l 243 639 q 229 390 229 533 l 229 249 q 243 0 229 87 l 240 -4 q 174 0 220 0 q 106 -4 174 0 l 104 0 q 118 249 118 83 l 118 390 m 155 924 l 253 749 q 261 715 261 732 q 255 705 261 710 q 240 700 249 700 q 200 728 229 700 l 41 879 l 45 895 q 135 926 87 926 q 155 924 144 926 z "},"í":{"ha":347,"x_min":104,"x_max":340,"o":"m 118 390 q 104 639 118 555 l 106 643 q 174 639 125 639 q 240 643 174 639 l 243 639 q 229 390 229 533 l 229 249 q 243 0 229 87 l 240 -4 q 174 0 220 0 q 106 -4 174 0 l 104 0 q 118 249 118 83 l 118 390 m 240 921 q 260 924 248 924 q 336 892 302 924 l 340 876 l 180 725 q 139 699 154 699 q 126 704 132 699 q 119 717 119 710 q 135 755 119 730 l 240 921 z "},"î":{"ha":347,"x_min":18,"x_max":371,"o":"m 118 390 q 104 639 118 555 l 106 643 q 174 639 125 639 q 240 643 174 639 l 243 639 q 229 390 229 533 l 229 249 q 243 0 229 87 l 240 -4 q 174 0 220 0 q 106 -4 174 0 l 104 0 q 118 249 118 83 l 118 390 m 231 904 q 371 725 277 830 l 342 705 q 195 831 243 777 q 46 705 134 768 l 18 725 q 161 904 118 836 l 231 904 z "},"ï":{"ha":347,"x_min":-8,"x_max":357,"o":"m 118 390 q 104 639 118 555 l 106 643 q 174 639 125 639 q 240 643 174 639 l 243 639 q 229 390 229 533 l 229 249 q 243 0 229 87 l 240 -4 q 174 0 220 0 q 106 -4 174 0 l 104 0 q 118 249 118 83 l 118 390 m 11 751 q 2 760 11 751 q -8 798 -8 770 q 11 845 -8 825 q 57 864 31 864 q 103 845 83 864 q 122 798 122 825 q 103 751 122 770 q 57 732 83 732 q 11 751 31 732 m 245 751 q 236 760 245 751 q 227 798 227 770 q 246 845 227 825 q 292 864 265 864 q 337 845 318 864 q 357 798 357 825 q 338 751 357 770 q 292 732 319 732 q 245 751 264 732 z "},"ð":{"ha":786,"x_min":41,"x_max":708,"o":"m 332 343 l 332 289 l 231 289 l 231 113 q 253 65 231 79 q 349 50 275 50 q 530 101 472 50 q 589 289 589 151 q 575 397 589 346 q 532 493 561 449 q 449 564 503 538 q 322 590 395 590 q 231 545 231 590 l 231 343 l 332 343 m 175 639 q 244 640 201 639 q 317 642 286 642 q 363 643 347 643 q 612 549 517 643 q 708 313 708 454 q 680 161 708 225 q 602 63 652 97 q 498 13 553 29 q 382 -3 444 -3 q 250 -1 317 -3 q 175 0 183 0 l 107 -4 l 106 0 q 119 249 119 83 l 119 289 l 41 289 l 41 343 l 119 343 l 119 390 q 106 639 119 555 l 107 643 q 175 639 126 639 z "},"ñ":{"ha":758,"x_min":104,"x_max":654,"o":"m 479 793 q 519 808 503 793 q 549 865 534 823 l 582 857 q 461 732 557 732 q 372 768 427 732 q 297 799 322 799 q 255 783 271 799 q 229 732 240 766 l 196 739 q 237 832 212 802 q 307 863 262 863 q 407 823 351 863 q 479 793 448 793 m 114 440 q 104 639 114 572 l 106 642 q 158 639 124 639 l 207 642 l 546 201 q 572 185 568 175 q 575 204 575 191 l 575 440 q 566 639 575 572 l 568 642 q 604 639 579 639 l 654 642 l 654 639 q 644 440 645 565 l 644 21 q 632 -3 644 7 q 608 -14 619 -14 q 558 14 581 -14 l 212 452 q 183 435 183 489 l 183 199 q 193 0 183 66 l 192 -4 q 151 0 175 0 l 106 -4 l 104 0 q 114 199 114 61 l 114 440 z "},"ò":{"ha":791,"x_min":61,"x_max":730,"o":"m 385 597 q 241 527 300 597 q 183 322 183 456 q 244 117 183 195 q 407 40 306 40 q 555 109 501 40 q 608 304 608 178 q 544 519 608 441 q 385 597 480 597 m 730 323 q 640 83 730 180 q 386 -14 550 -14 q 153 76 244 -14 q 61 306 61 165 q 156 556 61 458 q 397 653 252 653 q 633 561 536 653 q 730 323 730 468 m 368 928 l 465 753 q 473 720 473 736 q 467 709 473 714 q 453 704 461 704 q 412 732 442 704 l 254 884 l 257 899 q 347 930 300 930 q 368 928 357 930 z "},"ó":{"ha":791,"x_min":61,"x_max":730,"o":"m 385 597 q 241 527 300 597 q 183 322 183 456 q 244 117 183 195 q 407 40 306 40 q 555 109 501 40 q 608 304 608 178 q 544 519 608 441 q 385 597 480 597 m 730 323 q 640 83 730 180 q 386 -14 550 -14 q 153 76 244 -14 q 61 306 61 165 q 156 556 61 458 q 397 653 252 653 q 633 561 536 653 q 730 323 730 468 m 429 921 q 449 924 437 924 q 525 892 492 924 l 529 876 l 370 725 q 328 699 343 699 q 315 704 321 699 q 309 717 309 710 q 324 755 309 730 l 429 921 z "},"ô":{"ha":791,"x_min":61,"x_max":730,"o":"m 385 597 q 241 527 300 597 q 183 322 183 456 q 244 117 183 195 q 407 40 306 40 q 555 109 501 40 q 608 304 608 178 q 544 519 608 441 q 385 597 480 597 m 730 323 q 640 83 730 180 q 386 -14 550 -14 q 153 76 244 -14 q 61 306 61 165 q 156 556 61 458 q 397 653 252 653 q 633 561 536 653 q 730 323 730 468 m 428 899 q 568 720 474 825 l 539 700 q 392 825 441 772 q 243 700 331 763 l 215 720 q 358 899 315 831 l 428 899 z "},"õ":{"ha":791,"x_min":61,"x_max":730,"o":"m 385 597 q 241 527 300 597 q 183 322 183 456 q 244 117 183 195 q 407 40 306 40 q 555 109 501 40 q 608 304 608 178 q 544 519 608 441 q 385 597 480 597 m 730 323 q 640 83 730 180 q 386 -14 550 -14 q 153 76 244 -14 q 61 306 61 165 q 156 556 61 458 q 397 653 252 653 q 633 561 536 653 q 730 323 730 468 m 471 793 q 510 808 494 793 q 541 865 526 823 l 574 857 q 453 732 549 732 q 364 768 418 732 q 289 799 314 799 q 247 783 262 799 q 221 732 232 766 l 187 739 q 229 832 203 802 q 299 863 254 863 q 399 823 343 863 q 471 793 439 793 z "},"ö":{"ha":791,"x_min":61,"x_max":730,"o":"m 385 597 q 241 527 300 597 q 183 322 183 456 q 244 117 183 195 q 407 40 306 40 q 555 109 501 40 q 608 304 608 178 q 544 519 608 441 q 385 597 480 597 m 730 323 q 640 83 730 180 q 386 -14 550 -14 q 153 76 244 -14 q 61 306 61 165 q 156 556 61 458 q 397 653 252 653 q 633 561 536 653 q 730 323 730 468 m 229 748 q 219 757 229 748 q 210 794 210 766 q 229 842 210 822 q 275 861 249 861 q 321 842 301 861 q 340 794 340 822 q 321 748 340 766 q 275 729 302 729 q 229 748 248 729 m 464 748 q 454 757 464 748 q 444 794 444 766 q 464 842 444 822 q 510 861 484 861 q 556 842 536 861 q 575 794 575 822 q 556 748 575 766 q 510 729 536 729 q 464 748 484 729 z "},"÷":{"ha":732,"x_min":92,"x_max":640,"o":"m 303 509 l 303 514 q 326 552 311 538 q 366 577 340 566 l 371 577 q 433 514 418 559 l 433 509 q 419 478 427 490 q 399 458 411 466 q 371 447 387 451 l 366 447 q 325 467 339 453 q 303 509 311 480 m 303 138 l 303 142 q 366 205 319 185 l 371 205 q 411 181 397 195 q 433 142 425 167 l 433 138 q 419 106 427 119 q 399 86 411 94 q 371 75 387 79 l 366 75 q 325 95 339 81 q 303 138 311 109 m 640 357 l 640 289 l 92 289 l 92 357 l 640 357 z "},"ø":{"ha":791,"x_min":61,"x_max":730,"o":"m 385 597 q 241 527 300 597 q 183 322 183 456 q 233 134 183 209 l 523 543 q 459 584 494 570 q 385 597 424 597 m 730 323 q 640 83 730 180 q 386 -14 550 -14 q 216 28 292 -14 l 151 -64 l 111 -37 l 176 55 q 61 306 61 146 q 156 556 61 458 q 397 653 252 653 q 569 608 491 653 l 624 685 l 664 659 l 609 581 q 698 470 666 536 q 730 323 730 404 m 555 505 l 264 96 q 407 40 322 41 q 555 109 501 40 q 608 304 608 178 q 594 416 608 366 q 555 505 581 467 z "},"ù":{"ha":765,"x_min":106,"x_max":663,"o":"m 648 389 l 648 311 q 589 69 648 151 q 374 -14 530 -14 q 293 0 335 -14 q 211 42 252 14 q 145 125 171 71 q 119 252 119 180 l 119 389 q 106 639 119 555 l 107 643 q 176 639 128 639 l 244 643 l 248 639 q 233 389 234 551 l 233 281 q 236 205 233 236 q 249 140 239 174 q 276 86 258 107 q 323 52 293 65 q 397 39 354 39 q 483 55 448 39 q 537 93 518 71 q 565 154 555 115 q 577 220 575 192 q 579 293 579 249 l 579 389 q 566 639 579 555 l 567 643 q 614 639 600 639 l 660 643 l 663 639 q 648 389 648 551 m 372 928 l 469 753 q 478 720 477 736 q 472 709 478 714 q 457 704 465 704 q 416 732 446 704 l 258 884 l 261 899 q 351 930 304 930 q 372 928 361 930 z "},"ú":{"ha":765,"x_min":106,"x_max":663,"o":"m 648 389 l 648 311 q 589 69 648 151 q 374 -14 530 -14 q 293 0 335 -14 q 211 42 252 14 q 145 125 171 71 q 119 252 119 180 l 119 389 q 106 639 119 555 l 107 643 q 176 639 128 639 l 244 643 l 248 639 q 233 389 234 551 l 233 281 q 236 205 233 236 q 249 140 239 174 q 276 86 258 107 q 323 52 293 65 q 397 39 354 39 q 483 55 448 39 q 537 93 518 71 q 565 154 555 115 q 577 220 575 192 q 579 293 579 249 l 579 389 q 566 639 579 555 l 567 643 q 614 639 600 639 l 660 643 l 663 639 q 648 389 648 551 m 476 921 q 496 924 484 924 q 572 892 538 924 l 576 876 l 416 725 q 375 699 390 699 q 362 704 368 699 q 355 717 355 710 q 372 755 355 730 l 476 921 z "},"û":{"ha":765,"x_min":106,"x_max":663,"o":"m 648 389 l 648 311 q 589 69 648 151 q 374 -14 530 -14 q 293 0 335 -14 q 211 42 252 14 q 145 125 171 71 q 119 252 119 180 l 119 389 q 106 639 119 555 l 107 643 q 176 639 128 639 l 244 643 l 248 639 q 233 389 234 551 l 233 281 q 236 205 233 236 q 249 140 239 174 q 276 86 258 107 q 323 52 293 65 q 397 39 354 39 q 483 55 448 39 q 537 93 518 71 q 565 154 555 115 q 577 220 575 192 q 579 293 579 249 l 579 389 q 566 639 579 555 l 567 643 q 614 639 600 639 l 660 643 l 663 639 q 648 389 648 551 m 449 897 q 589 718 495 823 l 559 699 q 412 823 461 770 q 264 699 351 761 l 236 718 q 379 897 336 829 l 449 897 z "},"ü":{"ha":765,"x_min":106,"x_max":663,"o":"m 648 389 l 648 311 q 589 69 648 151 q 374 -14 530 -14 q 293 0 335 -14 q 211 42 252 14 q 145 125 171 71 q 119 252 119 180 l 119 389 q 106 639 119 555 l 107 643 q 176 639 128 639 l 244 643 l 248 639 q 233 389 234 551 l 233 281 q 236 205 233 236 q 249 140 239 174 q 276 86 258 107 q 323 52 293 65 q 397 39 354 39 q 483 55 448 39 q 537 93 518 71 q 565 154 555 115 q 577 220 575 192 q 579 293 579 249 l 579 389 q 566 639 579 555 l 567 643 q 614 639 600 639 l 660 643 l 663 639 q 648 389 648 551 m 244 751 q 235 760 244 751 q 225 798 225 770 q 244 845 225 825 q 290 864 264 864 q 336 845 317 864 q 355 798 355 825 q 336 751 355 770 q 290 732 317 732 q 244 751 264 732 m 478 751 q 469 760 478 751 q 460 798 460 770 q 479 845 460 825 q 525 864 498 864 q 571 845 551 864 q 590 798 590 825 q 571 751 590 770 q 525 732 553 732 q 478 751 497 732 z "},"ý":{"ha":621,"x_min":31,"x_max":590,"o":"m 361 929 q 380 932 369 932 q 457 900 423 932 l 461 885 l 301 733 q 260 707 275 707 q 247 712 253 707 q 240 725 240 718 q 256 764 240 739 l 361 929 m 363 282 q 366 112 363 195 q 371 -4 368 28 q 311 0 347 0 q 252 -4 277 0 q 258 272 258 58 q 31 643 111 524 q 96 639 57 639 q 161 643 136 639 q 326 351 189 588 q 490 643 431 519 q 541 639 510 639 q 590 643 572 639 q 535 559 566 607 q 487 485 504 511 q 448 425 469 458 q 413 370 426 391 q 386 325 399 348 q 363 282 372 301 z "},"þ":{"ha":625,"x_min":94,"x_max":568,"o":"m 109 390 q 94 639 109 555 l 96 643 q 164 639 115 639 q 231 643 164 639 l 233 639 q 231 617 232 628 q 228 597 229 607 q 226 577 227 587 q 224 558 225 568 q 223 538 224 548 q 222 518 222 528 q 321 521 289 521 q 447 502 395 521 q 524 452 500 484 q 558 392 549 421 q 568 331 568 363 q 555 267 568 298 q 513 203 542 235 q 431 152 485 172 q 306 132 376 132 q 254 133 275 132 q 220 138 233 134 q 233 0 223 64 l 231 -4 q 164 0 211 0 l 96 -4 l 94 0 q 109 249 108 83 l 109 390 m 220 186 q 300 180 235 181 q 415 215 379 180 q 450 332 450 250 q 419 439 450 407 q 319 471 387 471 q 311 471 316 471 q 301 470 307 471 q 290 469 296 470 q 278 468 284 469 q 265 467 271 467 q 252 465 258 466 q 240 464 246 465 q 230 462 235 463 q 220 460 224 461 q 220 428 220 445 q 220 390 220 411 l 220 249 q 220 186 220 205 z "},"ÿ":{"ha":621,"x_min":31,"x_max":590,"o":"m 170 748 q 160 757 170 748 q 150 794 150 766 q 170 842 150 822 q 215 861 189 861 q 261 842 241 861 q 281 794 281 822 q 261 748 281 766 q 215 729 241 729 q 170 748 189 729 m 404 748 q 394 757 404 748 q 385 794 385 766 q 404 842 385 822 q 450 861 424 861 q 496 842 476 861 q 515 794 515 822 q 497 748 515 766 q 450 729 478 729 q 404 748 422 729 m 363 282 q 366 112 363 195 q 371 -4 368 28 q 311 0 347 0 q 252 -4 277 0 q 258 272 258 58 q 31 643 111 524 q 96 639 57 639 q 161 643 136 639 q 326 351 189 588 q 490 643 431 519 q 541 639 510 639 q 590 643 572 639 q 535 559 566 607 q 487 485 504 511 q 448 425 469 458 q 413 370 426 391 q 386 325 399 348 q 363 282 372 301 z "},"Ā":{"ha":873,"x_min":22,"x_max":851,"o":"m 616 1008 l 278 1008 q 260 1029 260 1008 q 270 1056 260 1042 q 290 1069 279 1069 l 631 1069 q 650 1050 650 1069 q 639 1022 650 1036 q 616 1008 629 1008 m 566 382 q 501 546 536 460 q 425 725 466 631 l 422 725 l 276 383 q 345 382 292 383 q 421 380 398 380 q 566 382 480 380 m 249 317 q 179 138 209 219 q 134 -4 149 56 q 71 0 117 0 q 22 -4 39 0 q 432 914 258 514 l 471 914 q 605 586 518 802 q 756 214 692 371 q 851 -4 821 57 q 768 0 827 0 q 699 -4 722 0 q 692 18 696 5 q 682 52 688 31 q 667 100 675 73 q 647 159 658 127 q 622 233 636 191 q 591 317 607 274 q 505 319 545 319 q 428 319 464 319 q 249 317 349 319 z "},"ā":{"ha":668,"x_min":62,"x_max":650,"o":"m 461 747 l 122 747 q 104 768 104 747 q 114 794 104 781 q 135 808 123 808 l 475 808 q 494 789 494 808 q 484 761 494 775 q 461 747 473 747 m 431 313 l 313 281 q 205 226 236 260 q 175 142 175 192 q 203 83 175 109 q 278 57 232 57 q 406 111 334 57 q 425 147 425 125 l 431 313 m 431 66 l 425 66 q 331 3 370 19 q 236 -14 293 -14 q 109 24 155 -14 q 62 136 62 61 q 124 260 62 207 q 293 338 186 314 l 422 367 q 432 383 432 370 q 422 460 432 428 q 400 509 412 493 q 367 534 387 525 q 332 545 346 543 q 298 547 318 547 q 146 429 219 547 l 127 431 l 104 524 l 109 529 q 313 610 204 610 q 542 385 542 610 q 541 351 542 380 q 540 289 541 322 q 538 222 539 256 q 538 175 538 189 q 561 66 538 87 q 602 56 572 56 q 639 64 618 56 l 650 29 q 539 -14 609 -14 q 471 7 500 -14 q 431 66 442 27 z "},"Ă":{"ha":873,"x_min":22,"x_max":851,"o":"m 633 1117 q 572 1003 628 1046 q 444 960 517 960 q 314 1002 366 960 q 256 1117 261 1044 l 294 1117 q 345 1055 302 1078 q 444 1032 387 1032 q 543 1055 498 1032 q 595 1117 587 1078 l 633 1117 m 566 382 q 501 546 536 460 q 425 725 466 631 l 422 725 l 276 383 q 345 382 292 383 q 421 380 398 380 q 566 382 480 380 m 249 317 q 179 138 209 219 q 134 -4 149 56 q 71 0 117 0 q 22 -4 39 0 q 432 914 258 514 l 471 914 q 605 586 518 802 q 756 214 692 371 q 851 -4 821 57 q 768 0 827 0 q 699 -4 722 0 q 692 18 696 5 q 682 52 688 31 q 667 100 675 73 q 647 159 658 127 q 622 233 636 191 q 591 317 607 274 q 505 319 545 319 q 428 319 464 319 q 249 317 349 319 z "},"ă":{"ha":694,"x_min":22,"x_max":669,"o":"m 205 917 q 258 826 216 861 q 355 791 300 791 q 453 825 411 791 q 505 917 496 859 l 543 900 q 476 763 531 814 q 355 713 421 713 q 232 762 281 713 q 168 900 182 811 l 205 917 m 203 221 q 123 -3 144 76 q 78 0 111 0 q 22 -3 35 0 q 317 659 176 332 l 396 659 q 492 423 429 579 q 601 154 554 267 q 669 -3 647 41 q 581 0 652 0 q 530 -3 547 0 q 455 221 506 83 q 414 222 428 222 q 377 223 400 222 q 335 224 353 224 q 271 223 310 224 q 203 221 233 222 m 435 276 q 406 350 421 312 q 372 432 390 388 q 334 522 353 476 l 330 522 q 299 449 320 498 q 260 357 278 399 q 226 277 241 314 q 277 275 240 277 q 330 273 315 273 q 380 274 351 273 q 435 276 409 275 z "},"Ą":{"ha":873,"x_min":22,"x_max":851,"o":"m 757 -227 q 619 -304 693 -304 q 539 -276 568 -304 q 510 -199 510 -248 q 688 35 510 -84 q 591 317 651 157 q 505 319 545 319 q 428 319 464 319 q 249 317 349 319 q 179 138 209 219 q 134 -4 149 56 q 71 0 117 0 q 22 -4 39 0 q 432 914 258 514 l 471 914 q 605 586 518 802 q 756 214 692 371 q 851 -4 821 57 q 768 0 827 0 q 735 -2 757 0 q 702 -3 713 -3 q 625 -97 649 -57 q 602 -183 602 -136 q 617 -225 602 -207 q 660 -243 633 -243 q 733 -201 694 -243 l 737 -203 l 757 -227 m 566 382 q 501 546 536 460 q 425 725 466 631 l 422 725 l 276 383 q 345 382 292 383 q 421 380 398 380 q 566 382 480 380 z "},"ą":{"ha":694,"x_min":22,"x_max":669,"o":"m 514 -311 q 421 -280 457 -311 q 385 -193 385 -249 q 402 -123 385 -159 q 453 -53 420 -86 q 529 3 486 -19 q 455 221 505 89 q 414 222 428 222 q 377 223 400 222 q 335 224 353 224 q 271 223 310 224 q 203 221 233 222 q 123 -3 144 76 q 78 0 111 0 q 22 -3 35 0 q 317 659 176 332 l 396 659 q 492 423 429 579 q 601 154 554 267 q 669 -3 647 41 q 657 -2 665 -2 q 639 -1 649 -1 q 517 -63 567 -7 q 468 -175 468 -119 q 490 -233 468 -210 q 549 -257 513 -257 q 644 -207 599 -257 l 667 -218 q 599 -288 643 -264 q 514 -311 555 -311 m 435 276 q 406 350 421 312 q 372 432 390 388 q 334 522 353 476 l 330 522 q 299 449 320 498 q 260 357 278 399 q 226 277 241 314 q 277 275 240 277 q 330 273 315 273 q 380 274 351 273 q 435 276 409 275 z "},"Ć":{"ha":940,"x_min":72,"x_max":864,"o":"m 593 1139 q 679 1067 652 1111 l 479 986 q 421 970 441 969 q 400 990 400 970 q 421 1019 400 1006 l 593 1139 m 528 914 q 679 899 603 914 q 792 867 754 884 l 831 851 l 833 847 q 806 693 810 747 l 791 692 q 509 848 713 848 q 414 827 463 848 q 319 763 366 806 q 244 642 273 720 q 215 464 215 564 q 249 268 215 358 q 358 117 283 178 q 534 57 432 57 q 693 87 630 57 q 831 200 755 118 l 864 174 q 522 -14 721 -14 q 274 54 379 -14 q 121 221 170 121 q 72 437 72 322 q 210 776 72 637 q 528 914 347 914 z "},"ć":{"ha":700,"x_min":61,"x_max":642,"o":"m 393 936 q 412 939 401 939 q 489 907 455 939 l 493 892 l 334 741 q 292 714 307 714 q 278 720 285 714 q 272 732 272 725 q 288 771 272 745 l 393 936 m 401 604 q 183 322 183 604 q 203 186 183 247 q 275 83 222 126 q 407 40 328 40 q 518 64 475 40 q 611 146 561 87 l 640 111 q 535 16 590 45 q 400 -14 481 -14 q 154 83 248 -14 q 61 309 61 180 q 158 556 61 458 q 397 653 254 653 q 467 649 435 653 q 520 642 500 646 q 562 631 541 639 q 592 620 583 624 q 617 606 600 615 q 639 595 635 596 l 642 590 l 610 476 l 591 475 q 561 523 574 504 q 525 563 547 542 q 471 594 503 583 q 401 604 440 604 z "},"Ĉ":{"ha":940,"x_min":72,"x_max":864,"o":"m 525 1120 q 665 989 582 1052 l 643 960 q 496 1046 557 1000 q 347 960 427 994 l 328 989 q 465 1120 387 1034 l 525 1120 m 528 914 q 679 899 603 914 q 792 867 754 884 l 831 851 l 833 847 q 806 693 810 747 l 791 692 q 509 848 713 848 q 414 827 463 848 q 319 763 366 806 q 244 642 273 720 q 215 464 215 564 q 249 268 215 358 q 358 117 283 178 q 534 57 432 57 q 693 87 630 57 q 831 200 755 118 l 864 174 q 522 -14 721 -14 q 274 54 379 -14 q 121 221 170 121 q 72 437 72 322 q 210 776 72 637 q 528 914 347 914 z "},"ĉ":{"ha":595,"x_min":52,"x_max":534,"o":"m 363 897 q 503 718 409 823 l 473 699 q 326 823 375 770 q 178 699 265 761 l 150 718 q 293 897 250 829 l 363 897 m 346 554 q 224 488 274 554 q 174 310 174 421 q 224 124 174 192 q 354 56 275 56 q 503 114 437 56 l 509 114 l 534 85 q 330 -14 456 -14 q 127 72 203 -14 q 52 302 52 158 q 142 524 52 437 q 347 610 232 610 q 532 571 457 610 l 534 567 l 503 453 l 485 452 q 346 554 425 554 z "},"Ċ":{"ha":940,"x_min":72,"x_max":864,"o":"m 444 1034 q 433 1045 444 1034 q 422 1084 422 1055 q 444 1135 422 1114 q 494 1157 465 1157 q 545 1135 524 1157 q 567 1084 567 1114 q 545 1034 567 1055 q 494 1013 524 1013 q 444 1034 465 1013 m 528 914 q 679 899 603 914 q 792 867 754 884 l 831 851 l 833 847 q 806 693 810 747 l 791 692 q 509 848 713 848 q 414 827 463 848 q 319 763 366 806 q 244 642 273 720 q 215 464 215 564 q 249 268 215 358 q 358 117 283 178 q 534 57 432 57 q 693 87 630 57 q 831 200 755 118 l 864 174 q 522 -14 721 -14 q 274 54 379 -14 q 121 221 170 121 q 72 437 72 322 q 210 776 72 637 q 528 914 347 914 z "},"ċ":{"ha":595,"x_min":53,"x_max":536,"o":"m 288 780 q 277 791 288 780 q 267 829 267 802 q 288 879 267 857 q 338 900 310 900 q 387 879 366 900 q 408 829 408 857 q 387 780 408 802 q 338 758 366 758 q 288 780 310 758 m 347 554 q 225 488 275 554 q 175 310 175 421 q 226 124 175 192 q 355 56 277 56 q 504 114 439 56 l 510 114 l 536 85 q 332 -14 458 -14 q 129 72 204 -14 q 53 302 53 158 q 143 524 53 437 q 349 610 233 610 q 533 571 458 610 l 536 567 l 504 453 l 486 452 q 347 554 427 554 z "},"Č":{"ha":940,"x_min":72,"x_max":864,"o":"m 463 968 q 322 1100 412 1030 l 345 1128 q 492 1043 428 1092 q 640 1128 571 1099 l 661 1100 q 522 968 592 1047 l 463 968 m 528 914 q 679 899 603 914 q 792 867 754 884 l 831 851 l 833 847 q 806 693 810 747 l 791 692 q 509 848 713 848 q 414 827 463 848 q 319 763 366 806 q 244 642 273 720 q 215 464 215 564 q 249 268 215 358 q 358 117 283 178 q 534 57 432 57 q 693 87 630 57 q 831 200 755 118 l 864 174 q 522 -14 721 -14 q 274 54 379 -14 q 121 221 170 121 q 72 437 72 322 q 210 776 72 637 q 528 914 347 914 z "},"č":{"ha":700,"x_min":61,"x_max":642,"o":"m 340 713 q 200 893 288 799 l 228 911 q 375 786 326 839 q 525 911 428 840 l 551 893 q 410 713 458 789 l 340 713 m 401 604 q 183 322 183 604 q 203 186 183 247 q 275 83 222 126 q 407 40 328 40 q 518 64 475 40 q 611 146 561 87 l 640 111 q 535 16 590 45 q 400 -14 481 -14 q 154 83 248 -14 q 61 309 61 180 q 158 556 61 458 q 397 653 254 653 q 467 649 435 653 q 520 642 500 646 q 562 631 541 639 q 592 620 583 624 q 617 606 600 615 q 639 595 635 596 l 642 590 l 610 476 l 591 475 q 561 523 574 504 q 525 563 547 542 q 471 594 503 583 q 401 604 440 604 z "},"Ď":{"ha":986,"x_min":131,"x_max":914,"o":"m 404 968 q 264 1100 354 1030 l 286 1128 q 433 1043 370 1092 q 582 1128 513 1099 l 603 1100 q 464 968 534 1047 l 404 968 m 264 114 q 290 69 264 79 q 415 58 317 58 q 555 72 496 58 q 665 121 614 86 q 744 224 717 155 q 771 395 771 293 q 751 555 771 481 q 689 696 732 629 q 567 801 646 762 q 380 839 489 839 q 293 828 322 839 q 264 783 264 817 l 264 114 m 204 896 q 319 898 249 896 q 433 900 389 900 q 774 761 633 900 q 914 428 914 623 q 885 252 914 330 q 810 129 856 175 q 703 52 765 82 q 582 9 642 21 q 458 -3 522 -3 q 314 -1 380 -3 q 204 0 248 0 l 132 -4 l 131 0 q 144 278 144 94 l 144 618 q 131 896 144 797 l 134 900 q 204 896 157 896 z "},"ď":{"ha":786,"x_min":106,"x_max":708,"o":"m 342 713 q 201 893 289 799 l 229 911 q 376 786 328 839 q 526 911 429 840 l 553 893 q 411 713 460 789 l 342 713 m 231 113 q 253 65 231 79 q 349 50 275 50 q 530 101 472 50 q 589 289 589 151 q 575 397 589 346 q 532 493 561 449 q 449 564 503 538 q 322 590 395 590 q 231 545 231 590 l 231 113 m 175 639 q 244 640 201 639 q 317 642 286 642 q 363 643 347 643 q 612 549 517 643 q 708 313 708 454 q 680 161 708 225 q 602 63 652 97 q 498 13 553 29 q 382 -3 444 -3 q 250 -1 317 -3 q 175 0 183 0 l 107 -4 l 106 0 q 119 249 119 83 l 119 390 q 106 639 119 555 l 107 643 q 175 639 126 639 z "},"Đ":{"ha":986,"x_min":24,"x_max":914,"o":"m 264 114 q 290 69 264 79 q 415 58 317 58 q 555 72 496 58 q 665 121 614 86 q 744 224 717 155 q 771 395 771 293 q 751 555 771 481 q 689 696 732 629 q 567 801 646 762 q 380 839 489 839 q 293 828 322 839 q 264 783 264 817 l 264 454 l 478 454 l 478 399 l 264 399 l 264 114 m 204 896 q 319 898 249 896 q 433 900 389 900 q 774 761 633 900 q 914 428 914 623 q 885 252 914 330 q 810 129 856 175 q 703 52 765 82 q 582 9 642 21 q 458 -3 522 -3 q 314 -1 380 -3 q 204 0 248 0 l 132 -4 l 131 0 q 144 278 144 94 l 144 399 l 24 399 l 24 454 l 144 454 l 144 618 q 131 896 144 797 l 134 900 q 204 896 157 896 z "},"đ":{"ha":786,"x_min":41,"x_max":708,"o":"m 332 343 l 332 289 l 231 289 l 231 113 q 253 65 231 79 q 349 50 275 50 q 530 101 472 50 q 589 289 589 151 q 575 397 589 346 q 532 493 561 449 q 449 564 503 538 q 322 590 395 590 q 231 545 231 590 l 231 343 l 332 343 m 175 639 q 244 640 201 639 q 317 642 286 642 q 363 643 347 643 q 612 549 517 643 q 708 313 708 454 q 680 161 708 225 q 602 63 652 97 q 498 13 553 29 q 382 -3 444 -3 q 250 -1 317 -3 q 175 0 183 0 l 107 -4 l 106 0 q 119 249 119 83 l 119 289 l 41 289 l 41 343 l 119 343 l 119 390 q 106 639 119 555 l 107 643 q 175 639 126 639 z "},"Ē":{"ha":747,"x_min":131,"x_max":669,"o":"m 534 1018 l 196 1018 q 178 1039 178 1018 q 188 1065 178 1051 q 208 1079 197 1079 l 549 1079 q 568 1060 568 1079 q 557 1032 568 1046 q 534 1018 547 1018 m 264 278 q 275 78 264 115 q 456 82 359 78 q 610 90 554 86 l 667 94 l 669 89 q 667 43 667 66 q 669 0 667 39 l 667 -4 q 583 0 633 0 l 204 0 l 132 -4 l 131 0 q 144 278 144 94 l 144 618 q 131 896 144 797 l 134 900 q 204 896 157 896 l 570 896 q 653 900 620 896 l 656 896 q 653 843 653 857 q 656 807 653 829 l 653 802 q 275 818 461 819 q 264 618 264 781 l 264 510 q 574 524 410 510 l 578 519 q 574 475 574 500 q 578 431 574 450 l 574 427 q 264 440 436 440 l 264 278 z "},"ē":{"ha":629,"x_min":47,"x_max":572,"o":"m 482 747 l 143 747 q 125 768 125 747 q 135 794 125 781 q 155 808 144 808 l 496 808 q 515 789 515 808 q 505 761 515 775 q 482 747 494 747 m 174 379 l 429 379 q 449 399 449 379 q 412 512 449 471 q 332 554 375 554 q 296 547 316 554 q 251 522 277 539 q 203 467 225 504 q 174 379 182 429 m 545 144 l 572 110 q 468 20 532 54 q 330 -14 404 -14 q 110 78 186 -14 q 47 290 47 153 q 136 522 47 435 q 332 610 224 610 q 514 531 456 610 q 572 347 572 452 q 547 323 572 323 l 170 323 q 203 147 170 200 q 354 68 253 68 q 545 144 474 68 z "},"Ĕ":{"ha":747,"x_min":131,"x_max":669,"o":"m 578 1116 q 517 1002 572 1045 q 389 958 461 958 q 258 1001 311 958 q 200 1116 205 1043 l 239 1116 q 289 1054 247 1077 q 389 1031 332 1031 q 487 1054 443 1031 q 539 1116 532 1076 l 578 1116 m 264 278 q 275 78 264 115 q 456 82 359 78 q 610 90 554 86 l 667 94 l 669 89 q 667 43 667 66 q 669 0 667 39 l 667 -4 q 583 0 633 0 l 204 0 l 132 -4 l 131 0 q 144 278 144 94 l 144 618 q 131 896 144 797 l 134 900 q 204 896 157 896 l 570 896 q 653 900 620 896 l 656 896 q 653 843 653 857 q 656 807 653 829 l 653 802 q 275 818 461 819 q 264 618 264 781 l 264 510 q 574 524 410 510 l 578 519 q 574 475 574 500 q 578 431 574 450 l 574 427 q 264 440 436 440 l 264 278 z "},"ĕ":{"ha":629,"x_min":47,"x_max":572,"o":"m 167 900 q 219 810 178 844 q 317 775 261 775 q 415 808 372 775 q 467 900 457 842 l 504 884 q 437 747 492 798 q 317 696 382 696 q 193 745 243 696 q 129 884 143 794 l 167 900 m 174 379 l 429 379 q 449 399 449 379 q 412 512 449 471 q 332 554 375 554 q 296 547 316 554 q 251 522 277 539 q 203 467 225 504 q 174 379 182 429 m 545 144 l 572 110 q 468 20 532 54 q 330 -14 404 -14 q 110 78 186 -14 q 47 290 47 153 q 136 522 47 435 q 332 610 224 610 q 514 531 456 610 q 572 347 572 452 q 547 323 572 323 l 170 323 q 203 147 170 200 q 354 68 253 68 q 545 144 474 68 z "},"Ė":{"ha":747,"x_min":131,"x_max":669,"o":"m 333 1034 q 322 1045 333 1034 q 311 1084 311 1055 q 333 1135 311 1114 q 383 1157 354 1157 q 434 1135 412 1157 q 456 1084 456 1114 q 434 1034 456 1055 q 383 1013 412 1013 q 333 1034 354 1013 m 264 278 q 275 78 264 115 q 456 82 359 78 q 610 90 554 86 l 667 94 l 669 89 q 667 43 667 66 q 669 0 667 39 l 667 -4 q 583 0 633 0 l 204 0 l 132 -4 l 131 0 q 144 278 144 94 l 144 618 q 131 896 144 797 l 134 900 q 204 896 157 896 l 570 896 q 653 900 620 896 l 656 896 q 653 843 653 857 q 656 807 653 829 l 653 802 q 275 818 461 819 q 264 618 264 781 l 264 510 q 574 524 410 510 l 578 519 q 574 475 574 500 q 578 431 574 450 l 574 427 q 264 440 436 440 l 264 278 z "},"ė":{"ha":629,"x_min":47,"x_max":572,"o":"m 270 780 q 260 791 270 780 q 249 829 249 802 q 270 879 249 857 q 319 900 292 900 q 369 879 347 900 q 390 829 390 857 q 369 780 390 802 q 319 758 347 758 q 270 780 292 758 m 174 379 l 429 379 q 449 399 449 379 q 412 512 449 471 q 332 554 375 554 q 296 547 316 554 q 251 522 277 539 q 203 467 225 504 q 174 379 182 429 m 545 144 l 572 110 q 468 20 532 54 q 330 -14 404 -14 q 110 78 186 -14 q 47 290 47 153 q 136 522 47 435 q 332 610 224 610 q 514 531 456 610 q 572 347 572 452 q 547 323 572 323 l 170 323 q 203 147 170 200 q 354 68 253 68 q 545 144 474 68 z "},"Ę":{"ha":747,"x_min":131,"x_max":669,"o":"m 478 -311 q 385 -280 421 -311 q 349 -193 349 -249 q 359 -142 349 -169 q 387 -89 369 -115 q 431 -40 405 -64 q 488 0 457 -17 l 204 0 l 132 -4 l 131 0 q 144 278 144 94 l 144 618 q 131 896 144 797 l 134 900 q 204 896 157 896 l 570 896 q 653 900 620 896 l 656 896 q 653 843 653 857 q 656 807 653 829 l 653 802 q 275 818 461 819 q 264 618 264 781 l 264 510 q 574 524 410 510 l 578 519 q 574 475 574 500 q 578 431 574 450 l 574 427 q 264 440 436 440 l 264 278 q 275 78 264 115 q 456 82 359 78 q 610 90 554 86 l 667 94 l 669 89 q 667 43 667 66 q 669 0 667 39 l 667 -4 q 608 0 642 -1 q 483 -62 534 -5 q 432 -175 432 -119 q 454 -233 432 -210 q 513 -257 476 -257 q 610 -207 563 -257 l 631 -218 q 563 -288 607 -264 q 478 -311 519 -311 z "},"ę":{"ha":654,"x_min":106,"x_max":559,"o":"m 403 -311 q 310 -280 346 -311 q 273 -193 273 -249 q 312 -89 273 -143 q 412 0 351 -35 l 178 0 l 107 -4 l 106 0 q 119 249 119 83 l 119 390 q 106 639 119 555 l 107 643 q 178 639 130 639 l 460 639 q 543 643 510 639 l 546 639 q 543 596 543 600 q 546 567 543 589 l 543 561 q 241 578 428 578 q 231 389 231 541 l 231 363 q 341 364 306 363 q 409 370 376 366 q 464 376 441 375 l 468 372 q 464 333 464 353 q 468 294 464 314 l 464 290 q 231 304 326 304 l 231 250 q 241 68 231 106 q 404 72 325 68 q 519 81 482 77 l 557 85 l 559 79 q 557 36 557 57 q 557 26 557 31 q 559 14 558 21 q 559 0 559 7 l 557 -4 q 523 -1 542 -2 q 405 -65 453 -10 q 357 -175 357 -121 q 379 -233 357 -210 q 437 -257 401 -257 q 534 -207 488 -257 l 554 -218 q 488 -288 532 -264 q 403 -311 444 -311 z "},"Ě":{"ha":747,"x_min":131,"x_max":669,"o":"m 372 968 q 232 1100 322 1030 l 254 1128 q 401 1043 338 1092 q 550 1128 481 1099 l 571 1100 q 432 968 502 1047 l 372 968 m 264 278 q 275 78 264 115 q 456 82 359 78 q 610 90 554 86 l 667 94 l 669 89 q 667 43 667 66 q 669 0 667 39 l 667 -4 q 583 0 633 0 l 204 0 l 132 -4 l 131 0 q 144 278 144 94 l 144 618 q 131 896 144 797 l 134 900 q 204 896 157 896 l 570 896 q 653 900 620 896 l 656 896 q 653 843 653 857 q 656 807 653 829 l 653 802 q 275 818 461 819 q 264 618 264 781 l 264 510 q 574 524 410 510 l 578 519 q 574 475 574 500 q 578 431 574 450 l 574 427 q 264 440 436 440 l 264 278 z "},"ě":{"ha":654,"x_min":106,"x_max":559,"o":"m 309 707 q 168 888 256 793 l 196 905 q 343 781 294 833 q 493 905 396 835 l 519 888 q 378 707 427 783 l 309 707 m 178 639 l 460 639 q 543 643 510 639 l 546 639 q 543 596 543 600 q 546 567 543 589 l 543 561 q 241 578 428 578 q 231 389 231 541 l 231 363 q 341 364 306 363 q 409 370 376 366 q 464 376 441 375 l 468 372 q 464 333 464 353 q 468 294 464 314 l 464 290 q 231 304 326 304 l 231 250 q 241 68 231 106 q 404 72 325 68 q 519 81 482 77 l 557 85 l 559 79 q 557 36 557 57 q 557 26 557 31 q 559 14 558 21 q 559 0 559 7 l 557 -4 q 473 0 524 0 l 178 0 l 107 -4 l 106 0 q 119 249 119 83 l 119 390 q 106 639 119 555 l 107 643 q 178 639 129 639 z "},"Ĝ":{"ha":996,"x_min":72,"x_max":892,"o":"m 534 1118 q 675 987 591 1050 l 653 958 q 505 1044 567 998 q 357 958 436 993 l 338 987 q 475 1118 397 1032 l 534 1118 m 758 163 q 745 427 754 355 l 747 431 q 818 427 771 427 q 890 431 818 427 l 892 427 q 878 191 878 335 l 878 182 q 892 115 878 132 l 892 111 q 522 -14 743 -14 q 196 120 319 -14 q 72 440 72 253 q 114 643 72 551 q 225 792 155 734 q 380 882 294 850 q 557 914 467 914 q 711 899 632 914 q 832 867 790 884 l 873 851 l 876 847 q 848 679 854 753 l 835 677 q 709 803 787 757 q 538 848 631 848 q 305 742 395 848 q 215 454 215 635 q 234 313 215 382 q 291 184 253 244 q 397 87 329 123 q 554 50 465 50 q 758 103 703 50 l 758 163 z "},"ĝ":{"ha":692,"x_min":45,"x_max":657,"o":"m 354 896 q 494 717 400 822 l 465 697 q 318 822 367 769 q 170 697 257 760 l 142 717 q 285 896 241 828 l 354 896 m 140 -144 q 177 -218 140 -187 q 253 -260 214 -249 q 322 -271 293 -271 q 487 -236 418 -271 q 555 -140 555 -201 q 501 -40 555 -73 q 354 -17 461 -16 q 301 -19 347 -17 q 231 -21 254 -21 q 167 -77 193 -42 q 140 -144 140 -111 m 542 401 q 482 250 542 310 q 311 189 422 189 q 208 208 245 189 q 167 131 167 172 q 188 78 167 91 q 248 65 210 65 q 288 68 249 65 q 403 75 340 75 q 599 29 545 75 q 657 -109 657 -21 q 600 -231 657 -179 q 460 -307 543 -283 q 283 -330 378 -330 q 176 -317 227 -330 q 85 -267 125 -304 q 45 -172 45 -229 q 77 -81 45 -130 q 190 -13 94 -67 q 195 -10 193 -12 q 115 32 141 -1 q 89 110 89 64 q 175 225 89 165 q 77 399 77 282 q 150 553 77 496 q 313 610 222 610 q 397 597 359 610 q 526 611 456 601 q 616 624 595 622 l 621 619 q 616 583 616 600 q 621 547 616 567 l 616 543 q 472 557 487 557 q 542 401 542 511 m 433 395 q 307 557 433 557 q 216 516 248 557 q 184 406 184 476 q 215 284 184 325 q 318 244 245 244 q 407 283 380 244 q 433 395 433 323 z "},"Ğ":{"ha":996,"x_min":72,"x_max":892,"o":"m 705 1120 q 644 1006 700 1049 q 517 962 589 962 q 386 1005 439 962 q 328 1120 334 1047 l 367 1120 q 417 1058 375 1081 q 517 1035 460 1035 q 615 1058 571 1035 q 667 1120 660 1080 l 705 1120 m 758 163 q 745 427 754 355 l 747 431 q 818 427 771 427 l 890 431 l 892 427 q 878 191 878 335 l 878 182 q 892 115 878 132 l 892 111 q 522 -14 743 -14 q 196 120 319 -14 q 72 440 72 253 q 114 643 72 551 q 225 792 155 734 q 380 882 294 850 q 557 914 467 914 q 711 899 632 914 q 832 867 790 884 l 873 851 l 876 847 q 848 679 854 753 l 835 677 q 709 803 787 757 q 538 848 631 848 q 305 742 395 848 q 215 454 215 635 q 234 313 215 382 q 291 184 253 244 q 397 87 329 123 q 554 50 465 50 q 758 103 703 50 l 758 163 z "},"ğ":{"ha":764,"x_min":61,"x_max":684,"o":"m 250 917 q 303 826 261 861 q 400 791 345 791 q 498 825 456 791 q 550 917 541 859 l 587 900 q 520 763 575 814 q 400 713 465 713 q 276 762 326 713 q 212 900 227 811 l 250 917 m 555 92 q 542 293 555 195 l 545 297 q 610 293 563 293 l 679 297 l 681 293 q 667 119 667 201 l 667 118 q 684 86 667 102 q 404 -14 539 -14 q 159 77 257 -14 q 61 302 61 168 q 163 558 61 464 q 422 653 265 653 q 482 651 454 653 q 532 646 510 650 q 569 638 554 642 q 601 628 585 635 q 624 618 616 621 q 645 607 631 615 q 664 597 660 599 l 667 593 l 635 479 l 616 478 q 575 540 594 517 q 517 584 555 564 q 427 604 478 604 q 249 526 317 604 q 182 321 182 447 q 196 227 182 275 q 239 135 211 179 q 318 63 268 92 q 429 35 368 35 q 555 86 505 35 l 555 92 z "},"Ġ":{"ha":996,"x_min":72,"x_max":892,"o":"m 472 1034 q 461 1045 472 1034 q 450 1084 450 1055 q 472 1135 450 1114 q 522 1157 493 1157 q 573 1135 551 1157 q 595 1084 595 1114 q 573 1034 595 1055 q 522 1013 551 1013 q 472 1034 493 1013 m 758 163 q 745 427 754 355 l 747 431 q 818 427 771 427 q 890 431 818 427 l 892 427 q 878 191 878 335 l 878 182 q 892 115 878 132 l 892 111 q 522 -14 743 -14 q 196 120 319 -14 q 72 440 72 253 q 114 643 72 551 q 225 792 155 734 q 380 882 294 850 q 557 914 467 914 q 711 899 632 914 q 832 867 790 884 l 873 851 l 876 847 q 848 679 854 753 l 835 677 q 709 803 787 757 q 538 848 631 848 q 305 742 395 848 q 215 454 215 635 q 234 313 215 382 q 291 184 253 244 q 397 87 329 123 q 554 50 465 50 q 758 103 703 50 l 758 163 z "},"ġ":{"ha":692,"x_min":45,"x_max":657,"o":"m 262 780 q 251 791 262 780 q 240 829 240 802 q 262 879 240 857 q 311 900 283 900 q 360 879 339 900 q 382 829 382 857 q 360 780 382 802 q 311 758 339 758 q 262 780 283 758 m 140 -144 q 177 -218 140 -187 q 253 -260 214 -249 q 322 -271 293 -271 q 487 -236 418 -271 q 555 -140 555 -201 q 501 -40 555 -73 q 354 -17 461 -16 q 301 -19 347 -17 q 231 -21 254 -21 q 167 -77 193 -42 q 140 -144 140 -111 m 542 401 q 482 250 542 310 q 311 189 422 189 q 208 208 245 189 q 167 131 167 172 q 188 78 167 91 q 248 65 210 65 q 288 68 249 65 q 403 75 340 75 q 599 29 545 75 q 657 -109 657 -21 q 600 -231 657 -179 q 460 -307 543 -283 q 283 -330 378 -330 q 176 -317 227 -330 q 85 -267 125 -304 q 45 -172 45 -229 q 77 -81 45 -130 q 190 -13 94 -67 q 195 -10 193 -12 q 115 32 141 -1 q 89 110 89 64 q 175 225 89 165 q 77 399 77 282 q 150 553 77 496 q 313 610 222 610 q 397 597 359 610 q 526 611 456 601 q 616 624 595 622 l 621 619 q 616 583 616 600 q 621 547 616 567 l 616 543 q 472 557 487 557 q 542 401 542 511 m 433 395 q 307 557 433 557 q 216 516 248 557 q 184 406 184 476 q 215 284 184 325 q 318 244 245 244 q 407 283 380 244 q 433 395 433 323 z "},"Ģ":{"ha":996,"x_min":72,"x_max":892,"o":"m 521 -86 q 583 -119 559 -86 q 607 -205 607 -151 q 566 -299 607 -264 q 460 -343 525 -334 q 449 -310 449 -332 q 525 -278 498 -299 q 553 -236 553 -257 q 510 -200 553 -204 q 452 -146 452 -191 q 471 -103 452 -121 q 521 -86 490 -86 m 758 163 q 745 427 754 355 l 747 431 q 818 427 771 427 l 890 431 l 892 427 q 878 191 878 335 l 878 182 q 892 115 878 132 l 892 111 q 522 -14 743 -14 q 196 120 319 -14 q 72 440 72 253 q 114 643 72 551 q 225 792 155 734 q 380 882 294 850 q 557 914 467 914 q 711 899 632 914 q 832 867 790 884 l 873 851 l 876 847 q 848 679 854 753 l 835 677 q 709 803 787 757 q 538 848 631 848 q 305 742 395 848 q 215 454 215 635 q 234 313 215 382 q 291 184 253 244 q 397 87 329 123 q 554 50 465 50 q 758 103 703 50 l 758 163 z "},"ģ":{"ha":692,"x_min":45,"x_max":657,"o":"m 317 710 q 254 741 278 710 q 231 811 231 771 q 262 903 231 863 q 378 962 302 953 q 385 935 385 956 q 304 897 330 924 q 278 842 278 869 q 279 829 278 833 q 283 824 279 825 q 289 822 286 822 q 301 823 292 822 q 318 823 310 823 q 371 806 355 823 q 387 766 387 789 q 369 728 387 747 q 317 710 350 710 m 140 -144 q 177 -218 140 -187 q 253 -260 214 -249 q 322 -271 293 -271 q 487 -236 418 -271 q 555 -140 555 -201 q 501 -40 555 -73 q 354 -17 461 -16 q 301 -19 347 -17 q 231 -21 254 -21 q 167 -77 193 -42 q 140 -144 140 -111 m 542 401 q 482 250 542 310 q 311 189 422 189 q 208 208 245 189 q 167 131 167 172 q 188 78 167 91 q 248 65 210 65 q 288 68 249 65 q 403 75 340 75 q 599 29 545 75 q 657 -109 657 -21 q 600 -231 657 -179 q 460 -307 543 -283 q 283 -330 378 -330 q 176 -317 227 -330 q 85 -267 125 -304 q 45 -172 45 -229 q 77 -81 45 -130 q 190 -13 94 -67 q 195 -10 193 -12 q 115 32 141 -1 q 89 110 89 64 q 175 225 89 165 q 77 399 77 282 q 150 553 77 496 q 313 610 222 610 q 397 597 359 610 q 526 611 456 601 q 616 624 595 622 l 621 619 q 616 583 616 600 q 621 547 616 567 l 616 543 q 472 557 487 557 q 542 401 542 511 m 433 395 q 307 557 433 557 q 216 516 248 557 q 184 406 184 476 q 215 284 184 325 q 318 244 245 244 q 407 283 380 244 q 433 395 433 323 z "},"Ĥ":{"ha":1008,"x_min":131,"x_max":878,"o":"m 745 618 q 730 896 745 797 l 733 900 q 804 896 758 896 q 876 900 852 896 l 878 896 q 864 618 864 804 l 864 278 q 878 0 864 99 l 875 -4 q 804 0 850 0 q 732 -4 757 0 l 730 0 q 745 278 744 94 l 745 446 l 264 446 l 264 278 q 278 0 264 99 l 275 -4 q 204 0 250 0 q 132 -4 157 0 l 131 0 q 144 278 144 94 l 144 618 q 131 896 144 797 l 134 900 q 204 896 159 896 q 277 900 252 896 l 278 896 q 264 618 264 804 l 264 507 l 745 507 l 745 618 m 511 1116 q 652 985 568 1048 l 629 956 q 482 1042 543 996 q 334 956 413 990 l 314 985 q 452 1116 374 1029 l 511 1116 z "},"ĥ":{"ha":762,"x_min":113,"x_max":661,"o":"m 397 1156 q 538 1025 454 1088 l 515 996 q 368 1082 429 1036 q 220 996 299 1030 l 200 1025 q 338 1156 260 1069 l 397 1156 m 236 489 l 239 485 q 479 610 346 610 q 611 555 571 610 q 652 390 652 501 q 650 320 652 368 q 648 250 648 272 q 661 0 648 89 l 659 -4 q 593 0 633 0 q 528 -4 553 0 l 525 0 q 538 250 537 85 l 538 386 q 515 497 538 468 q 437 526 493 526 q 340 498 396 526 q 236 412 285 471 l 236 250 q 249 0 236 96 l 245 -4 q 180 0 220 0 q 115 -4 140 0 l 113 0 q 125 250 125 90 l 125 668 q 113 937 125 868 l 115 942 q 236 970 178 946 q 249 956 248 970 q 236 696 237 795 l 236 489 z "},"Ħ":{"ha":1008,"x_min":57,"x_max":911,"o":"m 267 758 l 742 758 q 730 896 739 838 l 733 900 q 804 896 758 896 q 876 900 852 896 l 878 896 q 866 758 869 842 l 911 758 l 911 711 l 865 711 q 864 618 864 669 l 864 278 q 878 0 864 99 l 875 -4 q 804 0 850 0 q 732 -4 757 0 l 730 0 q 745 278 744 94 l 745 446 l 264 446 l 264 278 q 278 0 264 99 l 275 -4 q 204 0 250 0 q 132 -4 157 0 l 131 0 q 144 278 144 94 l 144 618 q 144 711 144 669 l 57 711 l 57 758 l 142 758 q 138 831 140 797 q 131 896 135 865 l 134 900 q 204 896 159 896 q 277 900 252 896 l 278 896 q 267 758 270 842 m 265 711 q 264 618 264 669 l 264 507 l 745 507 l 745 618 q 743 711 745 669 l 265 711 z "},"ħ":{"ha":762,"x_min":36,"x_max":661,"o":"m 236 489 l 239 485 q 479 610 346 610 q 611 555 571 610 q 652 390 652 501 q 650 320 652 368 q 648 250 648 272 q 661 0 648 89 l 659 -4 q 593 0 633 0 q 528 -4 553 0 l 525 0 q 538 250 537 85 l 538 386 q 515 497 538 468 q 437 526 493 526 q 340 498 396 526 q 236 412 285 471 l 236 250 q 249 0 236 96 l 245 -4 q 180 0 220 0 q 115 -4 140 0 l 113 0 q 125 250 125 90 l 125 668 q 125 736 125 713 l 36 736 l 36 790 l 123 790 q 113 937 121 888 l 115 942 q 236 970 178 946 q 249 956 248 970 q 238 790 240 846 l 473 790 l 473 736 l 237 736 q 236 696 237 710 l 236 489 z "},"Ĩ":{"ha":408,"x_min":12,"x_max":399,"o":"m 296 1029 q 335 1045 319 1029 q 366 1101 351 1060 l 399 1093 q 278 968 374 968 q 189 1004 243 968 q 114 1035 139 1035 q 72 1019 87 1035 q 46 968 57 1003 l 12 975 q 54 1068 28 1038 q 124 1099 79 1099 q 224 1060 168 1099 q 296 1029 264 1029 m 144 618 q 131 896 144 797 l 134 900 q 204 896 159 896 q 275 900 250 896 l 278 896 q 264 618 264 804 l 264 278 q 278 0 264 99 l 275 -4 q 204 0 250 0 q 134 -4 158 0 l 131 0 q 144 278 144 94 l 144 618 z "},"ĩ":{"ha":361,"x_min":16,"x_max":363,"o":"m 271 791 q 307 807 293 791 q 334 864 321 822 l 363 856 q 255 730 341 731 q 217 740 236 730 q 175 766 198 749 q 107 798 130 797 q 90 795 98 798 q 75 787 81 792 q 64 774 69 782 q 54 755 58 766 q 46 730 50 745 l 16 737 q 53 831 30 800 q 116 861 77 861 q 206 822 156 861 q 271 791 243 791 m 125 326 q 113 596 125 511 l 115 600 q 236 602 175 596 q 247 600 244 602 q 249 587 249 597 q 236 349 237 471 l 236 250 q 249 0 236 99 l 245 -4 q 180 0 220 0 q 115 -4 140 0 l 113 0 q 125 250 125 93 l 125 326 z "},"Ī":{"ha":408,"x_min":11,"x_max":401,"o":"m 368 1018 l 29 1018 q 11 1039 11 1018 q 21 1065 11 1051 q 41 1079 31 1079 l 382 1079 q 401 1060 401 1079 q 391 1032 401 1046 q 368 1018 380 1018 m 144 618 q 131 896 144 797 l 134 900 q 204 896 159 896 q 275 900 250 896 l 278 896 q 264 618 264 804 l 264 278 q 278 0 264 99 l 275 -4 q 204 0 250 0 q 134 -4 158 0 l 131 0 q 144 278 144 94 l 144 618 z "},"ī":{"ha":361,"x_min":12,"x_max":363,"o":"m 333 747 l 28 747 q 21 749 24 747 q 16 754 18 751 q 13 761 14 757 q 12 768 12 764 q 16 786 12 777 q 26 802 20 795 q 39 808 33 808 l 346 808 q 363 789 363 808 q 354 761 363 775 q 333 747 345 747 m 125 326 q 113 596 125 511 l 115 600 q 236 602 175 596 q 247 600 244 602 q 249 587 249 597 q 236 349 237 471 l 236 250 q 249 0 236 99 l 245 -4 q 180 0 220 0 q 115 -4 140 0 l 113 0 q 125 250 125 93 l 125 326 z "},"Ĭ":{"ha":408,"x_min":18,"x_max":396,"o":"m 396 1118 q 335 1004 391 1048 q 207 961 279 961 q 76 1003 129 961 q 18 1118 24 1046 l 57 1118 q 107 1057 65 1080 q 207 1034 150 1034 q 306 1056 261 1034 q 357 1118 350 1079 l 396 1118 m 144 618 q 131 896 144 797 l 134 900 q 204 896 159 896 q 275 900 250 896 l 278 896 q 264 618 264 804 l 264 278 q 278 0 264 99 l 275 -4 q 204 0 250 0 q 134 -4 158 0 l 131 0 q 144 278 144 94 l 144 618 z "},"ĭ":{"ha":361,"x_min":21,"x_max":358,"o":"m 54 903 q 80 838 61 866 q 127 794 99 810 q 189 778 156 778 q 277 811 239 778 q 324 903 315 844 l 358 886 q 298 750 347 801 q 189 699 248 699 q 79 748 123 699 q 21 886 34 798 l 54 903 m 125 326 q 113 596 125 511 l 115 600 q 236 602 175 596 q 247 600 244 602 q 249 587 249 597 q 236 349 237 471 l 236 250 q 249 0 236 99 l 245 -4 q 180 0 220 0 q 115 -4 140 0 l 113 0 q 125 250 125 93 l 125 326 z "},"Į":{"ha":408,"x_min":-1,"x_max":281,"o":"m 127 -313 q 35 -281 71 -313 q -1 -195 -1 -250 q 36 -92 -1 -146 q 133 -4 73 -39 l 131 0 q 144 278 144 94 l 144 618 q 131 896 144 797 l 134 900 q 204 896 159 896 q 275 900 250 896 l 278 896 q 264 618 264 804 l 264 278 q 278 0 264 99 l 275 -4 q 255 -2 266 -3 q 165 -36 206 -6 q 103 -103 124 -65 q 82 -176 82 -142 q 104 -235 82 -211 q 163 -258 126 -258 q 260 -208 214 -258 l 281 -220 q 213 -289 257 -266 q 127 -313 169 -313 z "},"į":{"ha":361,"x_min":-32,"x_max":253,"o":"m 97 -313 q 4 -281 40 -313 q -32 -195 -32 -250 q -14 -124 -32 -161 q 37 -54 3 -87 q 113 2 70 -20 q 125 250 125 96 l 125 326 q 113 596 125 511 l 115 600 q 236 602 175 596 q 247 600 244 602 q 249 587 249 597 q 236 349 237 471 l 236 250 q 249 0 236 99 l 245 -4 q 225 -2 237 -3 q 102 -64 152 -7 q 52 -176 52 -120 q 74 -235 52 -211 q 132 -258 96 -258 q 228 -208 182 -258 l 250 -220 q 182 -289 227 -266 q 97 -313 138 -313 m 133 780 q 122 791 133 780 q 111 829 111 802 q 133 879 111 857 q 182 900 154 900 q 231 879 210 900 q 253 829 253 857 q 231 780 253 802 q 182 758 210 758 q 133 780 154 758 z "},"İ":{"ha":408,"x_min":131,"x_max":279,"o":"m 156 1034 q 146 1045 156 1034 q 135 1084 135 1055 q 156 1135 135 1114 q 207 1157 178 1157 q 258 1135 236 1157 q 279 1084 279 1114 q 258 1034 279 1055 q 207 1013 236 1013 q 156 1034 178 1013 m 144 618 q 131 896 144 797 l 134 900 q 204 896 159 896 q 275 900 250 896 l 278 896 q 264 618 264 804 l 264 278 q 278 0 264 99 l 275 -4 q 204 0 250 0 q 134 -4 158 0 l 131 0 q 144 278 144 94 l 144 618 z "},"ı":{"ha":361,"x_min":113,"x_max":249,"o":"m 125 326 q 113 596 125 511 l 115 600 q 236 602 175 596 q 247 600 244 602 q 249 587 249 597 q 236 349 237 471 l 236 250 q 249 0 236 99 l 245 -4 q 180 0 220 0 q 115 -4 140 0 l 113 0 q 125 250 125 93 l 125 326 z "},"Ĳ":{"ha":817,"x_min":131,"x_max":707,"o":"m 574 132 l 574 618 q 559 896 574 797 l 562 900 q 633 896 587 896 q 705 900 681 896 l 707 896 q 693 618 693 804 l 693 163 q 677 -8 693 45 q 606 -134 661 -61 q 386 -239 524 -239 q 323 -227 343 -239 l 322 -222 q 361 -109 339 -193 l 376 -107 q 457 -155 403 -156 q 521 -130 496 -155 q 556 -56 546 -104 q 570 34 567 -7 q 574 132 574 74 m 144 618 q 131 896 144 797 l 134 900 q 204 896 159 896 q 275 900 250 896 l 278 896 q 264 618 264 804 l 264 278 q 278 0 264 99 l 275 -4 q 204 0 250 0 q 134 -4 158 0 l 131 0 q 144 278 144 94 l 144 618 z "},"ĳ":{"ha":699,"x_min":103,"x_max":591,"o":"m 467 132 l 467 366 q 453 643 467 545 l 456 647 q 524 643 477 643 q 590 647 524 643 l 591 643 q 578 366 578 551 l 578 163 q 564 -11 578 42 q 496 -135 550 -64 q 277 -240 416 -241 q 214 -228 234 -240 l 212 -224 q 252 -110 229 -195 l 267 -109 q 347 -157 293 -157 q 412 -131 386 -157 q 449 -56 437 -104 q 463 34 460 -8 q 467 132 467 75 m 117 390 q 103 639 117 555 l 104 643 q 172 639 124 639 l 239 643 l 241 639 q 228 390 228 533 l 228 249 q 241 0 228 87 l 239 -4 q 172 0 219 0 l 104 -4 l 103 0 q 117 249 117 83 l 117 390 z "},"Ĵ":{"ha":444,"x_min":-57,"x_max":416,"o":"m 277 1118 q 416 987 334 1050 l 395 958 q 248 1044 309 998 q 98 958 178 993 l 79 987 q 216 1118 139 1032 l 277 1118 m 195 132 l 195 618 q 180 896 195 797 l 183 900 q 254 896 208 896 q 326 900 302 896 l 328 896 q 314 618 314 804 l 314 163 q 298 -8 314 45 q 227 -134 282 -61 q 7 -239 144 -239 q -56 -227 -36 -239 l -57 -222 q -18 -109 -40 -193 l -3 -107 q 78 -155 24 -156 q 142 -130 117 -155 q 177 -56 167 -104 q 191 34 187 -7 q 195 132 195 74 z "},"ĵ":{"ha":378,"x_min":-57,"x_max":385,"o":"m 244 895 q 385 715 290 821 l 355 696 q 208 821 257 768 q 60 696 147 758 l 32 715 q 175 895 132 827 l 244 895 m 253 349 l 253 167 q 239 -60 253 16 q 192 -187 225 -135 q 4 -300 120 -300 q -56 -288 -36 -300 l -57 -283 q -52 -160 -52 -262 l -29 -154 q 54 -216 5 -216 q 124 -126 107 -216 q 142 134 142 -36 l 142 326 q 129 596 142 511 l 132 600 q 253 602 192 596 q 263 600 261 602 q 265 587 265 597 q 253 349 253 471 z "},"Ķ":{"ha":873,"x_min":131,"x_max":843,"o":"m 493 -54 q 555 -87 532 -54 q 579 -174 579 -119 q 538 -267 579 -232 q 432 -311 497 -301 q 421 -278 421 -300 q 497 -246 470 -267 q 525 -204 525 -225 q 482 -168 525 -172 q 424 -114 424 -159 q 443 -72 424 -89 q 493 -54 463 -54 m 144 618 q 131 896 144 797 l 134 900 q 204 896 159 896 q 275 900 250 896 l 278 896 q 264 618 264 804 l 264 478 q 294 490 282 480 q 690 900 457 632 q 758 896 709 896 q 829 900 807 896 q 407 492 543 648 l 407 489 l 843 -4 q 757 0 817 0 q 671 -4 694 0 q 290 447 366 371 q 282 452 287 450 q 272 455 277 454 q 264 456 268 456 l 264 278 q 278 0 264 99 l 275 -4 q 204 0 250 0 q 134 -4 158 0 l 131 0 q 144 278 144 94 l 144 618 z "},"ķ":{"ha":699,"x_min":113,"x_max":689,"o":"m 370 -50 q 432 -83 408 -50 q 456 -170 456 -115 q 415 -262 456 -228 q 309 -307 374 -297 q 297 -273 298 -296 q 374 -242 346 -262 q 401 -200 401 -221 q 358 -164 401 -168 q 300 -110 300 -155 q 319 -67 300 -85 q 370 -50 339 -50 m 125 278 l 125 669 q 113 937 125 868 l 115 942 q 236 970 178 946 q 249 956 248 970 q 236 694 237 787 l 236 334 q 268 340 252 335 q 297 354 285 345 q 407 459 340 387 q 517 596 473 532 q 657 600 631 596 l 660 596 q 379 330 524 481 q 490 205 439 260 q 599 92 541 150 q 689 0 657 35 l 686 -4 q 603 0 665 0 q 511 -4 547 0 q 429 113 450 83 q 372 187 408 143 q 293 277 336 231 q 236 292 277 290 l 236 278 q 249 0 236 92 l 245 -4 q 180 0 220 0 q 115 -4 140 0 l 113 0 q 125 278 125 89 z "},"ĸ":{"ha":688,"x_min":102,"x_max":686,"o":"m 228 329 q 285 350 258 329 q 396 457 328 382 q 510 596 465 532 q 650 600 624 596 l 653 596 q 379 325 584 538 q 489 200 437 254 q 596 91 541 146 q 686 0 652 36 l 684 -4 q 600 0 663 0 q 509 -4 545 0 q 437 89 474 45 q 384 152 400 134 q 318 220 368 170 q 258 282 268 271 q 228 294 245 294 l 228 329 m 114 326 q 102 596 114 511 l 104 600 q 225 602 164 596 q 235 600 233 602 q 237 587 237 597 q 225 349 225 471 l 225 250 q 237 0 225 99 l 235 -4 q 169 0 210 0 q 104 -4 129 0 l 102 0 q 114 250 114 93 l 114 326 z "},"Ĺ":{"ha":715,"x_min":74,"x_max":671,"o":"m 265 618 l 265 278 q 277 85 265 123 q 458 92 360 85 q 612 108 555 100 l 668 115 l 671 110 q 668 61 668 87 q 671 0 668 39 l 668 -4 q 585 0 635 0 l 205 0 l 134 -4 l 132 0 q 146 278 146 94 l 146 618 q 132 896 146 797 l 135 900 q 205 896 160 896 q 278 900 253 896 l 279 896 q 265 618 265 804 m 267 1137 q 353 1065 326 1109 l 153 985 q 94 968 114 968 q 74 989 73 968 q 94 1018 74 1004 l 267 1137 z "},"ĺ":{"ha":601,"x_min":104,"x_max":558,"o":"m 289 930 q 309 933 297 933 q 385 901 351 933 l 389 886 l 229 734 q 187 708 203 708 q 174 714 180 708 q 168 726 168 720 q 184 765 168 740 l 289 930 m 229 249 q 240 68 229 106 q 402 72 323 68 q 518 81 481 77 l 555 85 l 558 79 q 555 36 555 57 q 556 26 555 31 q 557 14 557 21 q 558 0 558 7 l 555 -4 q 472 0 522 0 l 176 0 l 106 -4 l 104 0 q 118 249 118 83 l 118 390 q 104 639 118 555 l 106 643 q 172 639 124 639 l 240 643 l 243 639 q 229 390 229 551 l 229 249 z "},"Ļ":{"ha":715,"x_min":132,"x_max":671,"o":"m 371 -60 q 433 -92 410 -60 q 457 -179 457 -125 q 416 -272 457 -237 q 310 -317 375 -307 q 298 -283 299 -306 q 375 -252 347 -273 q 403 -210 403 -231 q 359 -174 403 -178 q 301 -119 301 -164 q 321 -77 301 -94 q 371 -60 340 -60 m 265 618 l 265 278 q 277 85 265 123 q 458 92 360 85 q 612 108 555 100 l 668 115 l 671 110 q 668 61 668 87 q 671 0 668 39 l 668 -4 q 585 0 635 0 l 205 0 l 134 -4 l 132 0 q 146 278 146 94 l 146 618 q 132 896 146 797 l 135 900 q 205 896 160 896 q 278 900 253 896 l 279 896 q 265 618 265 804 z "},"ļ":{"ha":350,"x_min":109,"x_max":267,"o":"m 125 278 l 125 669 q 113 937 125 868 l 115 942 q 236 970 178 946 q 249 956 248 970 q 236 694 237 787 l 236 278 q 249 0 236 92 l 245 -4 q 180 0 220 0 q 115 -4 140 0 l 113 0 q 125 278 125 89 m 180 -69 q 243 -102 219 -69 q 267 -189 267 -135 q 225 -282 267 -248 q 119 -326 184 -317 q 109 -293 109 -315 q 185 -261 157 -282 q 212 -220 212 -240 q 170 -183 212 -188 q 111 -129 111 -174 q 131 -86 111 -104 q 180 -69 150 -69 z "},"Ľ":{"ha":715,"x_min":132,"x_max":671,"o":"m 555 970 q 616 939 593 970 q 639 868 639 908 q 601 775 639 823 q 497 721 564 728 l 490 745 q 554 783 530 753 q 578 840 578 812 q 558 869 578 869 q 494 922 494 869 q 510 955 494 941 q 555 970 526 970 m 265 618 l 265 278 q 277 85 265 123 q 458 92 360 85 q 612 108 555 100 l 668 115 l 671 110 q 668 61 668 87 q 671 0 668 39 l 668 -4 q 585 0 635 0 l 205 0 l 134 -4 l 132 0 q 146 278 146 94 l 146 618 q 132 896 146 797 l 135 900 q 205 896 160 896 q 278 900 253 896 l 279 896 q 265 618 265 804 z "},"ľ":{"ha":601,"x_min":104,"x_max":558,"o":"m 471 764 q 531 733 508 764 q 554 663 554 703 q 517 570 554 618 q 412 515 479 522 l 406 539 q 469 577 446 547 q 493 635 493 607 q 473 664 493 664 q 410 717 410 664 q 426 749 410 735 q 471 764 441 764 m 229 249 q 240 68 229 106 q 402 72 323 68 q 518 81 481 77 l 555 85 l 558 79 q 555 36 555 57 q 556 26 555 31 q 557 14 557 21 q 558 0 558 7 l 555 -4 q 472 0 522 0 l 176 0 l 106 -4 l 104 0 q 118 249 118 83 l 118 390 q 104 639 118 555 l 106 643 q 172 639 124 639 l 240 643 l 243 639 q 229 390 229 551 l 229 249 z "},"Ŀ":{"ha":715,"x_min":132,"x_max":671,"o":"m 473 392 q 419 414 440 392 q 399 467 399 436 q 421 519 399 496 q 473 542 443 542 q 526 519 503 542 q 549 467 549 497 q 527 414 549 436 q 473 392 505 392 m 265 618 l 265 278 q 277 85 265 123 q 458 92 360 85 q 612 108 555 100 l 668 115 l 671 110 q 668 61 668 87 q 671 0 668 39 l 668 -4 q 585 0 635 0 l 205 0 l 134 -4 l 132 0 q 146 278 146 94 l 146 618 q 132 896 146 797 l 135 900 q 205 896 160 896 q 278 900 253 896 l 279 896 q 265 618 265 804 z "},"ŀ":{"ha":350,"x_min":113,"x_max":428,"o":"m 314 454 q 305 464 314 454 q 296 500 296 473 q 315 547 296 526 q 363 568 335 568 q 408 548 388 568 q 428 500 428 528 q 409 454 428 473 q 363 435 390 435 q 314 454 332 435 m 125 278 l 125 669 q 113 937 125 868 l 115 942 q 236 970 178 946 q 249 956 248 970 q 236 694 237 787 l 236 278 q 249 0 236 92 l 245 -4 q 180 0 220 0 q 115 -4 140 0 l 113 0 q 125 278 125 89 z "},"Ł":{"ha":715,"x_min":7,"x_max":671,"o":"m 431 624 l 456 582 l 265 473 l 265 278 q 277 85 265 123 q 458 92 360 85 q 612 108 555 100 l 668 115 l 671 110 q 668 61 668 87 q 671 0 668 39 l 668 -4 q 585 0 635 0 l 205 0 l 134 -4 l 132 0 q 146 278 146 94 l 146 404 l 32 339 l 7 382 l 146 461 l 146 618 q 132 896 146 797 l 135 900 q 205 896 160 896 q 278 900 253 896 l 279 896 q 265 618 266 804 l 265 529 l 431 624 z "},"ł":{"ha":601,"x_min":24,"x_max":558,"o":"m 351 463 l 376 421 l 229 334 l 229 249 q 240 68 229 106 q 402 72 323 68 q 518 81 481 77 l 555 85 l 558 79 q 555 36 555 57 q 556 26 555 31 q 557 14 557 21 q 558 0 558 7 l 555 -4 q 472 0 522 0 l 176 0 l 106 -4 l 104 0 q 118 249 118 83 l 118 269 l 47 228 l 24 269 l 118 325 l 118 390 q 104 639 118 555 l 106 643 q 172 639 124 639 l 240 643 l 243 639 q 229 391 229 551 l 351 463 z "},"Ń":{"ha":997,"x_min":136,"x_max":878,"o":"m 593 1139 q 679 1067 652 1111 l 479 986 q 421 970 441 969 q 400 990 400 970 q 421 1019 400 1006 l 593 1139 m 150 896 l 153 900 q 211 896 163 896 q 231 899 211 896 l 707 282 q 772 205 762 210 q 786 218 783 201 q 789 248 788 229 l 789 618 q 775 896 789 797 l 778 900 q 826 896 803 896 q 875 900 850 896 l 878 896 q 865 669 869 787 q 859 472 860 550 q 854 249 857 393 q 850 29 851 104 q 823 -14 847 -14 q 764 20 789 -14 l 279 632 q 249 670 258 660 q 233 677 239 681 q 226 660 227 673 q 225 610 225 646 l 225 278 q 239 0 225 99 l 236 -4 q 188 0 211 0 q 139 -4 164 0 l 136 0 q 156 432 153 161 q 150 896 159 703 z "},"ń":{"ha":758,"x_min":104,"x_max":654,"o":"m 525 932 q 545 935 533 935 q 621 903 587 935 l 625 888 l 465 736 q 424 710 439 709 q 411 715 417 710 q 404 728 404 721 q 420 766 404 741 l 525 932 m 114 440 q 104 639 114 572 l 106 642 q 158 639 124 639 l 207 642 l 546 201 q 572 185 568 175 q 575 204 575 191 l 575 440 q 566 639 575 572 l 568 642 q 604 639 579 639 l 654 642 l 654 639 q 644 440 645 565 l 644 21 q 632 -3 644 7 q 608 -14 619 -14 q 558 14 581 -14 l 212 452 q 183 435 183 489 l 183 199 q 193 0 183 66 l 192 -4 q 151 0 175 0 l 106 -4 l 104 0 q 114 199 114 61 l 114 440 z "},"Ņ":{"ha":997,"x_min":136,"x_max":878,"o":"m 497 -53 q 559 -85 536 -53 q 583 -172 583 -118 q 542 -265 583 -231 q 436 -310 501 -300 q 425 -277 425 -299 q 502 -245 474 -266 q 529 -203 529 -224 q 486 -167 529 -171 q 428 -113 428 -157 q 447 -70 428 -87 q 497 -53 467 -53 m 150 896 l 153 900 q 211 896 163 896 l 231 899 l 707 282 q 772 205 762 210 q 786 218 783 201 q 789 248 788 229 l 789 618 q 775 896 789 797 l 778 900 q 826 896 803 896 q 875 900 850 896 l 878 896 q 865 669 869 787 q 859 472 860 550 q 854 249 857 393 q 850 29 851 104 q 823 -14 847 -14 q 764 20 789 -14 l 279 632 q 249 670 258 660 q 233 677 239 681 q 226 660 227 673 q 225 610 225 646 l 225 278 q 239 0 225 99 l 236 -4 q 188 0 211 0 q 139 -4 164 0 l 136 0 q 156 432 153 161 q 150 896 159 703 z "},"ņ":{"ha":748,"x_min":103,"x_max":652,"o":"m 357 -57 q 419 -90 395 -57 q 443 -176 443 -122 q 402 -270 443 -235 q 296 -314 361 -304 q 285 -281 285 -303 q 361 -249 334 -270 q 389 -207 389 -228 q 346 -171 389 -175 q 288 -117 288 -161 q 307 -74 288 -92 q 357 -57 326 -57 m 639 250 q 652 0 639 92 l 648 -4 q 583 0 623 0 q 518 -4 543 0 l 515 0 q 528 250 528 93 l 528 386 q 506 497 528 468 q 428 526 484 526 q 330 498 385 526 q 227 412 275 471 l 227 250 q 239 0 227 89 l 236 -4 q 171 0 211 0 q 106 -4 131 0 l 103 0 q 115 250 115 85 l 115 326 q 103 596 115 518 l 106 600 q 218 604 167 595 q 227 590 227 604 l 227 489 l 229 485 q 469 610 336 610 q 601 555 561 610 q 642 390 642 501 q 640 320 642 368 q 639 250 639 273 z "},"Ň":{"ha":997,"x_min":136,"x_max":878,"o":"m 460 968 q 319 1100 410 1030 l 342 1128 q 489 1043 425 1092 q 637 1128 568 1099 l 659 1100 q 519 968 589 1047 l 460 968 m 150 896 l 153 900 q 211 896 163 896 q 231 899 211 896 l 707 282 q 772 205 762 210 q 786 218 783 201 q 789 248 788 229 l 789 618 q 775 896 789 797 l 778 900 q 826 896 803 896 q 875 900 850 896 l 878 896 q 865 669 869 787 q 859 472 860 550 q 854 249 857 393 q 850 29 851 104 q 823 -14 847 -14 q 764 20 789 -14 l 279 632 q 249 670 258 660 q 233 677 239 681 q 226 660 227 673 q 225 610 225 646 l 225 278 q 239 0 225 99 l 236 -4 q 188 0 211 0 q 139 -4 164 0 l 136 0 q 156 432 153 161 q 150 896 159 703 z "},"ň":{"ha":758,"x_min":104,"x_max":654,"o":"m 383 707 q 243 888 330 793 l 271 905 q 418 781 369 833 q 568 905 471 835 l 595 888 q 453 707 502 783 l 383 707 m 114 440 q 104 639 114 572 l 106 642 q 158 639 124 639 q 207 642 158 639 l 546 201 q 572 185 568 175 q 575 204 575 191 l 575 440 q 566 639 575 572 l 568 642 q 604 639 579 639 l 654 642 l 654 639 q 644 440 645 565 l 644 21 q 632 -3 644 7 q 608 -14 619 -14 q 558 14 581 -14 l 212 452 q 183 435 183 489 l 183 199 q 193 0 183 66 l 192 -4 q 151 0 175 0 l 106 -4 l 104 0 q 114 199 114 61 l 114 440 z "},"ŉ":{"ha":748,"x_min":35,"x_max":669,"o":"m 100 970 q 160 939 137 970 q 183 868 183 908 q 146 775 183 823 q 41 721 109 728 l 35 745 q 98 783 75 753 q 122 840 122 812 q 103 869 122 869 q 39 922 39 869 q 55 955 39 941 q 100 970 71 970 m 657 250 q 669 0 657 92 l 667 -4 q 601 0 642 0 q 536 -4 561 0 l 533 0 q 546 250 545 93 l 546 386 q 524 497 546 468 q 446 526 501 526 q 348 498 403 526 q 244 412 293 471 l 244 250 q 257 0 244 89 l 254 -4 q 189 0 229 0 q 123 -4 149 0 l 121 0 q 134 250 133 85 l 134 326 q 121 596 134 518 l 123 600 q 236 604 184 595 q 244 590 244 604 l 244 489 l 248 485 q 488 610 355 610 q 620 555 579 610 q 660 390 660 501 q 659 320 660 368 q 657 250 657 273 z "},"Ŋ":{"ha":965,"x_min":126,"x_max":856,"o":"m 140 618 q 126 896 140 797 l 129 900 q 200 896 153 896 q 220 899 200 896 l 696 282 q 723 245 707 269 q 760 204 753 205 q 768 224 766 203 l 768 248 l 768 618 q 754 896 768 797 l 757 900 q 806 896 772 896 l 854 900 l 856 896 q 842 618 842 804 l 842 163 q 826 -8 842 45 q 754 -135 810 -61 q 534 -240 673 -241 q 472 -228 492 -240 l 471 -224 q 510 -110 488 -195 l 525 -109 q 606 -157 551 -157 q 732 45 713 -157 l 268 632 q 237 670 247 660 q 221 677 228 681 q 214 660 215 673 q 214 610 214 646 l 214 278 q 228 0 214 99 l 225 -4 q 176 0 210 0 l 127 -4 l 126 0 q 140 278 140 92 l 140 618 z "},"ŋ":{"ha":758,"x_min":104,"x_max":654,"o":"m 114 440 q 104 639 114 572 l 106 642 q 158 639 124 639 q 207 642 158 639 l 546 201 q 572 185 568 175 q 575 204 575 191 l 575 440 q 566 639 575 572 l 568 642 q 604 639 579 639 l 654 642 l 654 639 q 644 440 645 565 l 644 163 q 634 -15 644 35 q 574 -135 624 -65 q 354 -240 497 -241 q 292 -228 311 -240 l 290 -224 q 329 -110 307 -195 l 345 -109 q 425 -157 371 -157 q 477 -141 455 -157 q 511 -97 498 -125 q 531 -37 524 -68 q 541 35 538 -5 l 212 452 q 183 435 183 489 l 183 199 q 193 0 183 66 l 192 -4 q 151 0 175 0 l 106 -4 l 104 0 q 114 199 114 61 l 114 440 z "},"Ō":{"ha":1029,"x_min":72,"x_max":957,"o":"m 657 1018 l 318 1018 q 300 1039 300 1018 q 310 1065 300 1051 q 330 1079 319 1079 l 671 1079 q 690 1060 690 1079 q 680 1032 690 1046 q 657 1018 669 1018 m 493 852 q 297 755 379 852 q 215 454 215 657 q 311 156 215 264 q 541 47 407 47 q 738 148 663 47 q 814 431 814 249 q 729 747 814 642 q 493 852 644 852 m 957 457 q 834 118 957 249 q 513 -14 711 -14 q 200 109 328 -14 q 72 431 72 231 q 198 774 72 635 q 511 914 325 914 q 829 787 702 914 q 957 457 957 660 z "},"ō":{"ha":694,"x_min":53,"x_max":642,"o":"m 514 747 l 175 747 q 157 768 157 747 q 166 794 157 781 q 187 808 176 808 l 528 808 q 547 789 547 808 q 537 761 547 775 q 514 747 526 747 m 53 285 q 135 521 53 432 q 353 610 216 610 q 567 526 492 610 q 642 297 642 441 q 563 72 642 158 q 347 -14 484 -14 q 133 71 212 -14 q 53 285 53 156 m 343 554 q 242 517 282 554 q 189 427 203 479 q 175 309 175 375 q 189 191 175 246 q 247 88 203 135 q 359 41 292 41 q 474 107 429 41 q 519 272 519 172 q 483 483 519 412 q 343 554 446 554 z "},"Ŏ":{"ha":1029,"x_min":72,"x_max":957,"o":"m 688 1118 q 627 1004 682 1048 q 498 961 571 961 q 368 1003 420 961 q 310 1118 315 1046 l 349 1118 q 399 1057 357 1080 q 498 1034 441 1034 q 597 1056 553 1034 q 648 1118 642 1079 l 688 1118 m 493 852 q 297 755 379 852 q 215 454 215 657 q 311 156 215 264 q 541 47 407 47 q 738 148 663 47 q 814 431 814 249 q 729 747 814 642 q 493 852 644 852 m 957 457 q 834 118 957 249 q 513 -14 711 -14 q 200 109 328 -14 q 72 431 72 231 q 198 774 72 635 q 511 914 325 914 q 829 787 702 914 q 957 457 957 660 z "},"ŏ":{"ha":694,"x_min":53,"x_max":642,"o":"m 196 896 q 249 806 207 840 q 346 771 290 771 q 444 804 401 771 q 496 896 486 838 l 533 879 q 466 742 521 793 q 346 692 411 692 q 222 741 272 692 q 158 879 172 790 l 196 896 m 53 285 q 135 521 53 432 q 353 610 216 610 q 567 526 492 610 q 642 297 642 441 q 563 72 642 158 q 347 -14 484 -14 q 133 71 212 -14 q 53 285 53 156 m 343 554 q 242 517 282 554 q 189 427 203 479 q 175 309 175 375 q 189 191 175 246 q 247 88 203 135 q 359 41 292 41 q 474 107 429 41 q 519 272 519 172 q 483 483 519 412 q 343 554 446 554 z "},"Ő":{"ha":1029,"x_min":72,"x_max":957,"o":"m 705 1100 q 696 1072 705 1082 l 558 956 q 547 951 554 951 q 535 956 542 951 q 529 970 529 961 q 530 977 529 973 q 534 985 532 980 l 616 1136 q 648 1153 627 1153 q 691 1136 676 1153 q 705 1100 705 1120 m 524 1107 q 514 1080 524 1088 l 392 968 q 372 958 380 958 q 354 975 354 958 q 357 990 354 983 l 433 1143 q 471 1160 444 1160 q 506 1144 489 1160 q 524 1107 524 1129 m 493 852 q 297 755 379 852 q 215 454 215 657 q 311 156 215 264 q 541 47 407 47 q 738 148 663 47 q 814 431 814 249 q 729 747 814 642 q 493 852 644 852 m 957 457 q 834 118 957 249 q 513 -14 711 -14 q 200 109 328 -14 q 72 431 72 231 q 198 774 72 635 q 511 914 325 914 q 829 787 702 914 q 957 457 957 660 z "},"ő":{"ha":791,"x_min":61,"x_max":730,"o":"m 606 893 q 596 867 606 876 l 437 714 q 429 711 435 711 q 417 717 424 711 q 410 729 410 722 q 411 734 410 733 l 519 928 q 553 945 529 945 q 590 929 574 945 q 606 893 606 913 m 422 901 q 415 879 422 888 l 273 711 q 262 707 269 707 q 243 725 243 707 q 244 729 243 728 l 334 932 q 370 951 342 951 q 407 937 392 951 q 422 901 422 922 m 385 597 q 241 527 300 597 q 183 322 183 456 q 244 117 183 195 q 407 40 306 40 q 555 109 501 40 q 608 304 608 178 q 544 519 608 441 q 385 597 480 597 m 730 323 q 640 83 730 180 q 386 -14 550 -14 q 153 76 244 -14 q 61 306 61 165 q 156 556 61 458 q 397 653 252 653 q 633 561 536 653 q 730 323 730 468 z "},"Œ":{"ha":1164,"x_min":58,"x_max":1097,"o":"m 484 52 l 501 52 q 557 64 541 52 q 572 107 572 77 l 572 790 q 558 832 572 822 q 501 842 543 842 l 453 842 q 271 751 340 842 q 201 454 201 661 q 283 152 201 253 q 484 52 366 52 m 632 0 q 486 -3 486 -1 q 176 124 293 -1 q 58 441 58 250 q 170 767 58 636 q 471 897 282 897 q 632 896 569 896 l 997 896 q 1080 900 1047 896 l 1083 896 q 1080 852 1080 857 q 1083 817 1080 839 l 1080 811 q 703 828 888 828 q 692 618 692 791 l 692 504 q 1002 518 838 504 l 1006 514 q 1002 475 1002 494 q 1006 436 1002 456 l 1002 432 q 692 446 864 446 l 692 278 q 703 75 692 113 q 884 79 786 75 q 1038 87 982 83 l 1095 92 l 1097 86 q 1095 40 1095 64 q 1097 0 1095 39 l 1095 -4 q 1011 0 1061 0 l 632 0 z "},"œ":{"ha":1006,"x_min":40,"x_max":909,"o":"m 410 37 q 457 48 444 37 q 469 83 469 58 l 469 558 q 447 595 469 587 q 374 603 425 603 q 224 530 286 603 q 163 311 163 457 q 230 105 163 174 q 410 37 297 37 m 528 639 l 810 639 q 893 643 860 639 l 896 639 q 893 596 893 600 q 896 567 893 589 l 893 561 q 595 578 781 578 q 583 389 584 541 l 583 363 q 693 364 659 363 q 759 370 728 366 q 814 376 790 375 l 818 372 q 814 333 814 353 q 818 294 814 314 l 814 290 q 583 304 676 304 l 583 250 q 595 68 583 106 q 756 72 678 68 q 870 81 833 77 l 907 85 l 909 79 q 907 36 907 57 q 907 26 907 31 q 909 14 908 21 q 909 0 909 7 l 907 -4 q 823 0 873 0 l 528 0 q 447 -2 497 0 q 389 -4 397 -4 q 133 73 226 -4 q 40 294 40 150 q 136 543 40 443 q 387 643 232 643 q 412 642 389 643 q 470 640 436 642 q 528 639 504 639 z "},"Ŕ":{"ha":833,"x_min":131,"x_max":799,"o":"m 439 1139 q 525 1067 498 1111 l 325 986 q 267 970 286 969 q 245 990 245 970 q 267 1019 245 1006 l 439 1139 m 264 397 l 264 278 q 278 0 264 99 l 275 -4 q 204 0 250 0 q 134 -4 158 0 l 131 0 q 144 278 144 94 l 144 618 q 131 896 144 797 l 134 900 q 204 896 159 896 q 301 901 227 896 q 392 905 375 905 q 652 839 581 905 q 725 665 726 770 q 586 441 725 511 q 502 415 555 426 q 647 208 534 372 q 799 0 760 44 l 796 -4 q 713 0 768 0 q 629 -4 656 0 q 497 244 604 71 q 472 285 490 255 q 446 329 454 315 q 421 364 437 342 q 393 401 406 385 q 264 397 334 397 m 393 846 q 283 836 302 846 q 264 785 264 827 l 264 453 l 345 453 q 525 499 458 453 q 591 664 591 546 q 573 755 591 717 q 523 812 554 793 q 460 838 492 831 q 393 846 429 846 z "},"ŕ":{"ha":640,"x_min":104,"x_max":633,"o":"m 357 930 q 376 933 365 933 q 453 901 419 933 l 457 886 l 297 734 q 256 708 271 708 q 242 714 249 708 q 236 726 236 720 q 252 765 236 740 l 357 930 m 435 481 q 315 593 435 593 q 249 583 265 593 q 232 551 232 574 l 232 334 l 278 334 q 397 366 360 334 q 435 481 435 399 m 308 287 q 296 287 302 287 q 283 286 290 286 l 232 286 l 232 249 q 245 0 232 87 l 243 -4 q 175 0 222 0 l 106 -4 l 104 0 q 118 249 118 83 l 118 390 q 104 639 118 555 l 106 643 q 175 639 127 639 q 249 641 204 639 q 310 643 294 643 q 477 601 414 643 q 539 481 539 559 q 418 307 539 352 q 524 152 451 262 q 633 0 597 41 l 631 -4 q 562 0 604 0 q 486 -4 511 0 q 410 138 475 39 q 389 169 401 151 q 369 201 378 187 q 350 230 360 215 q 329 260 340 245 q 308 287 319 275 z "},"Ŗ":{"ha":833,"x_min":131,"x_max":799,"o":"m 403 -60 q 465 -92 441 -60 q 489 -179 489 -125 q 448 -272 489 -237 q 342 -317 407 -307 q 330 -283 331 -306 q 407 -252 379 -273 q 435 -210 435 -231 q 392 -174 435 -178 q 334 -119 334 -164 q 353 -77 334 -94 q 403 -60 372 -60 m 264 397 l 264 278 q 278 0 264 99 l 275 -4 q 204 0 250 0 q 134 -4 158 0 l 131 0 q 144 278 144 94 l 144 618 q 131 896 144 797 l 134 900 q 204 896 159 896 q 301 901 227 896 q 392 905 375 905 q 652 839 581 905 q 725 665 726 770 q 586 441 725 511 q 502 415 555 426 q 647 208 534 372 q 799 0 760 44 l 796 -4 q 713 0 768 0 q 629 -4 656 0 q 497 244 604 71 q 472 285 490 255 q 446 329 454 315 q 421 364 437 342 q 393 401 406 385 q 264 397 334 397 m 393 846 q 283 836 302 846 q 264 785 264 827 l 264 453 l 345 453 q 525 499 458 453 q 591 664 591 546 q 573 755 591 717 q 523 812 554 793 q 460 838 492 831 q 393 846 429 846 z "},"ŗ":{"ha":493,"x_min":104,"x_max":468,"o":"m 176 -57 q 239 -90 215 -57 q 262 -176 262 -122 q 221 -270 262 -235 q 115 -314 180 -304 q 104 -281 104 -303 q 181 -249 153 -270 q 208 -207 208 -228 q 165 -171 208 -175 q 107 -117 107 -161 q 126 -74 107 -92 q 176 -57 146 -57 m 232 464 l 236 461 q 321 577 285 545 q 412 610 358 610 q 463 600 429 610 l 468 595 l 440 492 l 429 489 q 357 509 408 509 q 279 460 311 509 q 232 322 232 388 l 232 250 q 244 0 232 95 l 241 -4 q 176 0 216 0 q 111 -4 136 0 l 109 0 q 121 250 121 86 l 121 326 q 109 596 121 518 l 111 600 q 224 604 172 595 q 232 590 232 604 l 232 464 z "},"Ř":{"ha":833,"x_min":131,"x_max":799,"o":"m 339 968 q 199 1100 289 1030 l 221 1128 q 368 1043 304 1092 q 517 1128 448 1099 l 538 1100 q 399 968 469 1047 l 339 968 m 264 397 l 264 278 q 278 0 264 99 l 275 -4 q 204 0 250 0 q 134 -4 158 0 l 131 0 q 144 278 144 94 l 144 618 q 131 896 144 797 l 134 900 q 204 896 159 896 q 301 901 227 896 q 392 905 375 905 q 652 839 581 905 q 725 665 726 770 q 586 441 725 511 q 502 415 555 426 q 647 208 534 372 q 799 0 760 44 l 796 -4 q 713 0 768 0 q 629 -4 656 0 q 497 244 604 71 q 472 285 490 255 q 446 329 454 315 q 421 364 437 342 q 393 401 406 385 q 264 397 334 397 m 393 846 q 283 836 302 846 q 264 785 264 827 l 264 453 l 345 453 q 525 499 458 453 q 591 664 591 546 q 573 755 591 717 q 523 812 554 793 q 460 838 492 831 q 393 846 429 846 z "},"ř":{"ha":640,"x_min":104,"x_max":633,"o":"m 288 707 q 147 888 235 793 l 175 905 q 322 781 273 833 q 472 905 375 835 l 498 888 q 357 707 406 783 l 288 707 m 435 481 q 315 593 435 593 q 249 583 265 593 q 232 551 232 574 l 232 334 l 278 334 q 397 366 360 334 q 435 481 435 399 m 308 287 q 296 287 302 287 q 283 286 290 286 l 232 286 l 232 249 q 245 0 232 87 l 243 -4 q 175 0 222 0 l 106 -4 l 104 0 q 118 249 118 83 l 118 390 q 104 639 118 555 l 106 643 q 175 639 127 639 q 249 641 204 639 q 310 643 294 643 q 477 601 414 643 q 539 481 539 559 q 418 307 539 352 q 524 152 451 262 q 633 0 597 41 l 631 -4 q 562 0 604 0 q 486 -4 511 0 q 410 138 475 39 q 389 169 401 151 q 369 201 378 187 q 350 230 360 215 q 329 260 340 245 q 308 287 319 275 z "},"Ś":{"ha":703,"x_min":69,"x_max":628,"o":"m 336 47 q 450 91 401 47 q 498 210 498 135 q 457 334 498 290 q 336 411 415 378 q 249 453 285 432 q 175 505 212 473 q 117 578 138 536 q 97 673 97 621 q 141 804 97 745 q 250 890 184 863 q 370 914 307 914 q 496 899 441 914 q 571 867 551 884 l 590 851 l 593 847 q 561 708 566 760 l 547 707 q 467 812 519 772 q 358 852 415 852 q 273 836 305 852 q 228 786 247 823 q 210 711 210 749 q 225 639 210 671 q 269 586 240 607 q 321 554 298 566 q 379 529 345 542 q 628 252 628 436 q 542 59 628 132 q 325 -14 456 -14 q 190 2 253 -14 q 99 33 126 17 l 72 49 l 69 53 q 102 196 97 156 l 115 197 q 213 92 147 136 q 336 47 278 47 m 392 1139 q 478 1067 452 1111 l 278 986 q 220 970 239 969 q 199 990 199 970 q 220 1019 199 1006 l 392 1139 z "},"ś":{"ha":543,"x_min":46,"x_max":497,"o":"m 321 930 q 340 933 329 933 q 416 901 383 933 l 421 886 l 261 734 q 220 708 235 708 q 207 714 213 708 q 200 726 200 720 q 216 765 200 740 l 321 930 m 69 143 l 90 144 q 161 69 115 97 q 258 41 207 41 q 349 76 314 41 q 383 168 383 110 q 375 213 383 195 q 342 245 367 231 q 303 266 318 260 q 244 289 288 272 q 188 311 207 302 q 144 337 170 319 q 104 375 118 354 q 77 472 77 412 q 146 606 77 558 q 302 653 215 653 q 478 606 391 653 l 481 602 l 453 501 l 433 500 q 381 569 416 538 q 296 599 346 599 q 214 572 248 599 q 180 500 180 545 q 192 454 180 473 q 226 420 203 435 q 263 399 249 406 q 306 383 278 393 q 380 355 352 368 q 439 319 408 342 q 483 265 469 297 q 497 189 497 233 q 487 122 497 155 q 451 58 476 90 q 377 6 427 25 q 260 -14 328 -14 q 46 25 149 -14 l 69 143 z "},"Ŝ":{"ha":703,"x_min":69,"x_max":628,"o":"m 347 1128 q 488 997 404 1060 l 465 968 q 318 1054 379 1008 q 170 968 249 1002 l 150 997 q 288 1128 210 1042 l 347 1128 m 336 47 q 450 91 401 47 q 498 210 498 135 q 457 334 498 290 q 336 411 415 378 q 249 453 285 432 q 175 505 212 473 q 117 578 138 536 q 97 673 97 621 q 141 804 97 745 q 250 890 184 863 q 370 914 307 914 q 496 899 441 914 q 571 867 551 884 l 590 851 l 593 847 q 561 708 566 760 l 547 707 q 467 812 519 772 q 358 852 415 852 q 273 836 305 852 q 228 786 247 823 q 210 711 210 749 q 225 639 210 671 q 269 586 240 607 q 321 554 298 566 q 379 529 345 542 q 628 252 628 436 q 542 59 628 132 q 325 -14 456 -14 q 190 2 253 -14 q 99 33 126 17 l 72 49 l 69 53 q 102 196 97 156 l 115 197 q 213 92 147 136 q 336 47 278 47 z "},"ŝ":{"ha":550,"x_min":46,"x_max":492,"o":"m 69 140 l 90 142 q 254 41 162 42 q 347 72 311 41 q 382 157 382 103 q 348 227 382 204 q 241 269 314 250 q 119 328 163 290 q 75 440 75 366 q 138 565 75 521 q 285 610 200 610 q 472 568 392 610 l 475 564 l 447 461 l 428 460 q 389 504 401 490 q 345 535 376 517 q 279 554 313 554 q 203 531 233 554 q 174 467 174 509 q 302 358 174 389 q 440 296 389 337 q 492 176 492 254 q 481 114 492 144 q 447 53 471 83 q 373 4 422 22 q 256 -14 323 -14 q 46 24 153 -14 l 69 140 m 306 897 q 446 718 352 823 l 416 699 q 269 823 318 770 q 121 699 208 761 l 93 718 q 236 897 193 829 l 306 897 z "},"Ş":{"ha":703,"x_min":69,"x_max":628,"o":"m 335 -151 q 272 -160 299 -151 l 264 -151 l 319 -18 l 367 -18 l 332 -111 q 368 -107 349 -107 q 439 -131 411 -107 q 467 -193 467 -154 q 424 -267 467 -238 q 318 -296 382 -296 q 215 -272 269 -296 q 229 -236 215 -250 q 310 -256 282 -256 q 361 -241 342 -256 q 380 -200 380 -227 q 335 -151 381 -151 m 336 47 q 450 91 401 47 q 498 210 498 135 q 457 334 498 290 q 336 411 415 378 q 249 453 285 432 q 175 505 212 473 q 117 578 138 536 q 97 673 97 621 q 141 804 97 745 q 250 890 184 863 q 370 914 307 914 q 496 899 441 914 q 571 867 551 884 l 590 851 l 593 847 q 561 708 566 760 l 547 707 q 467 812 519 772 q 358 852 415 852 q 273 836 305 852 q 228 786 247 823 q 210 711 210 749 q 225 639 210 671 q 269 586 240 607 q 321 554 298 566 q 379 529 345 542 q 628 252 628 436 q 542 59 628 132 q 325 -14 456 -14 q 190 2 253 -14 q 99 33 126 17 l 72 49 l 69 53 q 102 196 97 156 l 115 197 q 213 92 147 136 q 336 47 278 47 z "},"ş":{"ha":543,"x_min":46,"x_max":497,"o":"m 283 -131 q 221 -139 248 -131 l 212 -131 l 261 -14 q 260 -14 261 -14 q 46 25 149 -14 l 69 143 l 90 144 q 161 69 115 97 q 258 41 207 41 q 349 76 314 41 q 383 168 383 110 q 375 213 383 195 q 342 245 367 231 q 303 266 318 260 q 244 289 288 272 q 188 311 207 302 q 144 337 170 319 q 104 375 118 354 q 77 472 77 412 q 146 606 77 558 q 302 653 215 653 q 478 606 391 653 l 481 602 l 453 501 l 433 500 q 381 569 416 538 q 296 599 346 599 q 214 572 248 599 q 180 500 180 545 q 192 454 180 473 q 226 420 203 435 q 263 399 249 406 q 306 383 278 393 q 380 355 352 368 q 439 319 408 342 q 483 265 469 297 q 497 189 497 233 q 407 20 497 75 q 310 -11 366 -3 l 281 -90 q 317 -86 298 -86 q 387 -110 359 -86 q 415 -172 415 -134 q 373 -246 415 -217 q 267 -275 330 -275 q 164 -252 218 -275 q 178 -215 164 -229 q 258 -235 231 -235 q 310 -220 290 -235 q 329 -179 329 -205 q 283 -131 330 -131 z "},"Š":{"ha":703,"x_min":69,"x_max":628,"o":"m 298 968 q 158 1100 248 1030 l 180 1128 q 328 1043 264 1092 q 476 1128 407 1099 l 497 1100 q 358 968 428 1047 l 298 968 m 336 47 q 450 91 401 47 q 498 210 498 135 q 457 334 498 290 q 336 411 415 378 q 249 453 285 432 q 175 505 212 473 q 117 578 138 536 q 97 673 97 621 q 141 804 97 745 q 250 890 184 863 q 370 914 307 914 q 496 899 441 914 q 571 867 551 884 l 590 851 l 593 847 q 561 708 566 760 l 547 707 q 467 812 519 772 q 358 852 415 852 q 273 836 305 852 q 228 786 247 823 q 210 711 210 749 q 225 639 210 671 q 269 586 240 607 q 321 554 298 566 q 379 529 345 542 q 628 252 628 436 q 542 59 628 132 q 325 -14 456 -14 q 190 2 253 -14 q 99 33 126 17 l 72 49 l 69 53 q 102 196 97 156 l 115 197 q 213 92 147 136 q 336 47 278 47 z "},"š":{"ha":543,"x_min":46,"x_max":497,"o":"m 235 705 q 94 886 182 791 l 122 904 q 269 779 220 832 q 419 904 322 833 l 446 886 q 304 705 353 782 l 235 705 m 69 143 l 90 144 q 161 69 115 97 q 258 41 207 41 q 349 76 314 41 q 383 168 383 110 q 375 213 383 195 q 342 245 367 231 q 303 266 318 260 q 244 289 288 272 q 188 311 207 302 q 144 337 170 319 q 104 375 118 354 q 77 472 77 412 q 146 606 77 558 q 302 653 215 653 q 478 606 391 653 l 481 602 l 453 501 l 433 500 q 381 569 416 538 q 296 599 346 599 q 214 572 248 599 q 180 500 180 545 q 192 454 180 473 q 226 420 203 435 q 263 399 249 406 q 306 383 278 393 q 380 355 352 368 q 439 319 408 342 q 483 265 469 297 q 497 189 497 233 q 487 122 497 155 q 451 58 476 90 q 377 6 427 25 q 260 -14 328 -14 q 46 25 149 -14 l 69 143 z "},"Ţ":{"ha":749,"x_min":21,"x_max":729,"o":"m 400 -127 q 338 -136 364 -127 l 329 -127 l 382 0 q 375 0 382 0 q 304 -4 329 0 l 301 0 q 315 278 315 94 l 315 618 q 304 818 315 781 q 151 813 221 818 q 52 804 81 808 l 24 799 l 21 804 q 21 896 25 836 l 24 900 q 107 896 57 896 l 643 896 q 726 900 693 896 l 729 896 q 729 804 725 836 l 726 799 q 446 818 632 819 q 435 618 435 781 l 435 278 q 449 0 435 99 l 446 -4 q 438 -3 442 -3 q 429 -2 434 -3 l 397 -87 q 433 -83 414 -83 q 504 -107 476 -83 q 532 -170 532 -131 q 489 -243 532 -214 q 383 -272 447 -272 q 281 -249 334 -272 q 294 -212 281 -227 q 375 -232 347 -232 q 426 -217 407 -232 q 446 -176 446 -203 q 400 -127 446 -127 z "},"ţ":{"ha":627,"x_min":35,"x_max":593,"o":"m 313 -135 q 250 -143 277 -135 l 241 -135 l 297 -1 l 345 -1 l 310 -94 q 346 -90 327 -90 q 416 -114 389 -90 q 444 -176 444 -138 q 402 -250 444 -221 q 296 -279 359 -279 q 193 -256 247 -279 q 207 -220 193 -233 q 288 -239 260 -239 q 339 -224 319 -239 q 358 -183 358 -210 q 313 -135 359 -135 m 257 562 q 124 559 179 562 q 54 551 69 555 l 37 547 l 35 551 q 35 639 39 582 l 37 642 q 114 639 79 639 l 514 639 q 590 642 549 639 l 593 639 q 593 551 589 582 l 590 547 q 371 562 544 563 l 371 250 q 385 0 371 87 l 382 -4 q 314 0 361 0 l 244 -4 l 243 0 q 257 250 256 83 l 257 562 z "},"Ť":{"ha":749,"x_min":21,"x_max":729,"o":"m 351 968 q 211 1100 301 1030 l 233 1128 q 380 1043 317 1092 q 529 1128 460 1099 l 550 1100 q 411 968 481 1047 l 351 968 m 315 618 q 304 818 315 781 q 151 813 221 818 q 52 804 81 808 l 24 799 l 21 804 q 21 896 25 836 l 24 900 q 107 896 57 896 l 643 896 q 726 900 693 896 l 729 896 q 729 804 725 836 l 726 799 q 446 818 632 819 q 435 618 435 781 l 435 278 q 449 0 435 99 l 446 -4 q 375 0 420 0 q 304 -4 329 0 l 301 0 q 315 278 315 94 l 315 618 z "},"ť":{"ha":627,"x_min":35,"x_max":593,"o":"m 288 705 q 147 886 235 791 l 175 904 q 322 779 273 832 q 472 904 375 833 l 498 886 q 357 705 406 782 l 288 705 m 257 562 q 124 559 179 562 q 54 551 69 555 l 37 547 l 35 551 q 35 639 39 582 l 37 642 q 114 639 79 639 l 514 639 q 590 642 549 639 l 593 639 q 593 551 589 582 l 590 547 q 371 562 544 563 l 371 250 q 385 0 371 87 l 382 -4 q 314 0 361 0 l 244 -4 l 243 0 q 257 250 256 83 l 257 562 z "},"Ŧ":{"ha":749,"x_min":21,"x_max":729,"o":"m 140 457 l 140 511 l 315 511 l 315 618 q 304 818 315 781 q 151 813 221 818 q 52 804 81 808 l 24 799 l 21 804 q 21 896 25 836 l 24 900 q 107 896 57 896 l 643 896 q 726 900 693 896 l 729 896 q 729 804 725 836 l 726 799 q 446 818 632 819 q 435 618 435 781 l 435 511 l 623 511 l 623 457 l 435 457 l 435 278 q 449 0 435 99 l 446 -4 q 375 0 420 0 q 304 -4 329 0 l 301 0 q 315 278 315 94 l 315 457 l 140 457 z "},"ŧ":{"ha":627,"x_min":35,"x_max":593,"o":"m 490 379 l 490 325 l 371 325 l 371 250 q 385 0 371 87 l 382 -4 q 314 0 361 0 q 244 -4 314 0 l 243 0 q 257 250 256 83 l 257 325 l 139 325 l 139 379 l 257 379 l 257 562 q 124 559 179 562 q 54 551 69 555 l 37 547 l 35 551 q 35 639 39 582 l 37 642 q 114 639 79 639 l 514 639 q 590 642 549 639 l 593 639 q 593 551 589 582 l 590 547 q 371 562 544 563 l 371 379 l 490 379 z "},"Ũ":{"ha":961,"x_min":131,"x_max":844,"o":"m 574 1031 q 613 1046 597 1031 q 643 1103 629 1061 l 676 1095 q 555 970 651 970 q 467 1006 521 970 q 392 1036 416 1036 q 350 1020 366 1036 q 323 970 335 1004 l 290 977 q 331 1069 306 1039 q 401 1100 357 1100 q 501 1061 446 1100 q 574 1031 542 1031 m 755 618 q 742 896 755 797 l 745 900 q 793 896 770 896 q 842 900 817 896 l 844 896 q 831 618 831 804 l 831 410 q 749 97 831 207 q 468 -14 668 -14 q 363 1 414 -14 q 260 50 313 16 q 176 156 208 85 q 144 328 144 228 l 144 618 q 131 896 144 797 l 134 900 q 204 896 159 896 q 275 900 250 896 l 278 896 q 264 618 264 804 l 264 374 q 497 64 264 64 q 614 83 565 64 q 690 132 663 103 q 732 206 717 160 q 751 291 747 252 q 755 385 755 330 l 755 618 z "},"ũ":{"ha":745,"x_min":103,"x_max":644,"o":"m 463 791 q 502 807 486 791 q 532 864 518 822 l 566 856 q 444 730 541 731 q 355 766 410 730 q 281 798 305 797 q 239 781 254 798 q 212 730 224 765 l 179 737 q 220 830 195 800 q 290 861 245 861 q 390 822 335 861 q 463 791 431 791 m 507 127 q 413 27 469 68 q 297 -14 357 -14 q 158 42 201 -14 q 115 179 115 97 l 115 346 q 103 596 115 507 l 106 600 q 171 596 131 596 q 236 600 211 596 l 239 596 q 227 346 227 513 l 227 208 q 251 92 227 121 q 319 64 275 64 q 421 107 368 64 q 510 210 475 151 l 510 346 q 497 596 510 504 l 500 600 q 565 596 525 596 q 631 600 606 596 l 633 596 q 621 346 621 513 l 621 267 q 644 0 621 126 l 642 -4 q 580 0 614 0 q 532 -4 564 0 q 519 0 519 -4 l 513 123 l 507 127 z "},"Ū":{"ha":961,"x_min":131,"x_max":844,"o":"m 643 1017 l 304 1017 q 286 1038 286 1017 q 296 1064 286 1050 q 317 1078 306 1078 l 657 1078 q 676 1059 677 1078 q 666 1031 676 1045 q 643 1017 655 1017 m 755 618 q 742 896 755 797 l 745 900 q 793 896 770 896 q 842 900 817 896 l 844 896 q 831 618 831 804 l 831 410 q 749 97 831 207 q 468 -14 668 -14 q 363 1 414 -14 q 260 50 313 16 q 176 156 208 85 q 144 328 144 228 l 144 618 q 131 896 144 797 l 134 900 q 204 896 159 896 q 275 900 250 896 l 278 896 q 264 618 264 804 l 264 374 q 497 64 264 64 q 614 83 565 64 q 690 132 663 103 q 732 206 717 160 q 751 291 747 252 q 755 385 755 330 l 755 618 z "},"ū":{"ha":745,"x_min":103,"x_max":644,"o":"m 534 747 l 196 747 q 178 768 178 747 q 188 794 178 781 q 208 808 197 808 l 549 808 q 568 789 568 808 q 557 761 568 775 q 534 747 547 747 m 507 127 q 413 27 469 68 q 297 -14 357 -14 q 158 42 201 -14 q 115 179 115 97 l 115 346 q 103 596 115 507 l 106 600 q 171 596 131 596 q 236 600 211 596 l 239 596 q 227 346 227 513 l 227 208 q 251 92 227 121 q 319 64 275 64 q 421 107 368 64 q 510 210 475 151 l 510 346 q 497 596 510 504 l 500 600 q 565 596 525 596 q 631 600 606 596 l 633 596 q 621 346 621 513 l 621 267 q 644 0 621 126 l 642 -4 q 580 0 614 0 q 532 -4 564 0 q 519 0 519 -4 l 513 123 l 507 127 z "},"Ŭ":{"ha":961,"x_min":131,"x_max":844,"o":"m 672 1117 q 611 1003 667 1046 q 484 960 555 960 q 353 1002 406 960 q 294 1117 300 1044 l 334 1117 q 384 1055 342 1078 q 484 1032 427 1032 q 582 1055 538 1032 q 633 1117 627 1078 l 672 1117 m 755 618 q 742 896 755 797 l 745 900 q 793 896 770 896 q 842 900 817 896 l 844 896 q 831 618 831 804 l 831 410 q 749 97 831 207 q 468 -14 668 -14 q 363 1 414 -14 q 260 50 313 16 q 176 156 208 85 q 144 328 144 228 l 144 618 q 131 896 144 797 l 134 900 q 204 896 159 896 q 275 900 250 896 l 278 896 q 264 618 264 804 l 264 374 q 497 64 264 64 q 614 83 565 64 q 690 132 663 103 q 732 206 717 160 q 751 291 747 252 q 755 385 755 330 l 755 618 z "},"ŭ":{"ha":745,"x_min":103,"x_max":644,"o":"m 208 897 q 261 807 219 842 q 358 772 302 772 q 456 806 414 772 q 509 897 498 839 l 546 880 q 479 744 534 794 q 358 693 424 693 q 234 742 284 693 q 171 880 184 791 l 208 897 m 507 127 q 413 27 469 68 q 297 -14 357 -14 q 158 42 201 -14 q 115 179 115 97 l 115 346 q 103 596 115 507 l 106 600 q 171 596 131 596 q 236 600 211 596 l 239 596 q 227 346 227 513 l 227 208 q 251 92 227 121 q 319 64 275 64 q 421 107 368 64 q 510 210 475 151 l 510 346 q 497 596 510 504 l 500 600 q 565 596 525 596 q 631 600 606 596 l 633 596 q 621 346 621 513 l 621 267 q 644 0 621 126 l 642 -4 q 580 0 614 0 q 532 -4 564 0 q 519 0 519 -4 l 513 123 l 507 127 z "},"Ů":{"ha":961,"x_min":131,"x_max":844,"o":"m 482 1082 q 431 1059 450 1082 q 412 1004 412 1036 q 432 950 412 974 q 482 926 452 926 q 532 950 513 926 q 551 1004 551 974 q 532 1060 551 1038 q 482 1082 513 1082 m 397 923 q 379 940 397 923 q 361 1004 361 957 q 397 1085 361 1051 q 482 1120 433 1120 q 567 1086 530 1120 q 603 1004 603 1053 q 567 923 603 957 q 482 889 532 889 q 397 923 433 889 m 755 618 q 742 896 755 797 l 745 900 q 793 896 770 896 q 842 900 817 896 l 844 896 q 831 618 831 804 l 831 410 q 749 97 831 207 q 468 -14 668 -14 q 363 1 414 -14 q 260 50 313 16 q 176 156 208 85 q 144 328 144 228 l 144 618 q 131 896 144 797 l 134 900 q 204 896 159 896 q 275 900 250 896 l 278 896 q 264 618 264 804 l 264 374 q 497 64 264 64 q 614 83 565 64 q 690 132 663 103 q 732 206 717 160 q 751 291 747 252 q 755 385 755 330 l 755 618 z "},"ů":{"ha":765,"x_min":106,"x_max":663,"o":"m 400 900 q 349 877 368 900 q 330 822 330 854 q 350 768 330 791 q 400 745 370 745 q 450 768 431 745 q 469 822 469 791 q 450 878 469 855 q 400 900 431 900 m 315 741 q 297 758 315 741 q 279 822 279 775 q 315 903 279 869 q 400 937 351 937 q 485 904 449 937 q 521 822 521 871 q 486 741 521 774 q 400 707 450 707 q 315 741 351 707 m 648 389 l 648 311 q 589 69 648 151 q 374 -14 530 -14 q 293 0 335 -14 q 211 42 252 14 q 145 125 171 71 q 119 252 119 180 l 119 389 q 106 639 119 555 l 107 643 q 176 639 128 639 l 244 643 l 248 639 q 233 389 234 551 l 233 281 q 236 205 233 236 q 249 140 239 174 q 276 86 258 107 q 323 52 293 65 q 397 39 354 39 q 483 55 448 39 q 537 93 518 71 q 565 154 555 115 q 577 220 575 192 q 579 293 579 249 l 579 389 q 566 639 579 555 l 567 643 q 614 639 600 639 l 660 643 l 663 639 q 648 389 648 551 z "},"Ű":{"ha":961,"x_min":131,"x_max":844,"o":"m 714 1100 q 704 1072 714 1082 l 567 956 q 555 951 563 951 q 544 956 550 951 q 538 970 538 961 q 539 977 538 973 q 543 985 540 980 l 625 1136 q 657 1153 636 1153 q 700 1136 685 1153 q 714 1100 714 1120 m 532 1107 q 522 1080 532 1088 l 400 968 q 380 958 389 958 q 363 975 362 958 q 366 990 363 983 l 441 1143 q 479 1160 451 1160 q 515 1144 498 1160 q 532 1107 532 1129 m 755 618 q 742 896 755 797 l 745 900 q 793 896 770 896 q 842 900 817 896 l 844 896 q 831 618 831 804 l 831 410 q 749 97 831 207 q 468 -14 668 -14 q 363 1 414 -14 q 260 50 313 16 q 176 156 208 85 q 144 328 144 228 l 144 618 q 131 896 144 797 l 134 900 q 204 896 159 896 q 275 900 250 896 l 278 896 q 264 618 264 804 l 264 374 q 497 64 264 64 q 614 83 565 64 q 690 132 663 103 q 732 206 717 160 q 751 291 747 252 q 755 385 755 330 l 755 618 z "},"ű":{"ha":765,"x_min":106,"x_max":663,"o":"m 661 893 q 652 867 661 876 l 493 714 q 485 711 490 711 q 472 717 479 711 q 465 729 465 722 q 467 734 465 733 l 575 928 q 608 945 585 945 q 645 929 629 945 q 661 893 661 913 m 478 901 q 471 879 478 888 l 329 711 q 318 707 325 707 q 298 725 298 707 q 300 729 298 728 l 389 932 q 425 951 397 951 q 463 937 448 951 q 478 901 478 922 m 648 389 l 648 311 q 589 69 648 151 q 374 -14 530 -14 q 293 0 335 -14 q 211 42 252 14 q 145 125 171 71 q 119 252 119 180 l 119 389 q 106 639 119 555 l 107 643 q 176 639 128 639 l 244 643 l 248 639 q 233 389 234 551 l 233 281 q 236 205 233 236 q 249 140 239 174 q 276 86 258 107 q 323 52 293 65 q 397 39 354 39 q 483 55 448 39 q 537 93 518 71 q 565 154 555 115 q 577 220 575 192 q 579 293 579 249 l 579 389 q 566 639 579 555 l 567 643 q 614 639 600 639 l 660 643 l 663 639 q 648 389 648 551 z "},"Ų":{"ha":961,"x_min":131,"x_max":844,"o":"m 729 -176 q 591 -254 665 -254 q 511 -226 540 -254 q 482 -149 482 -197 q 547 -9 482 -79 q 468 -14 509 -14 q 363 1 414 -14 q 260 50 313 16 q 176 156 208 85 q 144 328 144 228 l 144 618 q 131 896 144 797 l 134 900 q 204 896 159 896 q 275 900 250 896 l 278 896 q 264 618 264 804 l 264 374 q 497 64 264 64 q 614 83 565 64 q 690 132 663 103 q 732 206 717 160 q 751 291 747 252 q 755 385 755 330 l 755 618 q 742 896 755 797 l 745 900 q 793 896 770 896 q 842 900 817 896 l 844 896 q 831 618 831 804 l 831 410 q 666 28 831 115 q 648 18 656 22 q 592 -58 610 -23 q 574 -134 574 -92 q 590 -175 574 -157 q 632 -193 606 -193 q 705 -151 667 -193 l 710 -153 l 729 -176 z "},"ų":{"ha":745,"x_min":103,"x_max":644,"o":"m 482 -289 q 388 -260 424 -289 q 353 -176 353 -232 q 399 -60 353 -121 q 517 34 446 1 l 513 123 l 507 127 q 413 27 469 68 q 297 -14 357 -14 q 158 42 201 -14 q 115 179 115 97 l 115 346 q 103 596 115 507 l 106 600 q 171 596 131 596 q 236 600 211 596 l 239 596 q 227 346 227 513 l 227 208 q 251 92 227 121 q 319 64 275 64 q 421 107 368 64 q 510 210 475 151 l 510 346 q 497 596 510 504 l 500 600 q 565 596 525 596 q 631 600 606 596 l 633 596 q 621 346 621 513 l 621 267 q 644 0 621 126 l 642 -4 q 580 0 614 0 q 532 -4 564 0 q 524 -3 527 -4 q 460 -73 484 -31 q 436 -153 436 -116 q 458 -210 436 -187 q 518 -233 481 -233 q 614 -186 567 -233 l 635 -196 q 567 -266 611 -242 q 482 -289 524 -289 z "},"Ŵ":{"ha":1320,"x_min":22,"x_max":1296,"o":"m 664 1118 q 804 987 721 1050 l 782 958 q 635 1044 696 998 q 486 958 566 993 l 467 987 q 604 1118 526 1032 l 664 1118 m 895 183 q 928 261 899 193 q 966 348 958 329 q 1001 430 974 367 q 1039 520 1028 493 q 1072 602 1050 547 q 1106 688 1095 656 q 1134 762 1118 720 q 1160 838 1150 804 q 1178 900 1169 871 q 1247 896 1195 896 q 1296 900 1279 896 q 886 -14 1027 309 l 847 -14 q 665 488 766 215 l 441 -14 l 403 -14 q 269 312 357 96 q 117 683 182 528 q 22 900 53 838 q 106 896 46 896 q 175 900 152 896 q 449 171 257 611 l 452 171 q 628 586 590 492 q 579 715 602 656 q 539 822 557 774 q 509 900 520 871 q 591 896 532 896 q 668 900 644 896 q 892 183 705 730 l 895 183 z "},"ŵ":{"ha":996,"x_min":28,"x_max":968,"o":"m 545 896 q 685 717 591 822 l 656 697 q 509 822 557 769 q 359 697 448 760 l 332 717 q 475 896 431 828 l 545 896 m 278 -5 q 28 599 143 346 q 101 595 50 595 q 171 599 153 595 q 195 522 175 587 q 222 437 216 457 q 246 364 228 418 q 275 280 264 310 q 303 206 286 250 q 337 123 320 162 l 346 123 q 463 426 389 216 q 403 600 428 524 q 476 596 425 596 q 546 600 528 596 q 679 125 609 309 l 690 125 q 861 600 772 317 q 908 596 873 596 q 968 600 956 596 q 710 -4 884 417 q 659 0 698 0 q 623 -4 636 0 q 560 164 602 52 q 498 330 518 276 q 374 -5 457 229 q 323 -1 361 -1 q 278 -5 292 -1 z "},"Ŷ":{"ha":808,"x_min":22,"x_max":783,"o":"m 436 1118 q 576 987 493 1050 l 554 958 q 407 1044 468 998 q 258 958 338 993 l 239 987 q 376 1118 298 1032 l 436 1118 m 463 396 q 472 -4 465 74 q 402 0 447 0 q 334 -4 358 0 q 343 382 343 103 q 182 646 302 452 q 22 900 62 840 q 102 896 57 896 q 180 900 144 896 q 424 472 214 835 q 667 900 579 716 q 725 896 692 896 q 783 900 755 896 q 674 733 741 833 q 578 588 607 632 q 517 490 550 545 q 463 396 484 436 z "},"ŷ":{"ha":703,"x_min":39,"x_max":664,"o":"m 406 897 q 546 718 452 823 l 517 699 q 370 823 418 770 q 221 699 309 761 l 193 718 q 336 897 293 829 l 406 897 m 39 600 q 111 596 58 596 q 179 600 161 596 q 365 121 225 458 l 368 121 q 550 600 461 321 q 604 596 564 596 q 664 600 650 596 q 450 132 604 479 q 261 -329 296 -216 q 193 -322 237 -322 q 144 -329 168 -322 q 309 -14 244 -161 q 39 600 280 61 z "},"Ÿ":{"ha":808,"x_min":22,"x_max":783,"o":"m 262 995 q 252 1005 262 995 q 243 1042 243 1014 q 262 1089 243 1069 q 309 1108 282 1108 q 354 1089 335 1108 q 374 1042 374 1069 q 355 995 374 1014 q 309 977 336 977 q 262 995 281 977 m 497 995 q 488 1005 497 995 q 478 1042 478 1014 q 497 1089 478 1069 q 543 1108 517 1108 q 589 1089 570 1108 q 608 1042 608 1069 q 589 995 608 1014 q 543 977 570 977 q 497 995 517 977 m 463 396 q 472 -4 465 74 q 402 0 447 0 q 334 -4 358 0 q 343 382 343 103 q 182 646 302 452 q 22 900 62 840 q 102 896 57 896 q 180 900 144 896 q 424 472 214 835 q 667 900 579 716 q 725 896 692 896 q 783 900 755 896 q 674 733 741 833 q 578 588 607 632 q 517 490 550 545 q 463 396 484 436 z "},"Ź":{"ha":863,"x_min":60,"x_max":802,"o":"m 484 1139 q 570 1067 543 1111 l 370 986 q 311 970 331 969 q 290 990 290 970 q 311 1019 290 1006 l 484 1139 m 260 75 q 472 82 340 75 q 696 96 604 89 l 787 104 l 790 100 q 787 54 787 77 q 790 0 787 39 l 787 -4 q 689 0 754 0 l 184 0 l 64 -4 l 60 1 q 80 31 68 12 q 96 53 93 50 l 608 804 q 604 821 619 821 q 451 816 528 821 q 277 804 375 811 q 111 791 179 796 l 109 796 q 111 842 111 819 q 109 896 111 857 l 111 900 q 196 896 144 896 l 618 896 q 793 904 730 896 q 802 896 801 904 q 760 821 802 879 l 267 100 q 260 75 260 91 z "},"ź":{"ha":618,"x_min":29,"x_max":589,"o":"m 351 936 q 371 939 359 939 q 447 907 414 939 l 452 892 l 292 741 q 250 714 265 714 q 237 720 243 714 q 231 732 231 725 q 246 771 231 745 l 351 936 m 203 75 q 376 79 283 75 q 522 87 469 83 l 575 90 l 578 86 q 575 40 575 64 q 578 0 575 39 l 575 -4 q 492 0 542 0 l 155 0 l 35 -4 l 29 3 l 62 47 l 412 564 q 251 559 336 562 q 120 552 167 555 l 74 549 l 69 553 q 74 599 73 586 q 72 618 74 606 q 69 639 69 631 l 74 643 q 157 639 107 639 l 460 639 q 507 642 479 639 q 556 646 534 644 q 581 648 578 648 q 589 639 589 648 q 543 576 583 632 l 203 75 z "},"Ż":{"ha":863,"x_min":60,"x_max":802,"o":"m 374 1034 q 363 1045 374 1034 q 353 1084 353 1055 q 374 1135 353 1114 q 425 1157 396 1157 q 476 1135 454 1157 q 497 1084 497 1114 q 476 1034 497 1055 q 425 1013 454 1013 q 374 1034 396 1013 m 260 75 q 472 82 340 75 q 696 96 604 89 l 787 104 l 790 100 q 787 54 787 77 q 790 0 787 39 l 787 -4 q 689 0 754 0 l 184 0 l 64 -4 l 60 1 q 80 31 68 12 q 96 53 93 50 l 608 804 q 604 821 619 821 q 451 816 528 821 q 277 804 375 811 q 111 791 179 796 l 109 796 q 111 842 111 819 q 109 896 111 857 l 111 900 q 196 896 144 896 l 618 896 q 793 904 730 896 q 802 896 801 904 q 760 821 802 879 l 267 100 q 260 75 260 91 z "},"ż":{"ha":618,"x_min":29,"x_max":589,"o":"m 280 780 q 269 791 280 780 q 258 829 258 802 q 280 879 258 857 q 329 900 301 900 q 378 879 357 900 q 400 829 400 857 q 378 780 400 802 q 329 758 357 758 q 280 780 301 758 m 203 75 q 376 79 283 75 q 522 87 469 83 l 575 90 l 578 86 q 575 40 575 64 q 578 0 575 39 l 575 -4 q 492 0 542 0 l 155 0 l 35 -4 l 29 3 l 62 47 l 412 564 q 251 559 336 562 q 120 552 167 555 l 74 549 l 69 553 q 74 599 73 586 q 72 618 74 606 q 69 639 69 631 l 74 643 q 157 639 107 639 l 460 639 q 507 642 479 639 q 556 646 534 644 q 581 648 578 648 q 589 639 589 648 q 543 576 583 632 l 203 75 z "},"Ž":{"ha":863,"x_min":60,"x_max":802,"o":"m 389 968 q 249 1100 338 1030 l 271 1128 q 418 1043 354 1092 q 567 1128 497 1099 l 587 1100 q 449 968 518 1047 l 389 968 m 260 75 q 472 82 340 75 q 696 96 604 89 l 787 104 l 790 100 q 787 54 787 77 q 790 0 787 39 l 787 -4 q 689 0 754 0 l 184 0 l 64 -4 l 60 1 q 80 31 68 12 q 96 53 93 50 l 608 804 q 604 821 619 821 q 451 816 528 821 q 277 804 375 811 q 111 791 179 796 l 109 796 q 111 842 111 819 q 109 896 111 857 l 111 900 q 196 896 144 896 l 618 896 q 793 904 730 896 q 802 896 801 904 q 760 821 802 879 l 267 100 q 260 75 260 91 z "},"ž":{"ha":618,"x_min":29,"x_max":589,"o":"m 293 713 q 153 893 240 799 l 180 911 q 328 786 279 839 q 478 911 380 840 l 504 893 q 363 713 411 789 l 293 713 m 203 75 q 376 79 283 75 q 522 87 469 83 l 575 90 l 578 86 q 575 40 575 64 q 578 0 575 39 l 575 -4 q 492 0 542 0 l 155 0 l 35 -4 l 29 3 l 62 47 l 412 564 q 251 559 336 562 q 120 552 167 555 l 74 549 l 69 553 q 74 599 73 586 q 72 618 74 606 q 69 639 69 631 l 74 643 q 157 639 107 639 l 460 639 q 507 642 479 639 q 556 646 534 644 q 581 648 578 648 q 589 639 589 648 q 543 576 583 632 l 203 75 z "},"ſ":{"ha":402,"x_min":40,"x_max":452,"o":"m 236 610 l 236 278 q 250 0 236 94 l 248 -4 q 180 0 228 0 q 113 -4 180 0 l 111 0 q 125 278 125 87 l 125 513 q 109 534 125 535 l 47 534 q 40 542 41 534 l 40 568 q 72 596 40 596 q 125 663 125 596 q 133 781 125 747 q 178 864 142 814 q 387 970 256 970 q 450 957 430 970 l 452 953 q 412 839 435 924 l 397 838 q 317 886 371 886 q 246 849 262 886 q 229 743 229 812 q 233 681 229 732 q 236 610 236 629 z "},"ƀ":{"ha":700,"x_min":11,"x_max":654,"o":"m 367 766 l 367 720 l 225 720 q 225 694 225 720 l 225 541 q 399 610 289 610 q 579 528 503 610 q 654 322 654 446 q 565 72 654 158 q 355 -14 475 -14 q 192 54 271 -14 q 146 -14 170 13 q 107 -3 118 -14 q 114 102 114 33 l 114 669 q 113 720 114 694 l 11 720 l 11 766 l 112 766 q 97 937 108 876 l 100 942 q 221 970 162 946 q 233 956 233 970 q 225 766 227 868 l 367 766 m 225 113 q 282 63 248 85 q 347 41 317 41 q 487 110 443 41 q 530 311 530 178 q 485 494 530 433 q 371 554 440 554 q 300 535 331 554 q 225 472 269 517 l 225 113 z "},"Ɓ":{"ha":905,"x_min":7,"x_max":850,"o":"m 343 842 l 343 518 l 453 518 q 615 566 571 518 q 660 677 660 614 q 454 847 660 847 q 343 842 386 847 m 343 464 l 343 52 q 465 45 397 45 q 665 106 606 45 q 725 254 725 168 q 715 321 725 288 q 683 388 705 354 q 614 443 660 422 q 504 464 568 464 l 343 464 m 7 708 q 66 835 7 774 q 224 896 125 896 l 503 896 q 633 875 578 896 q 715 820 688 854 q 753 751 742 786 q 765 681 765 717 q 729 576 765 625 q 637 498 693 526 q 768 432 718 477 q 834 342 818 386 q 850 254 850 298 q 762 72 850 146 q 566 -3 673 -3 q 409 -1 506 -3 q 286 0 311 0 l 127 -3 l 127 26 q 136 37 127 37 l 179 37 q 209 41 199 37 q 224 54 220 45 q 230 72 229 64 q 231 100 231 81 l 231 798 q 203 859 231 859 q 127 833 158 859 q 96 770 96 807 q 102 736 96 759 l 106 707 q 91 669 106 682 q 57 657 77 657 q 21 672 36 657 q 7 708 7 687 z "},"Ƃ":{"ha":786,"x_min":24,"x_max":726,"o":"m 239 482 l 239 58 q 357 47 305 47 q 608 261 608 47 q 597 339 608 302 q 561 409 586 375 q 487 463 536 443 q 368 482 437 482 l 239 482 m 126 800 q 117 848 126 838 q 72 859 107 859 l 31 859 q 24 864 24 859 l 24 896 l 650 896 l 668 701 l 632 697 q 571 813 608 783 q 479 843 534 843 l 239 843 l 239 529 l 318 529 q 624 470 522 529 q 726 258 726 411 q 642 68 726 136 q 439 0 558 0 l 24 0 l 24 31 q 31 37 24 35 l 72 37 q 126 104 126 37 l 126 800 z "},"ƃ":{"ha":669,"x_min":7,"x_max":612,"o":"m 207 75 q 307 33 240 34 q 454 110 403 33 q 505 310 505 186 q 459 481 505 414 q 349 549 414 549 q 207 490 264 549 l 207 75 m 264 956 l 543 956 l 562 761 l 526 757 q 477 862 511 817 q 395 908 444 908 l 207 908 l 207 533 q 376 610 277 610 q 542 530 471 610 q 612 328 612 450 q 522 79 612 172 q 315 -14 431 -14 q 171 35 228 -14 q 127 -17 160 19 l 98 -9 q 103 98 102 22 l 103 803 q 93 881 103 860 q 61 901 83 901 l 17 897 q 9 904 10 897 l 7 939 q 264 956 107 956 z "},"Ƅ":{"ha":794,"x_min":32,"x_max":734,"o":"m 248 482 l 248 57 q 366 47 296 47 q 616 261 617 47 q 606 339 616 302 q 570 409 595 375 q 495 463 545 443 q 376 482 446 482 l 248 482 m 135 642 q 109 742 135 705 q 40 786 82 778 l 40 833 q 210 914 137 852 l 248 914 l 248 529 l 325 529 q 632 470 529 529 q 734 258 734 411 q 651 68 734 136 q 447 0 567 0 l 32 0 l 32 31 q 39 37 32 36 l 81 37 q 135 103 135 37 l 135 642 z "},"ƅ":{"ha":673,"x_min":17,"x_max":624,"o":"m 216 77 q 318 33 252 34 q 465 111 412 33 q 517 313 517 189 q 471 484 517 417 q 358 550 425 550 q 216 492 273 550 l 216 77 m 114 696 q 17 840 114 817 l 17 888 q 186 970 114 909 l 216 970 l 216 534 q 387 610 286 610 q 553 531 481 610 q 624 330 624 453 q 532 81 624 175 q 325 -14 440 -14 q 180 36 240 -14 q 138 -16 171 22 l 110 -8 q 114 102 114 42 l 114 696 z "},"Ɔ":{"ha":940,"x_min":33,"x_max":825,"o":"m 370 -14 q 219 2 294 -14 q 105 33 143 17 l 66 49 l 64 53 q 92 207 87 153 l 106 208 q 389 52 184 52 q 483 73 435 52 q 578 137 532 94 q 653 258 624 180 q 682 436 682 336 q 648 632 682 542 q 539 783 614 722 q 363 843 465 843 q 204 812 267 843 q 66 700 142 782 l 33 726 q 375 914 176 913 q 623 847 518 914 q 777 679 728 779 q 825 463 825 578 q 688 124 825 262 q 370 -14 550 -14 z "},"Ƈ":{"ha":940,"x_min":72,"x_max":974,"o":"m 924 1032 q 962 1016 950 1032 q 974 982 974 999 q 904 933 974 933 q 864 916 886 933 q 824 880 842 898 q 803 863 807 863 l 831 851 l 833 847 q 806 693 810 747 l 791 692 q 509 848 713 848 q 414 827 463 848 q 319 763 366 806 q 244 642 273 720 q 215 464 215 564 q 249 268 215 358 q 358 117 283 178 q 534 57 432 57 q 693 87 630 57 q 831 200 755 118 l 864 174 q 522 -14 721 -14 q 274 54 379 -14 q 121 221 170 121 q 72 437 72 322 q 210 776 72 637 q 528 914 347 914 q 766 876 646 914 q 829 990 779 948 q 924 1032 880 1032 z "},"ƈ":{"ha":684,"x_min":53,"x_max":681,"o":"m 633 595 q 598 601 623 595 q 561 607 574 607 q 508 582 530 607 q 533 571 522 576 l 536 567 l 504 453 l 486 452 q 478 464 482 458 q 471 475 475 469 q 463 486 467 481 q 454 486 458 486 q 445 486 450 486 q 438 487 441 486 q 436 488 436 487 q 439 513 437 503 q 410 535 425 526 q 379 549 395 545 q 347 554 363 554 q 225 488 275 554 q 175 310 175 421 q 226 124 175 192 q 355 56 277 56 q 504 114 439 56 l 510 114 l 536 85 q 332 -14 458 -14 q 129 72 204 -14 q 53 302 53 158 q 143 524 53 437 q 349 610 233 610 q 466 595 408 610 q 538 668 494 644 q 623 693 583 693 q 668 678 654 693 q 681 643 681 663 q 668 608 681 621 q 633 595 656 595 z "},"Ɖ":{"ha":986,"x_min":24,"x_max":914,"o":"m 264 114 q 290 69 264 79 q 415 58 317 58 q 555 72 496 58 q 665 121 614 86 q 744 224 717 155 q 771 395 771 293 q 751 555 771 481 q 689 696 732 629 q 567 801 646 762 q 380 839 489 839 q 293 828 322 839 q 264 783 264 817 l 264 453 l 400 453 l 400 399 l 264 399 l 264 114 m 204 896 q 319 898 249 896 q 433 900 389 900 q 774 761 633 900 q 914 428 914 623 q 885 252 914 330 q 810 129 856 175 q 703 52 765 82 q 582 9 642 21 q 458 -3 522 -3 q 314 -1 380 -3 q 204 0 248 0 l 132 -4 l 131 0 q 144 278 144 94 l 144 399 l 24 399 l 24 453 l 144 453 l 144 618 q 131 896 144 797 l 134 900 q 204 896 157 896 z "},"Ɗ":{"ha":1080,"x_min":3,"x_max":1021,"o":"m 372 100 q 399 55 372 65 q 524 45 425 45 q 895 395 895 45 q 872 556 895 479 q 805 702 850 633 q 679 810 760 770 q 490 850 597 850 q 401 840 429 850 q 372 798 372 831 l 372 100 m 102 707 q 89 672 102 684 q 54 660 75 660 q 3 717 3 660 q 57 837 3 777 q 215 897 111 897 q 264 897 233 897 q 314 896 294 896 q 444 897 364 896 q 542 897 524 897 q 881 760 742 897 q 1021 428 1021 623 q 567 -3 1021 -3 q 446 -1 527 -3 q 314 0 364 0 l 136 -3 l 136 25 q 146 37 136 37 l 187 37 q 243 53 226 37 q 260 102 260 68 l 260 794 q 249 844 260 829 q 210 859 239 859 q 127 838 163 859 q 90 775 90 817 q 96 741 90 766 q 102 707 102 725 z "},"Ƌ":{"ha":780,"x_min":58,"x_max":753,"o":"m 539 482 l 415 482 q 230 417 284 482 q 175 261 175 353 q 428 45 175 45 q 539 57 477 45 l 539 482 m 650 800 l 650 103 q 705 37 650 38 l 747 37 q 753 31 753 36 l 753 -3 q 595 0 656 0 q 470 -1 546 0 q 346 -3 393 -3 q 142 67 225 -3 q 58 258 58 136 q 86 392 58 338 q 170 475 114 446 q 296 517 225 505 q 467 529 367 529 l 539 529 l 539 843 l 306 843 q 213 813 250 843 q 151 697 176 783 l 115 701 l 135 914 q 292 896 204 896 l 593 896 l 753 897 l 753 864 q 747 859 753 859 l 705 859 q 660 848 671 859 q 650 800 650 838 z "},"ƌ":{"ha":686,"x_min":47,"x_max":677,"o":"m 464 126 l 464 479 q 328 562 411 563 q 199 492 245 562 q 155 307 156 432 q 208 113 155 181 q 325 45 261 45 q 388 64 357 45 q 464 126 419 83 m 567 970 l 582 957 q 568 890 568 939 l 568 167 q 574 93 568 113 q 604 72 581 72 q 672 77 652 72 l 677 37 q 496 -17 529 12 l 463 -17 l 467 82 q 289 -14 374 -14 q 113 69 178 -14 q 47 282 47 151 q 135 526 47 439 q 343 610 222 610 q 464 579 410 610 l 464 876 q 457 901 464 895 q 432 908 450 908 l 262 908 q 180 862 214 908 q 132 757 147 817 l 96 761 l 115 970 q 262 956 178 956 l 484 956 q 567 970 547 962 z "},"ƍ":{"ha":680,"x_min":47,"x_max":635,"o":"m 322 33 l 346 16 l 335 37 q 528 297 528 106 q 478 478 528 394 q 340 562 429 562 q 281 553 309 562 q 223 517 253 543 q 175 437 193 492 q 157 301 157 382 q 191 179 157 245 q 281 68 225 113 l 322 33 m 361 3 l 386 -18 q 515 -183 515 -120 q 461 -292 515 -257 q 325 -326 407 -326 q 164 -282 231 -326 q 98 -199 98 -239 q 115 -160 98 -172 q 151 -147 132 -147 q 222 -208 190 -147 q 326 -281 260 -280 q 443 -197 443 -281 q 326 -72 443 -163 l 228 5 q 91 140 134 79 q 47 286 47 201 q 140 527 47 444 q 355 610 232 610 q 558 528 481 610 q 635 321 635 446 q 361 3 634 98 z "},"Ǝ":{"ha":777,"x_min":119,"x_max":659,"o":"m 525 278 l 525 446 q 215 432 353 446 l 211 436 q 215 475 215 456 q 211 514 215 494 l 215 518 q 525 504 379 505 l 525 618 q 514 828 525 790 q 336 824 431 828 q 189 815 241 819 l 136 811 l 134 817 q 136 852 136 839 q 134 896 136 857 l 136 900 q 220 896 170 896 l 585 896 q 656 900 585 896 l 659 896 q 644 618 645 798 l 644 278 q 659 0 644 95 l 657 -4 q 585 0 633 0 l 205 0 q 122 -4 155 0 l 119 0 q 122 40 122 39 q 119 86 122 64 l 122 92 q 514 75 328 75 q 525 278 525 113 z "},"Ə":{"ha":894,"x_min":58,"x_max":848,"o":"m 135 726 l 103 760 q 260 881 196 847 q 431 914 323 914 q 621 874 538 914 q 752 766 704 833 q 824 619 800 699 q 848 453 848 539 q 742 113 848 243 q 439 -17 635 -17 q 270 14 343 -17 q 154 99 197 45 q 87 218 111 153 q 58 361 64 283 l 722 361 q 724 412 724 376 q 635 738 724 608 q 408 867 547 867 q 294 844 347 867 q 211 797 240 821 q 135 726 182 774 m 170 300 q 273 98 201 166 q 449 31 345 31 q 621 108 553 31 q 710 300 689 186 l 170 300 z "},"Ɛ":{"ha":718,"x_min":53,"x_max":660,"o":"m 410 914 q 524 895 465 914 q 610 872 583 875 l 636 673 l 593 667 q 531 817 570 766 q 399 867 492 867 q 257 822 311 867 q 203 694 203 778 q 208 649 203 672 q 228 599 214 625 q 263 553 241 572 q 321 520 285 533 q 403 507 357 507 l 497 507 q 521 479 521 507 q 497 453 521 453 l 363 453 q 217 396 261 453 q 172 258 172 339 q 228 85 172 140 q 372 31 283 31 q 525 81 454 31 q 618 236 595 132 l 660 232 l 636 32 q 536 6 623 29 q 385 -17 450 -17 q 272 -6 325 -17 q 166 31 218 5 q 83 107 114 57 q 53 231 53 158 q 112 400 53 335 q 253 488 171 465 q 211 508 232 494 q 164 544 191 521 q 121 604 138 567 q 104 684 104 640 q 197 854 104 793 q 410 914 289 914 z "},"Ƒ":{"ha":703,"x_min":-90,"x_max":692,"o":"m 279 454 l 279 58 q 257 -105 279 -36 q 199 -210 235 -175 q 126 -260 163 -244 q 54 -275 90 -275 q -43 -254 4 -275 q -90 -183 -90 -232 q -47 -142 -90 -142 q 7 -196 -7 -142 q 54 -232 12 -232 q 138 -151 107 -232 q 168 86 168 -69 l 168 798 q 154 844 168 829 q 96 859 139 859 l 54 859 q 43 868 43 859 l 43 896 l 49 897 l 222 896 l 325 897 l 663 897 q 692 682 671 790 l 652 675 q 628 743 638 720 q 600 793 618 766 q 555 830 582 819 q 492 842 529 842 l 329 842 q 279 798 279 842 l 279 501 l 456 501 q 504 516 490 501 q 525 562 518 530 l 534 604 q 546 615 537 615 l 576 615 q 581 610 581 615 q 570 478 570 525 q 581 345 570 431 l 578 340 l 546 340 q 533 350 536 340 l 525 393 q 504 440 519 425 q 456 454 489 454 l 279 454 z "},"ƒ":{"ha":625,"x_min":-21,"x_max":600,"o":"m 453 970 q 564 940 528 970 q 600 875 600 911 q 588 838 600 852 q 555 823 576 823 q 501 859 508 823 q 452 929 489 929 q 367 751 392 929 l 347 597 l 493 597 l 486 543 l 339 543 l 336 519 q 258 -66 284 58 q 132 -312 214 -274 q 82 -322 109 -322 q 5 -296 31 -322 q -21 -244 -21 -269 q -8 -213 -21 -227 q 22 -199 4 -199 q 68 -228 54 -199 q 72 -242 71 -233 q 75 -256 74 -250 q 82 -266 77 -261 q 97 -271 87 -271 q 152 -229 130 -271 q 185 -110 174 -187 q 201 44 196 -32 q 213 223 207 119 q 224 386 218 328 l 240 543 l 125 543 l 134 597 l 183 597 q 260 671 250 597 q 333 893 278 817 q 453 970 388 970 z "},"Ɠ":{"ha":996,"x_min":72,"x_max":997,"o":"m 947 1032 q 985 1016 974 1032 q 997 982 997 999 q 928 933 997 933 q 912 934 922 933 q 900 935 903 935 q 889 933 892 935 q 829 868 843 925 l 873 851 l 876 847 q 848 679 854 753 l 835 677 q 709 803 787 757 q 538 848 631 848 q 305 742 395 848 q 215 454 215 635 q 234 313 215 382 q 291 184 253 244 q 397 87 329 123 q 554 50 465 50 q 758 103 703 50 l 758 163 q 745 427 754 355 l 747 431 q 818 427 771 427 l 890 431 l 892 427 q 878 191 878 335 l 878 182 q 892 115 878 132 l 892 111 q 522 -14 743 -14 q 196 120 319 -14 q 72 440 72 253 q 114 643 72 551 q 225 792 155 734 q 380 882 294 850 q 557 914 467 914 q 790 880 669 914 q 854 991 804 950 q 947 1032 904 1032 z "},"Ɣ":{"ha":857,"x_min":0,"x_max":857,"o":"m 404 -28 q 355 -128 376 -69 q 334 -208 334 -187 q 372 -256 334 -256 q 408 -224 397 -256 q 418 -158 418 -192 q 404 -28 418 -86 m 677 798 q 688 835 687 821 q 611 859 688 859 l 586 859 q 575 869 575 859 l 575 896 l 578 897 q 733 896 680 896 l 854 897 l 857 896 l 857 869 q 846 859 857 859 q 780 846 801 859 q 745 798 758 833 l 478 85 q 507 -44 495 25 q 519 -138 519 -114 q 481 -262 519 -210 q 374 -315 443 -315 q 294 -288 321 -315 q 267 -222 267 -260 q 375 50 267 -167 l 113 794 q 75 846 99 833 q 11 859 50 859 q 0 869 0 859 l 0 896 l 3 897 q 165 896 111 896 l 338 897 l 340 896 l 340 869 q 329 859 340 859 l 292 859 q 225 822 225 859 q 231 794 225 817 l 404 300 l 447 179 l 490 296 l 677 798 z "},"ƕ":{"ha":991,"x_min":25,"x_max":937,"o":"m 122 782 q 113 868 122 846 q 81 890 103 890 l 36 893 q 28 900 28 893 l 25 933 q 127 948 68 936 q 212 970 186 960 q 231 956 231 970 q 227 810 227 900 l 227 498 q 456 610 338 610 q 606 395 606 610 l 606 180 q 710 49 606 48 q 837 136 785 49 q 888 329 888 222 q 803 507 888 492 q 745 558 745 511 q 760 594 745 579 q 802 610 775 610 q 937 346 938 610 q 870 76 937 168 q 710 -17 803 -17 q 501 184 505 -17 l 501 410 q 478 517 501 490 q 393 545 454 545 q 227 447 326 545 l 227 100 q 240 53 227 68 q 286 39 253 39 l 313 39 q 323 28 323 39 l 323 1 l 321 -1 q 172 1 227 1 l 29 -1 l 26 1 l 26 28 q 36 39 26 39 l 62 39 q 109 53 96 39 q 122 100 122 68 l 122 782 z "},"Ɩ":{"ha":402,"x_min":28,"x_max":393,"o":"m 125 782 q 115 868 125 846 q 83 890 106 890 l 39 893 q 31 900 31 893 l 28 933 q 130 948 71 936 q 215 970 189 960 q 233 956 233 970 q 229 810 229 900 l 229 187 q 239 90 229 119 q 275 60 249 60 q 368 98 318 60 l 393 75 q 227 -17 311 -16 q 125 121 125 -17 l 125 782 z "},"Ɨ":{"ha":408,"x_min":26,"x_max":380,"o":"m 380 511 l 380 464 l 264 464 l 264 278 q 278 0 264 99 l 275 -4 q 204 0 250 0 q 134 -4 158 0 l 131 0 q 144 278 144 94 l 144 464 l 26 464 l 26 511 l 144 511 l 144 618 q 131 896 144 797 l 134 900 q 204 896 159 896 q 275 900 250 896 l 278 896 q 264 618 264 804 l 264 511 l 380 511 z "},"Ƙ":{"ha":884,"x_min":131,"x_max":879,"o":"m 728 914 q 830 883 789 914 q 872 817 872 852 q 857 781 872 795 q 822 766 842 766 q 790 782 803 766 q 771 817 778 798 q 750 851 765 836 q 713 867 736 867 q 689 856 703 867 q 655 824 675 846 q 620 780 636 802 q 577 725 603 758 q 533 671 551 692 q 468 598 508 642 q 413 533 428 554 q 397 497 397 511 q 416 463 397 485 l 749 102 q 857 39 803 39 l 867 39 q 879 28 879 39 l 879 1 l 875 -1 q 717 1 770 1 l 633 -1 l 631 1 l 631 9 q 603 102 631 71 l 350 376 q 264 428 309 420 l 264 278 q 278 0 264 99 l 275 -4 q 204 0 250 0 q 134 -4 158 0 l 131 0 q 144 278 144 94 l 144 618 q 131 896 144 797 l 134 900 q 204 896 159 896 q 275 900 250 896 l 278 896 q 264 618 264 804 l 264 483 q 302 501 283 488 q 345 536 321 514 q 505 714 433 625 q 559 784 522 735 q 613 853 596 833 q 663 894 631 873 q 728 914 694 914 z "},"ƙ":{"ha":665,"x_min":26,"x_max":660,"o":"m 122 689 q 172 888 122 807 q 323 970 221 970 q 412 949 370 970 q 454 899 454 928 q 441 859 454 873 q 410 844 428 844 q 351 905 365 844 q 329 928 346 928 q 254 877 281 928 q 227 730 227 825 l 227 329 q 408 482 279 341 q 436 536 436 510 q 396 558 436 559 l 390 558 q 379 570 379 558 l 379 596 l 383 599 q 498 596 450 596 l 628 599 l 633 596 l 633 570 q 618 558 633 559 l 608 558 q 541 539 581 558 q 475 492 501 519 l 370 375 q 364 361 364 370 q 371 342 364 351 l 533 102 q 581 56 551 74 q 637 39 611 39 l 647 39 q 660 28 659 39 l 660 1 l 657 -1 q 532 1 587 1 l 446 -1 l 441 1 l 441 28 q 410 102 441 56 l 309 244 q 270 284 288 273 q 227 294 253 294 l 227 100 q 240 53 227 68 q 286 39 253 39 l 289 39 q 300 28 300 39 l 300 1 l 297 -1 q 172 1 227 1 l 29 -1 l 26 1 l 26 28 q 36 39 26 39 l 62 39 q 109 53 96 39 q 122 100 122 68 l 122 689 z "},"ƚ":{"ha":350,"x_min":5,"x_max":361,"o":"m 361 478 l 361 431 l 236 431 l 236 278 q 249 0 236 92 l 245 -4 q 180 0 220 0 q 115 -4 140 0 l 113 0 q 125 278 125 89 l 125 431 l 5 431 l 5 478 l 125 478 l 125 669 q 113 937 125 868 l 115 942 q 236 970 178 946 q 249 956 248 970 q 236 694 237 787 l 236 478 l 361 478 z "},"ƛ":{"ha":686,"x_min":31,"x_max":644,"o":"m 484 856 l 507 814 l 378 739 l 590 122 q 644 -4 625 37 q 600 0 643 0 q 565 -1 584 0 q 530 -4 530 -2 q 511 64 524 18 q 485 151 499 110 l 372 484 l 171 0 q 65 -17 96 -5 l 31 0 l 336 616 l 309 698 l 178 621 l 154 663 l 294 745 q 275 808 286 772 q 257 866 264 843 q 248 896 250 890 l 232 938 q 225 954 229 945 q 220 966 222 962 l 218 970 q 269 963 247 963 q 314 968 298 963 q 327 903 318 935 q 333 881 328 901 q 347 834 339 861 q 357 799 355 808 l 362 785 l 484 856 z "},"Ɯ":{"ha":1189,"x_min":35,"x_max":1164,"o":"m 253 798 l 253 176 q 354 50 253 50 q 549 150 448 50 q 546 207 546 168 l 546 798 q 482 859 546 859 l 453 859 q 440 869 441 859 l 440 896 l 443 897 q 604 896 546 896 q 758 897 604 896 l 762 896 l 762 869 q 750 859 762 859 l 722 859 q 672 843 686 859 q 657 798 657 828 l 657 179 q 686 82 657 114 q 760 50 714 50 q 947 153 840 50 l 947 798 q 884 859 947 859 l 854 859 q 842 869 842 859 l 842 896 l 844 897 q 1006 896 947 896 l 1160 897 l 1164 896 l 1164 869 q 1152 859 1164 859 l 1124 859 q 1074 844 1088 859 q 1060 798 1060 829 l 1060 151 q 1067 81 1060 97 q 1093 65 1075 65 q 1156 72 1122 65 l 1162 35 q 1007 -5 1054 16 q 970 -17 982 -16 l 947 -17 l 951 103 l 947 103 q 705 -17 823 -16 q 604 18 646 -17 q 555 103 562 53 q 300 -17 432 -16 q 175 43 210 -17 q 140 208 140 103 l 140 798 q 77 859 140 859 l 47 859 q 35 869 35 859 l 35 896 l 37 897 q 199 896 140 896 l 354 897 l 357 896 l 357 869 q 346 859 357 859 l 317 859 q 267 843 281 859 q 253 798 253 828 z "},"Ɲ":{"ha":965,"x_min":-61,"x_max":961,"o":"m 144 122 l 144 764 q 114 824 140 789 q 43 859 87 859 q 26 869 26 859 l 26 895 l 31 897 l 211 897 l 696 285 q 729 240 711 265 q 754 205 746 215 q 768 195 762 195 q 775 248 775 195 l 775 774 q 757 833 775 807 q 700 859 739 859 l 664 859 q 644 869 644 859 l 644 896 l 652 897 q 804 896 755 896 l 958 897 l 961 896 l 961 869 q 950 859 961 859 l 913 859 q 857 833 876 859 q 838 774 838 808 l 838 29 q 808 -11 838 -11 q 753 20 774 -8 l 268 632 q 221 677 232 678 q 207 610 208 677 l 207 123 q 205 29 207 64 q 200 -57 204 -5 q 185 -139 196 -109 q 158 -201 175 -170 q 114 -246 142 -232 q 49 -260 86 -260 q -29 -237 3 -260 q -61 -192 -61 -215 q -46 -153 -61 -163 q -17 -143 -32 -143 q 11 -160 -3 -143 q 31 -199 25 -176 q 58 -218 36 -218 q 144 122 144 -218 z "},"ƞ":{"ha":726,"x_min":29,"x_max":707,"o":"m 231 610 l 227 486 l 231 486 q 345 584 293 558 q 457 610 397 610 q 577 552 545 610 q 610 390 610 494 l 610 -222 q 622 -266 610 -253 q 668 -282 635 -279 l 694 -285 q 707 -296 707 -286 l 707 -322 l 704 -325 q 554 -322 612 -322 l 418 -325 l 415 -322 l 415 -296 q 427 -285 415 -286 l 446 -282 q 492 -264 479 -277 q 505 -222 505 -252 l 505 400 q 487 510 505 477 q 415 543 468 543 q 231 436 321 543 l 231 100 q 243 58 231 69 q 290 40 256 46 l 310 37 q 321 26 321 36 l 321 0 l 318 -3 q 176 0 232 0 q 32 -3 119 0 l 29 0 l 29 26 q 40 37 29 36 l 66 40 q 114 57 101 44 q 126 100 126 69 l 126 446 q 119 512 126 494 q 96 532 113 530 l 36 538 l 33 571 q 225 614 168 592 q 231 610 231 614 z "},"Ɵ":{"ha":1029,"x_min":72,"x_max":957,"o":"m 957 457 q 834 118 957 249 q 513 -14 711 -14 q 200 109 328 -14 q 72 431 72 231 q 198 774 72 635 q 511 914 325 914 q 829 787 702 914 q 957 457 957 660 m 812 484 q 718 760 802 668 q 493 852 635 852 q 396 832 442 852 q 310 770 350 812 q 244 654 270 728 q 216 484 219 581 l 812 484 m 814 429 l 216 429 q 248 264 219 338 q 321 144 276 191 q 422 72 366 97 q 541 47 479 47 q 738 148 663 47 q 814 429 814 249 z "},"Ơ":{"ha":1029,"x_min":72,"x_max":957,"o":"m 493 852 q 297 755 379 852 q 215 454 215 657 q 311 156 215 264 q 541 47 407 47 q 738 148 663 47 q 814 431 814 249 q 729 747 814 642 q 493 852 644 852 m 957 457 q 834 118 957 249 q 513 -14 711 -14 q 200 109 328 -14 q 72 431 72 231 q 198 774 72 635 q 511 914 325 914 q 736 857 635 914 q 751 857 745 857 q 800 871 772 857 q 828 916 828 885 q 814 938 828 928 q 785 950 800 949 q 735 973 751 954 q 720 1015 720 991 q 783 1069 720 1069 q 850 1031 822 1069 q 879 943 879 993 q 792 820 879 839 q 913 666 870 759 q 957 457 957 572 z "},"ơ":{"ha":694,"x_min":53,"x_max":660,"o":"m 53 285 q 135 521 53 432 q 353 610 216 610 q 496 579 434 610 q 539 575 516 575 q 565 578 550 575 q 596 596 581 582 q 612 631 612 610 q 574 663 612 657 q 524 683 541 665 q 507 725 507 701 q 571 779 507 779 q 635 743 610 779 q 660 657 660 707 q 633 572 660 605 q 558 534 606 540 q 594 488 578 514 q 620 433 610 463 q 636 369 631 403 q 642 297 642 335 q 563 72 642 158 q 347 -14 484 -14 q 133 71 212 -14 q 53 285 53 156 m 343 554 q 242 517 282 554 q 189 427 203 479 q 175 309 175 375 q 189 191 175 246 q 247 88 203 135 q 359 41 292 41 q 474 107 429 41 q 519 272 519 172 q 483 483 519 412 q 343 554 446 554 z "},"Ƣ":{"ha":1225,"x_min":50,"x_max":1211,"o":"m 464 867 q 264 762 350 867 q 178 454 178 657 q 273 145 178 260 q 510 31 368 31 q 661 85 595 31 l 661 790 q 464 867 576 867 m 900 836 l 765 844 l 765 83 q 484 -17 650 -16 q 175 107 300 -17 q 50 431 50 231 q 173 775 50 636 q 482 914 296 914 q 681 865 591 914 q 733 897 710 875 l 765 897 q 916 888 875 888 q 1008 892 981 888 q 1076 914 1036 896 l 1107 914 l 1107 -97 q 1166 -158 1107 -158 l 1200 -158 q 1211 -170 1211 -158 l 1211 -196 l 1208 -199 q 1053 -196 1107 -196 l 903 -199 l 900 -196 l 900 -170 q 911 -158 900 -159 l 945 -158 q 1004 -97 1004 -158 l 1004 741 q 986 822 1004 807 q 900 836 968 836 z "},"ƣ":{"ha":958,"x_min":50,"x_max":945,"o":"m 469 467 q 326 562 412 562 q 200 494 244 562 q 155 315 155 427 q 176 185 155 240 q 228 102 196 131 q 292 61 260 74 q 358 47 325 47 q 469 78 429 47 l 469 467 m 847 -220 q 860 -263 847 -250 q 907 -281 872 -275 l 933 -285 q 945 -296 944 -286 l 945 -322 l 942 -325 q 793 -322 848 -322 l 648 -325 l 646 -322 l 646 -296 q 657 -285 646 -286 l 684 -281 q 730 -263 717 -275 q 743 -220 743 -250 l 743 454 q 735 490 743 477 q 711 508 728 503 q 683 514 694 513 q 647 515 671 515 q 574 498 614 515 l 574 71 q 453 11 524 36 q 325 -14 382 -14 q 199 15 254 -14 q 112 89 143 43 q 65 185 81 135 q 50 288 50 236 q 129 518 50 427 q 332 610 207 610 q 463 583 414 610 q 643 561 505 561 q 760 587 701 561 q 827 614 819 614 l 847 614 l 847 -220 z "}}}
